Aleo-Bold.ufo
<glyph name="exclam" format="1">
  <advance width="277"/>
  <unicode hex="0021"/>
  <note>
    exclam
  </note>
  <outline>
    <contour>
      <point x="198" y="437" type="curve" smooth="yes"/>
      <point x="198" y="723" type="line"/>
      <point x="81" y="723" type="line"/>
      <point x="81" y="437" type="line" smooth="yes"/>
      <point x="81" y="407"/>
      <point x="83" y="377"/>
      <point x="86" y="348" type="curve" smooth="yes"/>
      <point x="89" y="319"/>
      <point x="93" y="288"/>
      <point x="98" y="255" type="curve"/>
      <point x="181" y="255" type="line"/>
      <point x="186" y="288"/>
      <point x="190" y="319"/>
      <point x="193" y="348" type="curve" smooth="yes"/>
      <point x="196" y="377"/>
      <point x="198" y="407"/>
    </contour>
    <contour>
      <point x="63" y="68" type="curve" smooth="yes"/>
      <point x="63" y="57"/>
      <point x="64" y="47"/>
      <point x="68" y="38" type="curve" smooth="yes"/>
      <point x="72" y="29"/>
      <point x="77" y="22"/>
      <point x="84" y="15" type="curve" smooth="yes"/>
      <point x="91" y="8"/>
      <point x="100" y="3"/>
      <point x="109" y="-1" type="curve" smooth="yes"/>
      <point x="118" y="-5"/>
      <point x="128" y="-7"/>
      <point x="139" y="-7" type="curve" smooth="yes"/>
      <point x="149" y="-7"/>
      <point x="159" y="-5"/>
      <point x="168" y="-1" type="curve" smooth="yes"/>
      <point x="177" y="3"/>
      <point x="185" y="8"/>
      <point x="192" y="15" type="curve" smooth="yes"/>
      <point x="199" y="22"/>
      <point x="204" y="29"/>
      <point x="208" y="38" type="curve" smooth="yes"/>
      <point x="212" y="47"/>
      <point x="214" y="57"/>
      <point x="214" y="68" type="curve" smooth="yes"/>
      <point x="214" y="78"/>
      <point x="212" y="89"/>
      <point x="208" y="98" type="curve" smooth="yes"/>
      <point x="204" y="107"/>
      <point x="199" y="115"/>
      <point x="192" y="122" type="curve" smooth="yes"/>
      <point x="185" y="129"/>
      <point x="177" y="134"/>
      <point x="168" y="138" type="curve" smooth="yes"/>
      <point x="159" y="142"/>
      <point x="149" y="144"/>
      <point x="139" y="144" type="curve" smooth="yes"/>
      <point x="128" y="144"/>
      <point x="118" y="142"/>
      <point x="109" y="138" type="curve" smooth="yes"/>
      <point x="100" y="134"/>
      <point x="91" y="129"/>
      <point x="84" y="122" type="curve" smooth="yes"/>
      <point x="77" y="115"/>
      <point x="72" y="107"/>
      <point x="68" y="98" type="curve" smooth="yes"/>
      <point x="64" y="89"/>
      <point x="63" y="78"/>
    </contour>
  </outline>
</glyph>
<glyph name="quotedbl" format="1">
  <advance width="399"/>
  <unicode hex="0022"/>
  <note>
    quotedbl
  </note>
  <outline>
    <contour>
      <point x="161" y="579" type="line"/>
      <point x="161" y="723" type="line"/>
      <point x="54" y="723" type="line"/>
      <point x="54" y="579" type="line"/>
      <point x="64" y="501" type="line" smooth="yes"/>
      <point x="66" y="486"/>
      <point x="71" y="475"/>
      <point x="78" y="467" type="curve" smooth="yes"/>
      <point x="85" y="459"/>
      <point x="94" y="456"/>
      <point x="106" y="456" type="curve" smooth="yes"/>
      <point x="120" y="456"/>
      <point x="131" y="459"/>
      <point x="137" y="467" type="curve" smooth="yes"/>
      <point x="143" y="475"/>
      <point x="148" y="486"/>
      <point x="150" y="501" type="curve" smooth="yes"/>
    </contour>
    <contour>
      <point x="345" y="579" type="line"/>
      <point x="345" y="723" type="line"/>
      <point x="238" y="723" type="line"/>
      <point x="238" y="579" type="line"/>
      <point x="248" y="501" type="line" smooth="yes"/>
      <point x="250" y="486"/>
      <point x="255" y="475"/>
      <point x="262" y="467" type="curve" smooth="yes"/>
      <point x="269" y="459"/>
      <point x="278" y="456"/>
      <point x="290" y="456" type="curve" smooth="yes"/>
      <point x="304" y="456"/>
      <point x="315" y="459"/>
      <point x="321" y="467" type="curve" smooth="yes"/>
      <point x="327" y="475"/>
      <point x="332" y="486"/>
      <point x="334" y="501" type="curve" smooth="yes"/>
    </contour>
  </outline>
</glyph>
<glyph name="numbersign" format="1">
  <advance width="620"/>
  <unicode hex="0023"/>
  <note>
    numbersign
  </note>
  <outline>
    <contour>
      <point x="393" y="0" type="line"/>
      <point x="432" y="204" type="line"/>
      <point x="541" y="204" type="line"/>
      <point x="547" y="243" type="line" smooth="yes"/>
      <point x="548" y="249"/>
      <point x="548" y="254"/>
      <point x="548" y="259" type="curve" smooth="yes"/>
      <point x="548" y="271"/>
      <point x="546" y="280"/>
      <point x="540" y="285" type="curve" smooth="yes"/>
      <point x="534" y="290"/>
      <point x="526" y="293"/>
      <point x="515" y="293" type="curve" smooth="yes"/>
      <point x="445" y="293" type="line"/>
      <point x="470" y="431" type="line"/>
      <point x="520" y="431" type="line" smooth="yes"/>
      <point x="538" y="431"/>
      <point x="551" y="434"/>
      <point x="559" y="440" type="curve" smooth="yes"/>
      <point x="567" y="446"/>
      <point x="573" y="455"/>
      <point x="575" y="468" type="curve" smooth="yes"/>
      <point x="584" y="520" type="line"/>
      <point x="483" y="520" type="line"/>
      <point x="513" y="680" type="line"/>
      <point x="513" y="682"/>
      <point x="514" y="685"/>
      <point x="514" y="688" type="curve" smooth="yes"/>
      <point x="514" y="698"/>
      <point x="510" y="706"/>
      <point x="503" y="713" type="curve" smooth="yes"/>
      <point x="496" y="720"/>
      <point x="487" y="723"/>
      <point x="475" y="723" type="curve" smooth="yes"/>
      <point x="419" y="723" type="line"/>
      <point x="381" y="520" type="line"/>
      <point x="279" y="520" type="line"/>
      <point x="317" y="723" type="line"/>
      <point x="261" y="723" type="line" smooth="yes"/>
      <point x="248" y="723"/>
      <point x="237" y="719"/>
      <point x="227" y="712" type="curve" smooth="yes"/>
      <point x="217" y="705"/>
      <point x="212" y="694"/>
      <point x="209" y="681" type="curve" smooth="yes"/>
      <point x="177" y="520" type="line"/>
      <point x="122" y="520" type="line" smooth="yes"/>
      <point x="104" y="520"/>
      <point x="91" y="517"/>
      <point x="83" y="511" type="curve" smooth="yes"/>
      <point x="75" y="505"/>
      <point x="69" y="495"/>
      <point x="67" y="482" type="curve" smooth="yes"/>
      <point x="58" y="431" type="line"/>
      <point x="165" y="431" type="line"/>
      <point x="139" y="293" type="line"/>
      <point x="44" y="293" type="line"/>
      <point x="37" y="254" type="line" smooth="yes"/>
      <point x="36" y="248"/>
      <point x="36" y="242"/>
      <point x="36" y="237" type="curve" smooth="yes"/>
      <point x="36" y="225"/>
      <point x="39" y="217"/>
      <point x="45" y="212" type="curve" smooth="yes"/>
      <point x="51" y="207"/>
      <point x="58" y="204"/>
      <point x="69" y="204" type="curve" smooth="yes"/>
      <point x="127" y="204" type="line"/>
      <point x="89" y="0" type="line"/>
      <point x="143" y="0" type="line" smooth="yes"/>
      <point x="156" y="0"/>
      <point x="168" y="3"/>
      <point x="179" y="10" type="curve" smooth="yes"/>
      <point x="190" y="17"/>
      <point x="196" y="29"/>
      <point x="199" y="45" type="curve" smooth="yes"/>
      <point x="228" y="204" type="line"/>
      <point x="331" y="204" type="line"/>
      <point x="301" y="51" type="line"/>
      <point x="301" y="49"/>
      <point x="300" y="48"/>
      <point x="300" y="46" type="curve" smooth="yes"/>
      <point x="300" y="41" type="line" smooth="yes"/>
      <point x="300" y="29"/>
      <point x="304" y="20"/>
      <point x="311" y="12" type="curve" smooth="yes"/>
      <point x="318" y="4"/>
      <point x="327" y="0"/>
      <point x="337" y="0" type="curve" smooth="yes"/>
    </contour>
    <contour>
      <point x="343" y="293" type="line"/>
      <point x="241" y="293" type="line"/>
      <point x="267" y="431" type="line"/>
      <point x="369" y="431" type="line"/>
    </contour>
  </outline>
</glyph>
<glyph name="dollar" format="1">
  <advance width="591"/>
  <unicode hex="0024"/>
  <note>
    dollar
  </note>
  <outline>
    <contour>
      <point x="241" y="-4" type="curve"/>
      <point x="232" y="-112" type="line"/>
      <point x="277" y="-112" type="line" smooth="yes"/>
      <point x="287" y="-112"/>
      <point x="295" y="-108"/>
      <point x="301" y="-102" type="curve" smooth="yes"/>
      <point x="307" y="-96"/>
      <point x="310" y="-88"/>
      <point x="311" y="-80" type="curve"/>
      <point x="317" y="-7" type="line"/>
      <point x="354" y="-4"/>
      <point x="388" y="3"/>
      <point x="417" y="16" type="curve" smooth="yes"/>
      <point x="446" y="29"/>
      <point x="470" y="46"/>
      <point x="490" y="67" type="curve" smooth="yes"/>
      <point x="510" y="88"/>
      <point x="525" y="112"/>
      <point x="535" y="139" type="curve" smooth="yes"/>
      <point x="545" y="166"/>
      <point x="551" y="195"/>
      <point x="551" y="226" type="curve" smooth="yes"/>
      <point x="551" y="257"/>
      <point x="545" y="284"/>
      <point x="533" y="305" type="curve" smooth="yes"/>
      <point x="521" y="326"/>
      <point x="506" y="343"/>
      <point x="487" y="357" type="curve" smooth="yes"/>
      <point x="468" y="371"/>
      <point x="448" y="382"/>
      <point x="424" y="391" type="curve" smooth="yes"/>
      <point x="400" y="400"/>
      <point x="377" y="409"/>
      <point x="353" y="416" type="curve"/>
      <point x="370" y="622" type="line"/>
      <point x="383" y="619"/>
      <point x="394" y="616"/>
      <point x="405" y="611" type="curve" smooth="yes"/>
      <point x="416" y="606"/>
      <point x="426" y="602"/>
      <point x="435" y="597" type="curve"/>
      <point x="444" y="593"/>
      <point x="451" y="589"/>
      <point x="458" y="586" type="curve" smooth="yes"/>
      <point x="465" y="583"/>
      <point x="471" y="581"/>
      <point x="476" y="581" type="curve" smooth="yes"/>
      <point x="483" y="581"/>
      <point x="488" y="583"/>
      <point x="493" y="586" type="curve" smooth="yes"/>
      <point x="498" y="589"/>
      <point x="502" y="594"/>
      <point x="507" y="601" type="curve" smooth="yes"/>
      <point x="537" y="646" type="line"/>
      <point x="518" y="664"/>
      <point x="496" y="681"/>
      <point x="470" y="695" type="curve" smooth="yes"/>
      <point x="444" y="709"/>
      <point x="414" y="719"/>
      <point x="379" y="725" type="curve"/>
      <point x="387" y="824" type="line"/>
      <point x="342" y="824" type="line" smooth="yes"/>
      <point x="332" y="824"/>
      <point x="324" y="820"/>
      <point x="318" y="814" type="curve" smooth="yes"/>
      <point x="312" y="808"/>
      <point x="309" y="800"/>
      <point x="308" y="792" type="curve"/>
      <point x="303" y="730" type="line"/>
      <point x="266" y="728"/>
      <point x="233" y="720"/>
      <point x="205" y="708" type="curve" smooth="yes"/>
      <point x="177" y="696"/>
      <point x="152" y="681"/>
      <point x="133" y="662" type="curve" smooth="yes"/>
      <point x="114" y="643"/>
      <point x="99" y="621"/>
      <point x="89" y="597" type="curve" smooth="yes"/>
      <point x="79" y="573"/>
      <point x="74" y="547"/>
      <point x="74" y="522" type="curve" smooth="yes"/>
      <point x="74" y="488"/>
      <point x="80" y="461"/>
      <point x="91" y="438" type="curve" smooth="yes"/>
      <point x="102" y="415"/>
      <point x="118" y="396"/>
      <point x="136" y="381" type="curve" smooth="yes"/>
      <point x="154" y="366"/>
      <point x="175" y="355"/>
      <point x="198" y="346" type="curve" smooth="yes"/>
      <point x="221" y="337"/>
      <point x="245" y="329"/>
      <point x="269" y="322" type="curve"/>
      <point x="249" y="98" type="line"/>
      <point x="230" y="101"/>
      <point x="215" y="107"/>
      <point x="201" y="114" type="curve" smooth="yes"/>
      <point x="187" y="121"/>
      <point x="176" y="127"/>
      <point x="165" y="134" type="curve" smooth="yes"/>
      <point x="154" y="141"/>
      <point x="144" y="148"/>
      <point x="136" y="153" type="curve" smooth="yes"/>
      <point x="128" y="158"/>
      <point x="120" y="160"/>
      <point x="113" y="160" type="curve" smooth="yes"/>
      <point x="107" y="160"/>
      <point x="101" y="159"/>
      <point x="95" y="156" type="curve" smooth="yes"/>
      <point x="89" y="153"/>
      <point x="85" y="148"/>
      <point x="82" y="143" type="curve"/>
      <point x="44" y="87" type="line"/>
      <point x="68" y="63"/>
      <point x="97" y="43"/>
      <point x="131" y="27" type="curve" smooth="yes"/>
      <point x="165" y="11"/>
      <point x="202" y="1"/>
    </contour>
    <contour>
      <point x="433" y="207" type="curve" smooth="yes"/>
      <point x="433" y="176"/>
      <point x="424" y="151"/>
      <point x="406" y="132" type="curve" smooth="yes"/>
      <point x="388" y="113"/>
      <point x="361" y="101"/>
      <point x="326" y="96" type="curve"/>
      <point x="343" y="300" type="line"/>
      <point x="356" y="296"/>
      <point x="368" y="290"/>
      <point x="379" y="285" type="curve" smooth="yes"/>
      <point x="390" y="280"/>
      <point x="400" y="273"/>
      <point x="408" y="266" type="curve" smooth="yes"/>
      <point x="416" y="259"/>
      <point x="422" y="251"/>
      <point x="427" y="241" type="curve"/>
      <point x="431" y="231"/>
      <point x="433" y="220"/>
    </contour>
    <contour>
      <point x="191" y="534" type="curve" smooth="yes"/>
      <point x="191" y="545"/>
      <point x="192" y="556"/>
      <point x="196" y="566" type="curve" smooth="yes"/>
      <point x="200" y="576"/>
      <point x="207" y="584"/>
      <point x="215" y="592" type="curve" smooth="yes"/>
      <point x="223" y="600"/>
      <point x="234" y="607"/>
      <point x="247" y="613" type="curve"/>
      <point x="260" y="618"/>
      <point x="275" y="622"/>
      <point x="293" y="624" type="curve"/>
      <point x="278" y="439" type="line"/>
      <point x="265" y="444"/>
      <point x="254" y="449"/>
      <point x="243" y="455" type="curve" smooth="yes"/>
      <point x="232" y="461"/>
      <point x="223" y="467"/>
      <point x="215" y="475" type="curve" smooth="yes"/>
      <point x="207" y="483"/>
      <point x="201" y="491"/>
      <point x="197" y="501" type="curve" smooth="yes"/>
      <point x="193" y="511"/>
      <point x="191" y="521"/>
    </contour>
  </outline>
</glyph>
<glyph name="ampersand" format="1">
  <advance width="723"/>
  <unicode hex="0026"/>
  <note>
    ampersand
  </note>
  <outline>
    <contour>
      <point x="319" y="731" type="curve" smooth="yes"/>
      <point x="287" y="731"/>
      <point x="258" y="726"/>
      <point x="233" y="716" type="curve" smooth="yes"/>
      <point x="208" y="706"/>
      <point x="186" y="693"/>
      <point x="168" y="676" type="curve" smooth="yes"/>
      <point x="150" y="659"/>
      <point x="137" y="640"/>
      <point x="128" y="618" type="curve" smooth="yes"/>
      <point x="119" y="596"/>
      <point x="115" y="571"/>
      <point x="115" y="546" type="curve" smooth="yes"/>
      <point x="115" y="522"/>
      <point x="119" y="499"/>
      <point x="127" y="475" type="curve" smooth="yes"/>
      <point x="135" y="451"/>
      <point x="148" y="427"/>
      <point x="166" y="402" type="curve"/>
      <point x="145" y="392"/>
      <point x="125" y="380"/>
      <point x="107" y="366" type="curve" smooth="yes"/>
      <point x="89" y="352"/>
      <point x="73" y="336"/>
      <point x="60" y="319" type="curve" smooth="yes"/>
      <point x="47" y="302"/>
      <point x="37" y="283"/>
      <point x="30" y="263" type="curve" smooth="yes"/>
      <point x="23" y="243"/>
      <point x="19" y="221"/>
      <point x="19" y="199" type="curve" smooth="yes"/>
      <point x="19" y="167"/>
      <point x="25" y="139"/>
      <point x="38" y="113" type="curve" smooth="yes"/>
      <point x="51" y="87"/>
      <point x="68" y="66"/>
      <point x="89" y="48" type="curve" smooth="yes"/>
      <point x="110" y="30"/>
      <point x="133" y="16"/>
      <point x="160" y="6" type="curve" smooth="yes"/>
      <point x="187" y="-4"/>
      <point x="214" y="-8"/>
      <point x="242" y="-8" type="curve" smooth="yes"/>
      <point x="288" y="-8"/>
      <point x="331" y="-1"/>
      <point x="370" y="14" type="curve" smooth="yes"/>
      <point x="409" y="29"/>
      <point x="444" y="49"/>
      <point x="476" y="75" type="curve"/>
      <point x="526" y="24" type="line"/>
      <point x="530" y="19"/>
      <point x="535" y="15"/>
      <point x="539" y="12" type="curve" smooth="yes"/>
      <point x="543" y="9"/>
      <point x="548" y="7"/>
      <point x="552" y="5" type="curve" smooth="yes"/>
      <point x="556" y="3"/>
      <point x="560" y="2"/>
      <point x="565" y="1" type="curve" smooth="yes"/>
      <point x="570" y="0"/>
      <point x="576" y="0"/>
      <point x="582" y="0" type="curve" smooth="yes"/>
      <point x="703" y="0" type="line"/>
      <point x="552" y="157" type="line"/>
      <point x="575" y="191"/>
      <point x="592" y="228"/>
      <point x="604" y="268" type="curve" smooth="yes"/>
      <point x="616" y="308"/>
      <point x="624" y="350"/>
      <point x="624" y="394" type="curve"/>
      <point x="546" y="394" type="line" smooth="yes"/>
      <point x="538" y="394"/>
      <point x="532" y="391"/>
      <point x="528" y="386" type="curve" smooth="yes"/>
      <point x="524" y="381"/>
      <point x="521" y="376"/>
      <point x="520" y="368" type="curve"/>
      <point x="518" y="344"/>
      <point x="515" y="320"/>
      <point x="508" y="297" type="curve" smooth="yes"/>
      <point x="501" y="274"/>
      <point x="492" y="252"/>
      <point x="481" y="231" type="curve"/>
      <point x="289" y="430" type="line" smooth="yes"/>
      <point x="278" y="441"/>
      <point x="269" y="452"/>
      <point x="261" y="462" type="curve" smooth="yes"/>
      <point x="253" y="472"/>
      <point x="248" y="482"/>
      <point x="243" y="491" type="curve" smooth="yes"/>
      <point x="238" y="500"/>
      <point x="235" y="510"/>
      <point x="233" y="519" type="curve" smooth="yes"/>
      <point x="231" y="528"/>
      <point x="230" y="538"/>
      <point x="230" y="548" type="curve" smooth="yes"/>
      <point x="230" y="560"/>
      <point x="232" y="571"/>
      <point x="236" y="582" type="curve" smooth="yes"/>
      <point x="240" y="593"/>
      <point x="245" y="602"/>
      <point x="253" y="610" type="curve" smooth="yes"/>
      <point x="261" y="618"/>
      <point x="270" y="625"/>
      <point x="281" y="630" type="curve" smooth="yes"/>
      <point x="292" y="635"/>
      <point x="305" y="637"/>
      <point x="319" y="637" type="curve" smooth="yes"/>
      <point x="331" y="637"/>
      <point x="341" y="636"/>
      <point x="350" y="632" type="curve" smooth="yes"/>
      <point x="359" y="628"/>
      <point x="366" y="624"/>
      <point x="373" y="618" type="curve" smooth="yes"/>
      <point x="380" y="612"/>
      <point x="385" y="605"/>
      <point x="390" y="597" type="curve" smooth="yes"/>
      <point x="395" y="589"/>
      <point x="399" y="581"/>
      <point x="402" y="572" type="curve"/>
      <point x="405" y="565"/>
      <point x="407" y="561"/>
      <point x="412" y="558" type="curve"/>
      <point x="416" y="555"/>
      <point x="422" y="553"/>
      <point x="428" y="553" type="curve" smooth="yes"/>
      <point x="431" y="553" type="line" smooth="yes"/>
      <point x="432" y="553"/>
      <point x="433" y="554"/>
      <point x="434" y="554" type="curve"/>
      <point x="512" y="570" type="line"/>
      <point x="510" y="591"/>
      <point x="506" y="611"/>
      <point x="496" y="630" type="curve" smooth="yes"/>
      <point x="486" y="649"/>
      <point x="473" y="667"/>
      <point x="457" y="682" type="curve" smooth="yes"/>
      <point x="441" y="697"/>
      <point x="420" y="709"/>
      <point x="397" y="718" type="curve" smooth="yes"/>
      <point x="374" y="727"/>
      <point x="348" y="731"/>
    </contour>
    <contour>
      <point x="145" y="209" type="curve" smooth="yes"/>
      <point x="145" y="234"/>
      <point x="151" y="257"/>
      <point x="163" y="279" type="curve" smooth="yes"/>
      <point x="175" y="301"/>
      <point x="194" y="321"/>
      <point x="221" y="338" type="curve"/>
      <point x="411" y="143" type="line"/>
      <point x="391" y="127"/>
      <point x="369" y="113"/>
      <point x="345" y="104" type="curve" smooth="yes"/>
      <point x="321" y="95"/>
      <point x="294" y="91"/>
      <point x="265" y="91" type="curve" smooth="yes"/>
      <point x="249" y="91"/>
      <point x="232" y="93"/>
      <point x="218" y="99" type="curve" smooth="yes"/>
      <point x="204" y="105"/>
      <point x="191" y="112"/>
      <point x="180" y="122" type="curve" smooth="yes"/>
      <point x="169" y="132"/>
      <point x="160" y="145"/>
      <point x="154" y="160" type="curve" smooth="yes"/>
      <point x="148" y="175"/>
      <point x="145" y="191"/>
    </contour>
  </outline>
</glyph>
<glyph name="quotesingle" format="1">
  <advance width="215"/>
  <unicode hex="0027"/>
  <note>
    quotesingle
  </note>
  <outline>
    <contour>
      <point x="161" y="579" type="line"/>
      <point x="161" y="723" type="line"/>
      <point x="54" y="723" type="line"/>
      <point x="54" y="579" type="line"/>
      <point x="64" y="501" type="line" smooth="yes"/>
      <point x="66" y="486"/>
      <point x="71" y="475"/>
      <point x="78" y="467" type="curve" smooth="yes"/>
      <point x="85" y="459"/>
      <point x="94" y="456"/>
      <point x="106" y="456" type="curve" smooth="yes"/>
      <point x="120" y="456"/>
      <point x="131" y="459"/>
      <point x="137" y="467" type="curve" smooth="yes"/>
      <point x="143" y="475"/>
      <point x="148" y="486"/>
      <point x="150" y="501" type="curve" smooth="yes"/>
    </contour>
  </outline>
</glyph>
<glyph name="parenleft" format="1">
  <advance width="251"/>
  <unicode hex="0028"/>
  <note>
    parenleft
  </note>
  <outline>
    <contour>
      <point x="132" y="314" type="curve" smooth="yes"/>
      <point x="132" y="383"/>
      <point x="140" y="450"/>
      <point x="157" y="516" type="curve" smooth="yes"/>
      <point x="174" y="582"/>
      <point x="197" y="646"/>
      <point x="228" y="704" type="curve"/>
      <point x="232" y="713"/>
      <point x="235" y="720"/>
      <point x="235" y="726" type="curve" smooth="yes"/>
      <point x="235" y="732"/>
      <point x="232" y="738"/>
      <point x="229" y="742" type="curve" smooth="yes"/>
      <point x="226" y="746"/>
      <point x="222" y="749"/>
      <point x="217" y="752" type="curve" smooth="yes"/>
      <point x="163" y="785" type="line"/>
      <point x="138" y="747"/>
      <point x="116" y="709"/>
      <point x="99" y="671" type="curve" smooth="yes"/>
      <point x="82" y="633"/>
      <point x="68" y="594"/>
      <point x="57" y="555" type="curve" smooth="yes"/>
      <point x="46" y="516"/>
      <point x="38" y="476"/>
      <point x="33" y="436" type="curve" smooth="yes"/>
      <point x="28" y="396"/>
      <point x="25" y="356"/>
      <point x="25" y="314" type="curve" smooth="yes"/>
      <point x="25" y="272"/>
      <point x="28" y="231"/>
      <point x="33" y="191" type="curve" smooth="yes"/>
      <point x="38" y="151"/>
      <point x="46" y="111"/>
      <point x="57" y="72" type="curve" smooth="yes"/>
      <point x="68" y="33"/>
      <point x="82" y="-6"/>
      <point x="99" y="-44" type="curve" smooth="yes"/>
      <point x="116" y="-82"/>
      <point x="138" y="-120"/>
      <point x="163" y="-158" type="curve"/>
      <point x="217" y="-124" type="line" smooth="yes"/>
      <point x="222" y="-121"/>
      <point x="226" y="-118"/>
      <point x="229" y="-114" type="curve" smooth="yes"/>
      <point x="232" y="-110"/>
      <point x="235" y="-105"/>
      <point x="235" y="-98" type="curve" smooth="yes"/>
      <point x="235" y="-95"/>
      <point x="234" y="-92"/>
      <point x="233" y="-88" type="curve" smooth="yes"/>
      <point x="232" y="-84"/>
      <point x="231" y="-80"/>
      <point x="229" y="-76" type="curve" smooth="yes"/>
      <point x="198" y="-18"/>
      <point x="174" y="45"/>
      <point x="157" y="111" type="curve" smooth="yes"/>
      <point x="140" y="177"/>
      <point x="132" y="245"/>
    </contour>
  </outline>
</glyph>
<glyph name="parenright" format="1">
  <advance width="250"/>
  <unicode hex="0029"/>
  <note>
    parenright
  </note>
  <outline>
    <contour>
      <point x="118" y="314" type="curve" smooth="yes"/>
      <point x="118" y="245"/>
      <point x="110" y="177"/>
      <point x="93" y="111" type="curve" smooth="yes"/>
      <point x="76" y="45"/>
      <point x="53" y="-18"/>
      <point x="22" y="-76" type="curve" smooth="yes"/>
      <point x="20" y="-80"/>
      <point x="18" y="-84"/>
      <point x="17" y="-88" type="curve" smooth="yes"/>
      <point x="16" y="-92"/>
      <point x="15" y="-95"/>
      <point x="15" y="-98" type="curve" smooth="yes"/>
      <point x="15" y="-105"/>
      <point x="18" y="-110"/>
      <point x="21" y="-114" type="curve" smooth="yes"/>
      <point x="24" y="-118"/>
      <point x="28" y="-121"/>
      <point x="33" y="-124" type="curve" smooth="yes"/>
      <point x="87" y="-158" type="line"/>
      <point x="112" y="-120"/>
      <point x="134" y="-82"/>
      <point x="151" y="-44" type="curve" smooth="yes"/>
      <point x="168" y="-6"/>
      <point x="182" y="33"/>
      <point x="193" y="72" type="curve" smooth="yes"/>
      <point x="204" y="111"/>
      <point x="212" y="151"/>
      <point x="217" y="191" type="curve" smooth="yes"/>
      <point x="222" y="231"/>
      <point x="225" y="272"/>
      <point x="225" y="314" type="curve" smooth="yes"/>
      <point x="225" y="356"/>
      <point x="222" y="396"/>
      <point x="217" y="436" type="curve" smooth="yes"/>
      <point x="212" y="476"/>
      <point x="204" y="516"/>
      <point x="193" y="555" type="curve" smooth="yes"/>
      <point x="182" y="594"/>
      <point x="168" y="633"/>
      <point x="151" y="671" type="curve" smooth="yes"/>
      <point x="134" y="709"/>
      <point x="112" y="747"/>
      <point x="87" y="785" type="curve"/>
      <point x="33" y="752" type="line" smooth="yes"/>
      <point x="28" y="749"/>
      <point x="24" y="746"/>
      <point x="21" y="742" type="curve" smooth="yes"/>
      <point x="18" y="738"/>
      <point x="15" y="732"/>
      <point x="15" y="726" type="curve" smooth="yes"/>
      <point x="15" y="720"/>
      <point x="18" y="713"/>
      <point x="22" y="704" type="curve"/>
      <point x="53" y="646"/>
      <point x="76" y="582"/>
      <point x="93" y="516" type="curve" smooth="yes"/>
      <point x="110" y="450"/>
      <point x="118" y="383"/>
    </contour>
  </outline>
</glyph>
<glyph name="asterisk" format="1">
  <advance width="407"/>
  <unicode hex="002A"/>
  <note>
    asterisk
  </note>
  <outline>
    <contour>
      <point x="174" y="510" type="curve" smooth="yes"/>
      <point x="174" y="418" type="line"/>
      <point x="232" y="418" type="line"/>
      <point x="232" y="510" type="line" smooth="yes"/>
      <point x="232" y="524"/>
      <point x="230" y="537"/>
      <point x="226" y="548" type="curve"/>
      <point x="230" y="543"/>
      <point x="235" y="539"/>
      <point x="240" y="535" type="curve" smooth="yes"/>
      <point x="245" y="531"/>
      <point x="250" y="528"/>
      <point x="256" y="524" type="curve"/>
      <point x="336" y="478" type="line"/>
      <point x="364" y="528" type="line"/>
      <point x="285" y="574" type="line" smooth="yes"/>
      <point x="272" y="581"/>
      <point x="260" y="586"/>
      <point x="249" y="588" type="curve"/>
      <point x="255" y="589"/>
      <point x="261" y="591"/>
      <point x="267" y="593" type="curve" smooth="yes"/>
      <point x="273" y="595"/>
      <point x="279" y="598"/>
      <point x="285" y="602" type="curve"/>
      <point x="365" y="648" type="line"/>
      <point x="335" y="698" type="line"/>
      <point x="256" y="652" type="line"/>
      <point x="250" y="648"/>
      <point x="245" y="645"/>
      <point x="240" y="641" type="curve" smooth="yes"/>
      <point x="235" y="637"/>
      <point x="231" y="633"/>
      <point x="227" y="628" type="curve"/>
      <point x="229" y="634"/>
      <point x="230" y="640"/>
      <point x="231" y="646" type="curve" smooth="yes"/>
      <point x="232" y="652"/>
      <point x="232" y="659"/>
      <point x="232" y="666" type="curve" smooth="yes"/>
      <point x="232" y="758" type="line"/>
      <point x="174" y="758" type="line"/>
      <point x="174" y="666" type="line" smooth="yes"/>
      <point x="174" y="659"/>
      <point x="174" y="652"/>
      <point x="175" y="646" type="curve" smooth="yes"/>
      <point x="176" y="640"/>
      <point x="178" y="634"/>
      <point x="180" y="628" type="curve"/>
      <point x="176" y="633"/>
      <point x="171" y="637"/>
      <point x="166" y="641" type="curve" smooth="yes"/>
      <point x="161" y="645"/>
      <point x="156" y="648"/>
      <point x="150" y="652" type="curve"/>
      <point x="70" y="699" type="line"/>
      <point x="42" y="649" type="line"/>
      <point x="121" y="602" type="line"/>
      <point x="127" y="598"/>
      <point x="133" y="596"/>
      <point x="139" y="593" type="curve" smooth="yes"/>
      <point x="145" y="590"/>
      <point x="151" y="589"/>
      <point x="157" y="588" type="curve"/>
      <point x="151" y="587"/>
      <point x="145" y="585"/>
      <point x="139" y="583" type="curve" smooth="yes"/>
      <point x="133" y="581"/>
      <point x="127" y="578"/>
      <point x="121" y="574" type="curve"/>
      <point x="42" y="528" type="line"/>
      <point x="71" y="478" type="line"/>
      <point x="150" y="524" type="line"/>
      <point x="156" y="528"/>
      <point x="161" y="531"/>
      <point x="166" y="535" type="curve" smooth="yes"/>
      <point x="171" y="539"/>
      <point x="175" y="543"/>
      <point x="179" y="548" type="curve"/>
      <point x="177" y="542"/>
      <point x="176" y="536"/>
      <point x="175" y="530" type="curve" smooth="yes"/>
      <point x="174" y="524"/>
      <point x="174" y="517"/>
    </contour>
  </outline>
</glyph>
<glyph name="plus" format="1">
  <advance width="576"/>
  <unicode hex="002B"/>
  <note>
    plus
  </note>
  <outline>
    <contour>
      <point x="338" y="382" type="line"/>
      <point x="338" y="586" type="line"/>
      <point x="238" y="586" type="line"/>
      <point x="238" y="382" type="line"/>
      <point x="44" y="382" type="line"/>
      <point x="44" y="290" type="line"/>
      <point x="238" y="290" type="line"/>
      <point x="238" y="84" type="line"/>
      <point x="338" y="84" type="line"/>
      <point x="338" y="290" type="line"/>
      <point x="532" y="290" type="line"/>
      <point x="532" y="382" type="line"/>
    </contour>
  </outline>
</glyph>
<glyph name="comma" format="1">
  <advance width="197"/>
  <unicode hex="002C"/>
  <note>
    comma
  </note>
  <outline>
    <contour>
      <point x="25" y="76" type="curve" smooth="yes"/>
      <point x="25" y="33"/>
      <point x="53" y="2"/>
      <point x="95" y="2" type="curve"/>
      <point x="88" y="-29"/>
      <point x="66" y="-61"/>
      <point x="41" y="-86" type="curve" smooth="yes"/>
      <point x="38" y="-89"/>
      <point x="36" y="-92"/>
      <point x="34" y="-95" type="curve" smooth="yes"/>
      <point x="32" y="-98"/>
      <point x="31" y="-101"/>
      <point x="31" y="-104" type="curve" smooth="yes"/>
      <point x="31" y="-111"/>
      <point x="34" y="-117"/>
      <point x="40" y="-122" type="curve"/>
      <point x="62" y="-142" type="line"/>
      <point x="80" y="-128"/>
      <point x="95" y="-113"/>
      <point x="109" y="-96" type="curve" smooth="yes"/>
      <point x="123" y="-79"/>
      <point x="134" y="-62"/>
      <point x="143" y="-44" type="curve" smooth="yes"/>
      <point x="152" y="-26"/>
      <point x="160" y="-10"/>
      <point x="165" y="8" type="curve" smooth="yes"/>
      <point x="170" y="26"/>
      <point x="172" y="43"/>
      <point x="172" y="59" type="curve" smooth="yes"/>
      <point x="172" y="104"/>
      <point x="147" y="143"/>
      <point x="97" y="143" type="curve" smooth="yes"/>
      <point x="55" y="143"/>
      <point x="25" y="116"/>
    </contour>
  </outline>
</glyph>
<glyph name="hyphen" format="1">
  <advance width="360"/>
  <unicode hex="002D"/>
  <note>
    hyphen
  </note>
  <outline>
    <contour>
      <point x="310" y="354" type="line"/>
      <point x="50" y="354" type="line"/>
      <point x="50" y="250" type="line"/>
      <point x="310" y="250" type="line"/>
    </contour>
  </outline>
</glyph>
<glyph name="period" format="1">
  <advance width="202"/>
  <unicode hex="002E"/>
  <note>
    period
  </note>
  <outline>
    <contour>
      <point x="25" y="68" type="curve" smooth="yes"/>
      <point x="25" y="57"/>
      <point x="27" y="47"/>
      <point x="31" y="38" type="curve" smooth="yes"/>
      <point x="35" y="29"/>
      <point x="40" y="22"/>
      <point x="47" y="15" type="curve" smooth="yes"/>
      <point x="54" y="8"/>
      <point x="63" y="3"/>
      <point x="72" y="-1" type="curve" smooth="yes"/>
      <point x="81" y="-5"/>
      <point x="91" y="-7"/>
      <point x="102" y="-7" type="curve" smooth="yes"/>
      <point x="112" y="-7"/>
      <point x="122" y="-5"/>
      <point x="131" y="-1" type="curve" smooth="yes"/>
      <point x="140" y="3"/>
      <point x="148" y="8"/>
      <point x="155" y="15" type="curve" smooth="yes"/>
      <point x="162" y="22"/>
      <point x="167" y="29"/>
      <point x="171" y="38" type="curve" smooth="yes"/>
      <point x="175" y="47"/>
      <point x="177" y="57"/>
      <point x="177" y="68" type="curve" smooth="yes"/>
      <point x="177" y="78"/>
      <point x="175" y="89"/>
      <point x="171" y="98" type="curve" smooth="yes"/>
      <point x="167" y="107"/>
      <point x="162" y="115"/>
      <point x="155" y="122" type="curve" smooth="yes"/>
      <point x="148" y="129"/>
      <point x="140" y="134"/>
      <point x="131" y="138" type="curve" smooth="yes"/>
      <point x="122" y="142"/>
      <point x="111" y="144"/>
      <point x="101" y="144" type="curve" smooth="yes"/>
      <point x="90" y="144"/>
      <point x="80" y="142"/>
      <point x="71" y="138" type="curve" smooth="yes"/>
      <point x="62" y="134"/>
      <point x="54" y="129"/>
      <point x="47" y="122" type="curve" smooth="yes"/>
      <point x="40" y="115"/>
      <point x="35" y="107"/>
      <point x="31" y="98" type="curve" smooth="yes"/>
      <point x="27" y="89"/>
      <point x="25" y="78"/>
    </contour>
  </outline>
</glyph>
<glyph name="slash" format="1">
  <advance width="460"/>
  <unicode hex="002F"/>
  <note>
    slash
  </note>
  <outline>
    <contour>
      <point x="144" y="-2" type="curve" smooth="yes"/>
      <point x="434" y="743" type="line"/>
      <point x="382" y="743" type="line" smooth="yes"/>
      <point x="367" y="743"/>
      <point x="354" y="740"/>
      <point x="343" y="732" type="curve" smooth="yes"/>
      <point x="332" y="724"/>
      <point x="324" y="714"/>
      <point x="318" y="700" type="curve" smooth="yes"/>
      <point x="26" y="-48" type="line"/>
      <point x="78" y="-48" type="line" smooth="yes"/>
      <point x="84" y="-48"/>
      <point x="91" y="-46"/>
      <point x="98" y="-44" type="curve" smooth="yes"/>
      <point x="105" y="-42"/>
      <point x="111" y="-40"/>
      <point x="117" y="-36" type="curve" smooth="yes"/>
      <point x="123" y="-32"/>
      <point x="128" y="-28"/>
      <point x="133" y="-22" type="curve" smooth="yes"/>
      <point x="138" y="-16"/>
      <point x="141" y="-10"/>
    </contour>
  </outline>
</glyph>
<glyph name="zero" format="1">
  <advance width="562"/>
  <unicode hex="0030"/>
  <note>
    zero
  </note>
  <outline>
    <contour>
      <point x="545" y="362" type="curve" smooth="yes"/>
      <point x="545" y="425"/>
      <point x="539" y="480"/>
      <point x="525" y="526" type="curve" smooth="yes"/>
      <point x="511" y="572"/>
      <point x="493" y="611"/>
      <point x="469" y="641" type="curve" smooth="yes"/>
      <point x="445" y="671"/>
      <point x="416" y="694"/>
      <point x="384" y="709" type="curve" smooth="yes"/>
      <point x="352" y="724"/>
      <point x="317" y="731"/>
      <point x="279" y="731" type="curve" smooth="yes"/>
      <point x="241" y="731"/>
      <point x="206" y="724"/>
      <point x="174" y="709" type="curve" smooth="yes"/>
      <point x="142" y="694"/>
      <point x="115" y="671"/>
      <point x="91" y="641" type="curve" smooth="yes"/>
      <point x="67" y="611"/>
      <point x="48" y="572"/>
      <point x="35" y="526" type="curve" smooth="yes"/>
      <point x="22" y="480"/>
      <point x="15" y="425"/>
      <point x="15" y="362" type="curve" smooth="yes"/>
      <point x="15" y="299"/>
      <point x="22" y="243"/>
      <point x="35" y="197" type="curve" smooth="yes"/>
      <point x="48" y="151"/>
      <point x="67" y="112"/>
      <point x="91" y="82" type="curve" smooth="yes"/>
      <point x="115" y="52"/>
      <point x="142" y="29"/>
      <point x="174" y="14" type="curve" smooth="yes"/>
      <point x="206" y="-1"/>
      <point x="241" y="-8"/>
      <point x="279" y="-8" type="curve" smooth="yes"/>
      <point x="317" y="-8"/>
      <point x="352" y="-1"/>
      <point x="384" y="14" type="curve" smooth="yes"/>
      <point x="416" y="29"/>
      <point x="445" y="52"/>
      <point x="469" y="82" type="curve" smooth="yes"/>
      <point x="493" y="112"/>
      <point x="511" y="151"/>
      <point x="525" y="197" type="curve" smooth="yes"/>
      <point x="539" y="243"/>
      <point x="545" y="299"/>
    </contour>
    <contour>
      <point x="417" y="362" type="curve" smooth="yes"/>
      <point x="417" y="310"/>
      <point x="414" y="266"/>
      <point x="406" y="232" type="curve" smooth="yes"/>
      <point x="398" y="198"/>
      <point x="388" y="169"/>
      <point x="375" y="149" type="curve" smooth="yes"/>
      <point x="362" y="129"/>
      <point x="348" y="115"/>
      <point x="331" y="107" type="curve" smooth="yes"/>
      <point x="314" y="99"/>
      <point x="297" y="94"/>
      <point x="279" y="94" type="curve" smooth="yes"/>
      <point x="261" y="94"/>
      <point x="244" y="99"/>
      <point x="228" y="107" type="curve" smooth="yes"/>
      <point x="212" y="115"/>
      <point x="197" y="130"/>
      <point x="184" y="150" type="curve" smooth="yes"/>
      <point x="171" y="170"/>
      <point x="162" y="198"/>
      <point x="154" y="232" type="curve" smooth="yes"/>
      <point x="146" y="266"/>
      <point x="142" y="310"/>
      <point x="142" y="362" type="curve" smooth="yes"/>
      <point x="142" y="414"/>
      <point x="146" y="458"/>
      <point x="154" y="492" type="curve" smooth="yes"/>
      <point x="162" y="526"/>
      <point x="171" y="554"/>
      <point x="184" y="574" type="curve" smooth="yes"/>
      <point x="197" y="594"/>
      <point x="212" y="608"/>
      <point x="228" y="616" type="curve" smooth="yes"/>
      <point x="244" y="624"/>
      <point x="261" y="628"/>
      <point x="279" y="628" type="curve" smooth="yes"/>
      <point x="297" y="628"/>
      <point x="314" y="624"/>
      <point x="331" y="616" type="curve" smooth="yes"/>
      <point x="348" y="608"/>
      <point x="362" y="594"/>
      <point x="375" y="574" type="curve" smooth="yes"/>
      <point x="388" y="554"/>
      <point x="398" y="526"/>
      <point x="406" y="492" type="curve" smooth="yes"/>
      <point x="414" y="458"/>
      <point x="417" y="414"/>
    </contour>
  </outline>
</glyph>
<glyph name="one" format="1">
  <advance width="548"/>
  <unicode hex="0031"/>
  <note>
    one
  </note>
  <outline>
    <contour>
      <point x="482" y="83" type="curve"/>
      <point x="476" y="84"/>
      <point x="439" y="88"/>
      <point x="372" y="93" type="curve"/>
      <point x="372" y="724" type="line"/>
      <point x="270" y="724" type="line"/>
      <point x="50" y="536" type="line"/>
      <point x="89" y="483" type="line" smooth="yes"/>
      <point x="92" y="479"/>
      <point x="95" y="476"/>
      <point x="101" y="473" type="curve"/>
      <point x="106" y="470"/>
      <point x="112" y="469"/>
      <point x="119" y="469" type="curve" smooth="yes"/>
      <point x="123" y="469"/>
      <point x="129" y="470"/>
      <point x="133" y="471" type="curve" smooth="yes"/>
      <point x="137" y="472"/>
      <point x="142" y="475"/>
      <point x="146" y="479" type="curve"/>
      <point x="250" y="566" type="line"/>
      <point x="249" y="548"/>
      <point x="248" y="530"/>
      <point x="248" y="514" type="curve" smooth="yes"/>
      <point x="248" y="94" type="line"/>
      <point x="171" y="88"/>
      <point x="129" y="84"/>
      <point x="122" y="83" type="curve"/>
      <point x="109" y="80"/>
      <point x="102" y="72"/>
      <point x="102" y="58" type="curve" smooth="yes"/>
      <point x="102" y="0" type="line"/>
      <point x="298" y="0" type="line"/>
      <point x="306" y="0" type="line"/>
      <point x="502" y="0" type="line"/>
      <point x="502" y="58" type="line" smooth="yes"/>
      <point x="502" y="72"/>
      <point x="495" y="80"/>
    </contour>
  </outline>
</glyph>
<glyph name="two" format="1">
  <advance width="596"/>
  <unicode hex="0032"/>
  <note>
    two
  </note>
  <outline>
    <contour>
      <point x="549" y="0" type="line"/>
      <point x="549" y="108" type="line"/>
      <point x="549" y="178" type="line"/>
      <point x="496" y="178" type="line" smooth="yes"/>
      <point x="483" y="178"/>
      <point x="476" y="172"/>
      <point x="473" y="160" type="curve" smooth="yes"/>
      <point x="472" y="156"/>
      <point x="471" y="141"/>
      <point x="469" y="115" type="curve"/>
      <point x="309" y="115" type="line" smooth="yes"/>
      <point x="295" y="115"/>
      <point x="280" y="113"/>
      <point x="265" y="111" type="curve"/>
      <point x="250" y="108"/>
      <point x="234" y="105"/>
      <point x="218" y="100" type="curve"/>
      <point x="381" y="267" type="line" smooth="yes"/>
      <point x="400" y="287"/>
      <point x="419" y="307"/>
      <point x="437" y="326" type="curve" smooth="yes"/>
      <point x="455" y="345"/>
      <point x="470" y="365"/>
      <point x="483" y="386" type="curve" smooth="yes"/>
      <point x="496" y="407"/>
      <point x="506" y="428"/>
      <point x="514" y="451" type="curve" smooth="yes"/>
      <point x="522" y="474"/>
      <point x="526" y="498"/>
      <point x="526" y="525" type="curve" smooth="yes"/>
      <point x="526" y="556"/>
      <point x="520" y="584"/>
      <point x="509" y="609" type="curve" smooth="yes"/>
      <point x="498" y="634"/>
      <point x="483" y="656"/>
      <point x="463" y="674" type="curve" smooth="yes"/>
      <point x="443" y="692"/>
      <point x="421" y="706"/>
      <point x="393" y="716" type="curve" smooth="yes"/>
      <point x="365" y="726"/>
      <point x="334" y="731"/>
      <point x="301" y="731" type="curve" smooth="yes"/>
      <point x="269" y="731"/>
      <point x="239" y="727"/>
      <point x="211" y="718" type="curve" smooth="yes"/>
      <point x="183" y="709"/>
      <point x="158" y="696"/>
      <point x="137" y="678" type="curve" smooth="yes"/>
      <point x="115" y="660"/>
      <point x="98" y="639"/>
      <point x="84" y="613" type="curve" smooth="yes"/>
      <point x="70" y="587"/>
      <point x="60" y="556"/>
      <point x="55" y="521" type="curve"/>
      <point x="120" y="510" type="line" smooth="yes"/>
      <point x="126" y="509"/>
      <point x="131" y="508"/>
      <point x="136" y="508" type="curve" smooth="yes"/>
      <point x="147" y="508"/>
      <point x="157" y="511"/>
      <point x="164" y="517" type="curve"/>
      <point x="171" y="522"/>
      <point x="177" y="531"/>
      <point x="181" y="544" type="curve" smooth="yes"/>
      <point x="189" y="569"/>
      <point x="202" y="589"/>
      <point x="221" y="604" type="curve" smooth="yes"/>
      <point x="240" y="619"/>
      <point x="264" y="627"/>
      <point x="294" y="627" type="curve" smooth="yes"/>
      <point x="310" y="627"/>
      <point x="324" y="624"/>
      <point x="337" y="620" type="curve" smooth="yes"/>
      <point x="350" y="616"/>
      <point x="361" y="609"/>
      <point x="370" y="600" type="curve" smooth="yes"/>
      <point x="379" y="591"/>
      <point x="387" y="580"/>
      <point x="392" y="567" type="curve" smooth="yes"/>
      <point x="397" y="554"/>
      <point x="399" y="538"/>
      <point x="399" y="521" type="curve" smooth="yes"/>
      <point x="399" y="502"/>
      <point x="397" y="484"/>
      <point x="392" y="467" type="curve" smooth="yes"/>
      <point x="387" y="450"/>
      <point x="379" y="433"/>
      <point x="369" y="416" type="curve" smooth="yes"/>
      <point x="359" y="399"/>
      <point x="347" y="382"/>
      <point x="333" y="365" type="curve" smooth="yes"/>
      <point x="319" y="348"/>
      <point x="301" y="331"/>
      <point x="283" y="312" type="curve" smooth="yes"/>
      <point x="64" y="92" type="line" smooth="yes"/>
      <point x="56" y="84"/>
      <point x="51" y="76"/>
      <point x="47" y="67" type="curve"/>
      <point x="44" y="58"/>
      <point x="42" y="49"/>
      <point x="42" y="41" type="curve" smooth="yes"/>
      <point x="42" y="0" type="line"/>
      <point x="509" y="0" type="line"/>
      <point x="538" y="0" type="line"/>
    </contour>
  </outline>
</glyph>
<glyph name="three" format="1">
  <advance width="558"/>
  <unicode hex="0033"/>
  <note>
    three
  </note>
  <outline>
    <contour>
      <point x="290" y="731" type="curve" smooth="yes"/>
      <point x="258" y="731"/>
      <point x="228" y="727"/>
      <point x="200" y="718" type="curve" smooth="yes"/>
      <point x="172" y="709"/>
      <point x="148" y="696"/>
      <point x="126" y="678" type="curve" smooth="yes"/>
      <point x="104" y="660"/>
      <point x="87" y="639"/>
      <point x="73" y="613" type="curve" smooth="yes"/>
      <point x="59" y="587"/>
      <point x="48" y="557"/>
      <point x="43" y="522" type="curve"/>
      <point x="109" y="510" type="line" smooth="yes"/>
      <point x="115" y="509"/>
      <point x="120" y="508"/>
      <point x="125" y="508" type="curve" smooth="yes"/>
      <point x="136" y="508"/>
      <point x="146" y="511"/>
      <point x="153" y="517" type="curve" smooth="yes"/>
      <point x="160" y="523"/>
      <point x="165" y="531"/>
      <point x="169" y="544" type="curve" smooth="yes"/>
      <point x="177" y="568"/>
      <point x="191" y="588"/>
      <point x="210" y="604" type="curve" smooth="yes"/>
      <point x="229" y="620"/>
      <point x="254" y="627"/>
      <point x="283" y="627" type="curve" smooth="yes"/>
      <point x="315" y="627"/>
      <point x="340" y="619"/>
      <point x="359" y="601" type="curve" smooth="yes"/>
      <point x="378" y="583"/>
      <point x="387" y="557"/>
      <point x="387" y="523" type="curve" smooth="yes"/>
      <point x="387" y="507"/>
      <point x="386" y="492"/>
      <point x="381" y="479" type="curve" smooth="yes"/>
      <point x="376" y="466"/>
      <point x="368" y="455"/>
      <point x="356" y="445" type="curve"/>
      <point x="344" y="436"/>
      <point x="328" y="427"/>
      <point x="308" y="422" type="curve" smooth="yes"/>
      <point x="288" y="417"/>
      <point x="263" y="414"/>
      <point x="233" y="414" type="curve"/>
      <point x="233" y="326" type="line"/>
      <point x="270" y="326"/>
      <point x="298" y="324"/>
      <point x="320" y="318" type="curve" smooth="yes"/>
      <point x="342" y="312"/>
      <point x="359" y="304"/>
      <point x="371" y="294" type="curve" smooth="yes"/>
      <point x="383" y="284"/>
      <point x="389" y="272"/>
      <point x="393" y="258" type="curve" smooth="yes"/>
      <point x="397" y="244"/>
      <point x="399" y="227"/>
      <point x="399" y="210" type="curve" smooth="yes"/>
      <point x="399" y="196"/>
      <point x="396" y="184"/>
      <point x="391" y="170" type="curve" smooth="yes"/>
      <point x="386" y="156"/>
      <point x="378" y="144"/>
      <point x="368" y="133" type="curve" smooth="yes"/>
      <point x="358" y="122"/>
      <point x="345" y="113"/>
      <point x="329" y="106" type="curve" smooth="yes"/>
      <point x="313" y="99"/>
      <point x="294" y="96"/>
      <point x="273" y="96" type="curve" smooth="yes"/>
      <point x="254" y="96"/>
      <point x="239" y="98"/>
      <point x="225" y="104" type="curve" smooth="yes"/>
      <point x="211" y="110"/>
      <point x="200" y="117"/>
      <point x="190" y="126" type="curve" smooth="yes"/>
      <point x="180" y="135"/>
      <point x="171" y="145"/>
      <point x="164" y="156" type="curve" smooth="yes"/>
      <point x="157" y="167"/>
      <point x="151" y="178"/>
      <point x="145" y="190" type="curve"/>
      <point x="141" y="197"/>
      <point x="136" y="202"/>
      <point x="129" y="206" type="curve" smooth="yes"/>
      <point x="122" y="210"/>
      <point x="114" y="212"/>
      <point x="105" y="212" type="curve" smooth="yes"/>
      <point x="95" y="212"/>
      <point x="86" y="210"/>
      <point x="77" y="206" type="curve" smooth="yes"/>
      <point x="23" y="184" type="line"/>
      <point x="33" y="153"/>
      <point x="45" y="126"/>
      <point x="59" y="102" type="curve" smooth="yes"/>
      <point x="73" y="78"/>
      <point x="89" y="58"/>
      <point x="109" y="42" type="curve" smooth="yes"/>
      <point x="129" y="26"/>
      <point x="153" y="12"/>
      <point x="180" y="4" type="curve" smooth="yes"/>
      <point x="207" y="-4"/>
      <point x="239" y="-8"/>
      <point x="275" y="-8" type="curve" smooth="yes"/>
      <point x="308" y="-8"/>
      <point x="340" y="-4"/>
      <point x="370" y="6" type="curve" smooth="yes"/>
      <point x="400" y="16"/>
      <point x="426" y="30"/>
      <point x="449" y="49" type="curve" smooth="yes"/>
      <point x="472" y="68"/>
      <point x="490" y="91"/>
      <point x="503" y="119" type="curve" smooth="yes"/>
      <point x="516" y="147"/>
      <point x="523" y="178"/>
      <point x="523" y="214" type="curve" smooth="yes"/>
      <point x="523" y="256"/>
      <point x="512" y="292"/>
      <point x="491" y="320" type="curve" smooth="yes"/>
      <point x="470" y="348"/>
      <point x="436" y="368"/>
      <point x="393" y="382" type="curve"/>
      <point x="411" y="388"/>
      <point x="428" y="396"/>
      <point x="442" y="405" type="curve" smooth="yes"/>
      <point x="456" y="414"/>
      <point x="468" y="425"/>
      <point x="478" y="438" type="curve" smooth="yes"/>
      <point x="488" y="451"/>
      <point x="495" y="466"/>
      <point x="500" y="484" type="curve" smooth="yes"/>
      <point x="505" y="502"/>
      <point x="508" y="521"/>
      <point x="508" y="544" type="curve" smooth="yes"/>
      <point x="508" y="570"/>
      <point x="503" y="595"/>
      <point x="493" y="618" type="curve" smooth="yes"/>
      <point x="483" y="641"/>
      <point x="468" y="660"/>
      <point x="449" y="677" type="curve" smooth="yes"/>
      <point x="430" y="694"/>
      <point x="407" y="707"/>
      <point x="380" y="717" type="curve" smooth="yes"/>
      <point x="353" y="727"/>
      <point x="323" y="731"/>
    </contour>
  </outline>
</glyph>
<glyph name="four" format="1">
  <advance width="573"/>
  <unicode hex="0034"/>
  <note>
    four
  </note>
  <outline>
    <contour>
      <point x="559" y="272" type="line"/>
      <point x="468" y="272" type="line"/>
      <point x="468" y="724" type="line"/>
      <point x="351" y="724" type="line"/>
      <point x="8" y="266" type="line"/>
      <point x="21" y="204" type="line"/>
      <point x="23" y="196"/>
      <point x="27" y="189"/>
      <point x="33" y="184" type="curve" smooth="yes"/>
      <point x="39" y="179"/>
      <point x="47" y="176"/>
      <point x="55" y="176" type="curve" smooth="yes"/>
      <point x="360" y="176" type="line"/>
      <point x="360" y="0" type="line"/>
      <point x="468" y="0" type="line"/>
      <point x="468" y="176" type="line"/>
      <point x="534" y="176" type="line" smooth="yes"/>
      <point x="542" y="176"/>
      <point x="548" y="179"/>
      <point x="552" y="184" type="curve" smooth="yes"/>
      <point x="556" y="189"/>
      <point x="559" y="194"/>
      <point x="559" y="201" type="curve" smooth="yes"/>
    </contour>
    <contour>
      <point x="360" y="509" type="curve" smooth="yes"/>
      <point x="360" y="272" type="line"/>
      <point x="140" y="272" type="line"/>
      <point x="364" y="582" type="line"/>
      <point x="362" y="569"/>
      <point x="362" y="556"/>
      <point x="361" y="544" type="curve" smooth="yes"/>
      <point x="360" y="532"/>
      <point x="360" y="520"/>
    </contour>
  </outline>
</glyph>
<glyph name="five" format="1">
  <advance width="558"/>
  <unicode hex="0035"/>
  <note>
    five
  </note>
  <outline>
    <contour>
      <point x="493" y="670" type="curve" smooth="yes"/>
      <point x="493" y="723" type="line"/>
      <point x="136" y="723" type="line"/>
      <point x="76" y="372" type="line"/>
      <point x="153" y="350" type="line"/>
      <point x="188" y="363"/>
      <point x="223" y="369"/>
      <point x="258" y="369" type="curve" smooth="yes"/>
      <point x="302" y="369"/>
      <point x="336" y="358"/>
      <point x="359" y="336" type="curve" smooth="yes"/>
      <point x="382" y="314"/>
      <point x="393" y="283"/>
      <point x="393" y="244" type="curve" smooth="yes"/>
      <point x="393" y="223"/>
      <point x="391" y="202"/>
      <point x="385" y="184" type="curve" smooth="yes"/>
      <point x="379" y="166"/>
      <point x="371" y="150"/>
      <point x="359" y="137" type="curve" smooth="yes"/>
      <point x="347" y="124"/>
      <point x="332" y="113"/>
      <point x="315" y="106" type="curve" smooth="yes"/>
      <point x="298" y="99"/>
      <point x="278" y="96"/>
      <point x="255" y="96" type="curve" smooth="yes"/>
      <point x="234" y="96"/>
      <point x="216" y="99"/>
      <point x="201" y="104" type="curve" smooth="yes"/>
      <point x="186" y="109"/>
      <point x="172" y="115"/>
      <point x="161" y="121" type="curve" smooth="yes"/>
      <point x="150" y="127"/>
      <point x="140" y="134"/>
      <point x="132" y="139" type="curve" smooth="yes"/>
      <point x="124" y="144"/>
      <point x="115" y="147"/>
      <point x="107" y="147" type="curve" smooth="yes"/>
      <point x="94" y="147"/>
      <point x="83" y="141"/>
      <point x="75" y="130" type="curve" smooth="yes"/>
      <point x="37" y="77" type="line"/>
      <point x="49" y="66"/>
      <point x="62" y="55"/>
      <point x="77" y="45" type="curve" smooth="yes"/>
      <point x="92" y="35"/>
      <point x="109" y="26"/>
      <point x="127" y="18" type="curve" smooth="yes"/>
      <point x="145" y="10"/>
      <point x="164" y="4"/>
      <point x="184" y="-1" type="curve" smooth="yes"/>
      <point x="204" y="-6"/>
      <point x="226" y="-8"/>
      <point x="249" y="-8" type="curve" smooth="yes"/>
      <point x="288" y="-8"/>
      <point x="323" y="-1"/>
      <point x="356" y="11" type="curve" smooth="yes"/>
      <point x="389" y="23"/>
      <point x="417" y="41"/>
      <point x="441" y="63" type="curve" smooth="yes"/>
      <point x="465" y="85"/>
      <point x="483" y="112"/>
      <point x="497" y="144" type="curve" smooth="yes"/>
      <point x="511" y="176"/>
      <point x="517" y="211"/>
      <point x="517" y="249" type="curve" smooth="yes"/>
      <point x="517" y="280"/>
      <point x="513" y="309"/>
      <point x="503" y="336" type="curve" smooth="yes"/>
      <point x="493" y="363"/>
      <point x="478" y="386"/>
      <point x="458" y="406" type="curve" smooth="yes"/>
      <point x="438" y="426"/>
      <point x="414" y="442"/>
      <point x="385" y="453" type="curve" smooth="yes"/>
      <point x="356" y="464"/>
      <point x="323" y="470"/>
      <point x="285" y="470" type="curve" smooth="yes"/>
      <point x="258" y="470"/>
      <point x="228" y="467"/>
      <point x="195" y="460" type="curve"/>
      <point x="221" y="611" type="line"/>
      <point x="421" y="611" type="line" smooth="yes"/>
      <point x="447" y="611"/>
      <point x="465" y="617"/>
      <point x="476" y="628" type="curve" smooth="yes"/>
      <point x="487" y="639"/>
      <point x="493" y="652"/>
    </contour>
  </outline>
</glyph>
<glyph name="seven" format="1">
  <advance width="551"/>
  <unicode hex="0037"/>
  <note>
    seven
  </note>
  <outline>
    <contour>
      <point x="532" y="723" type="line"/>
      <point x="32" y="723" type="line"/>
      <point x="32" y="639" type="line"/>
      <point x="32" y="638" type="line"/>
      <point x="32" y="637" type="line"/>
      <point x="32" y="530" type="line"/>
      <point x="85" y="530" type="line" smooth="yes"/>
      <point x="98" y="530"/>
      <point x="106" y="536"/>
      <point x="109" y="548" type="curve"/>
      <point x="111" y="558"/>
      <point x="112" y="579"/>
      <point x="115" y="611" type="curve"/>
      <point x="406" y="611" type="line"/>
      <point x="392" y="595"/>
      <point x="379" y="575"/>
      <point x="367" y="552" type="curve" smooth="yes"/>
      <point x="87" y="0" type="line"/>
      <point x="177" y="0" type="line" smooth="yes"/>
      <point x="195" y="0"/>
      <point x="209" y="4"/>
      <point x="219" y="12" type="curve" smooth="yes"/>
      <point x="229" y="20"/>
      <point x="237" y="30"/>
      <point x="243" y="42" type="curve" smooth="yes"/>
      <point x="516" y="606" type="line"/>
      <point x="519" y="613"/>
      <point x="524" y="621"/>
      <point x="527" y="631" type="curve" smooth="yes"/>
      <point x="530" y="641"/>
      <point x="532" y="654"/>
      <point x="532" y="670" type="curve" smooth="yes"/>
    </contour>
  </outline>
</glyph>
<glyph name="eight" format="1">
  <advance width="537"/>
  <unicode hex="0038"/>
  <note>
    eight
  </note>
  <outline>
    <contour>
      <point x="268" y="-8" type="curve" smooth="yes"/>
      <point x="305" y="-8"/>
      <point x="339" y="-3"/>
      <point x="370" y="7" type="curve" smooth="yes"/>
      <point x="401" y="17"/>
      <point x="428" y="32"/>
      <point x="450" y="50" type="curve" smooth="yes"/>
      <point x="472" y="68"/>
      <point x="489" y="90"/>
      <point x="501" y="116" type="curve" smooth="yes"/>
      <point x="513" y="142"/>
      <point x="519" y="171"/>
      <point x="519" y="203" type="curve" smooth="yes"/>
      <point x="519" y="246"/>
      <point x="509" y="281"/>
      <point x="488" y="311" type="curve" smooth="yes"/>
      <point x="467" y="341"/>
      <point x="434" y="363"/>
      <point x="390" y="377" type="curve"/>
      <point x="425" y="392"/>
      <point x="450" y="413"/>
      <point x="468" y="440" type="curve" smooth="yes"/>
      <point x="486" y="467"/>
      <point x="495" y="499"/>
      <point x="495" y="537" type="curve" smooth="yes"/>
      <point x="495" y="564"/>
      <point x="489" y="590"/>
      <point x="478" y="614" type="curve" smooth="yes"/>
      <point x="467" y="638"/>
      <point x="452" y="657"/>
      <point x="432" y="675" type="curve" smooth="yes"/>
      <point x="412" y="693"/>
      <point x="388" y="706"/>
      <point x="360" y="716" type="curve" smooth="yes"/>
      <point x="332" y="726"/>
      <point x="301" y="731"/>
      <point x="268" y="731" type="curve" smooth="yes"/>
      <point x="235" y="731"/>
      <point x="204" y="726"/>
      <point x="176" y="716" type="curve" smooth="yes"/>
      <point x="148" y="706"/>
      <point x="124" y="693"/>
      <point x="104" y="675" type="curve" smooth="yes"/>
      <point x="84" y="657"/>
      <point x="69" y="638"/>
      <point x="58" y="614" type="curve" smooth="yes"/>
      <point x="47" y="590"/>
      <point x="41" y="564"/>
      <point x="41" y="537" type="curve" smooth="yes"/>
      <point x="41" y="499"/>
      <point x="49" y="467"/>
      <point x="67" y="440" type="curve" smooth="yes"/>
      <point x="85" y="413"/>
      <point x="111" y="392"/>
      <point x="146" y="377" type="curve"/>
      <point x="102" y="363"/>
      <point x="69" y="341"/>
      <point x="48" y="311" type="curve" smooth="yes"/>
      <point x="27" y="281"/>
      <point x="17" y="246"/>
      <point x="17" y="203" type="curve" smooth="yes"/>
      <point x="17" y="171"/>
      <point x="23" y="142"/>
      <point x="35" y="116" type="curve" smooth="yes"/>
      <point x="47" y="90"/>
      <point x="64" y="68"/>
      <point x="86" y="50" type="curve" smooth="yes"/>
      <point x="108" y="32"/>
      <point x="135" y="17"/>
      <point x="166" y="7" type="curve" smooth="yes"/>
      <point x="197" y="-3"/>
      <point x="231" y="-8"/>
    </contour>
    <contour>
      <point x="268" y="88" type="curve" smooth="yes"/>
      <point x="248" y="88"/>
      <point x="229" y="91"/>
      <point x="214" y="97" type="curve" smooth="yes"/>
      <point x="199" y="103"/>
      <point x="186" y="112"/>
      <point x="176" y="122" type="curve" smooth="yes"/>
      <point x="166" y="132"/>
      <point x="157" y="144"/>
      <point x="152" y="158" type="curve" smooth="yes"/>
      <point x="147" y="172"/>
      <point x="144" y="188"/>
      <point x="144" y="205" type="curve" smooth="yes"/>
      <point x="144" y="245"/>
      <point x="155" y="275"/>
      <point x="177" y="295" type="curve" smooth="yes"/>
      <point x="199" y="315"/>
      <point x="229" y="326"/>
      <point x="268" y="326" type="curve" smooth="yes"/>
      <point x="307" y="326"/>
      <point x="337" y="315"/>
      <point x="359" y="295" type="curve" smooth="yes"/>
      <point x="381" y="275"/>
      <point x="392" y="245"/>
      <point x="392" y="205" type="curve" smooth="yes"/>
      <point x="392" y="188"/>
      <point x="389" y="172"/>
      <point x="384" y="158" type="curve" smooth="yes"/>
      <point x="379" y="144"/>
      <point x="371" y="132"/>
      <point x="360" y="122" type="curve"/>
      <point x="350" y="112"/>
      <point x="337" y="103"/>
      <point x="322" y="97" type="curve" smooth="yes"/>
      <point x="307" y="91"/>
      <point x="288" y="88"/>
    </contour>
    <contour>
      <point x="268" y="422" type="curve" smooth="yes"/>
      <point x="248" y="422"/>
      <point x="232" y="426"/>
      <point x="218" y="432" type="curve" smooth="yes"/>
      <point x="204" y="438"/>
      <point x="193" y="447"/>
      <point x="185" y="457" type="curve" smooth="yes"/>
      <point x="177" y="467"/>
      <point x="171" y="479"/>
      <point x="167" y="493" type="curve" smooth="yes"/>
      <point x="163" y="507"/>
      <point x="162" y="521"/>
      <point x="162" y="535" type="curve" smooth="yes"/>
      <point x="162" y="549"/>
      <point x="164" y="562"/>
      <point x="168" y="574" type="curve" smooth="yes"/>
      <point x="172" y="586"/>
      <point x="178" y="597"/>
      <point x="187" y="607" type="curve" smooth="yes"/>
      <point x="196" y="617"/>
      <point x="208" y="624"/>
      <point x="221" y="630" type="curve" smooth="yes"/>
      <point x="234" y="636"/>
      <point x="250" y="638"/>
      <point x="268" y="638" type="curve" smooth="yes"/>
      <point x="286" y="638"/>
      <point x="303" y="636"/>
      <point x="316" y="630" type="curve" smooth="yes"/>
      <point x="329" y="624"/>
      <point x="340" y="617"/>
      <point x="349" y="607" type="curve" smooth="yes"/>
      <point x="358" y="597"/>
      <point x="364" y="586"/>
      <point x="368" y="574" type="curve" smooth="yes"/>
      <point x="372" y="562"/>
      <point x="375" y="549"/>
      <point x="375" y="535" type="curve" smooth="yes"/>
      <point x="375" y="521"/>
      <point x="373" y="507"/>
      <point x="369" y="493" type="curve"/>
      <point x="366" y="479"/>
      <point x="360" y="467"/>
      <point x="352" y="457" type="curve" smooth="yes"/>
      <point x="344" y="447"/>
      <point x="333" y="438"/>
      <point x="319" y="432" type="curve" smooth="yes"/>
      <point x="305" y="426"/>
      <point x="288" y="422"/>
    </contour>
  </outline>
</glyph>
<glyph name="nine" format="1">
  <advance width="521"/>
  <unicode hex="0039"/>
  <note>
    nine
  </note>
  <outline>
    <contour>
      <point x="215" y="288" type="curve" smooth="yes"/>
      <point x="237" y="288"/>
      <point x="258" y="291"/>
      <point x="278" y="297" type="curve"/>
      <point x="298" y="302"/>
      <point x="316" y="310"/>
      <point x="333" y="321" type="curve"/>
      <point x="328" y="314"/>
      <point x="324" y="308"/>
      <point x="319" y="301" type="curve" smooth="yes"/>
      <point x="314" y="294"/>
      <point x="309" y="287"/>
      <point x="303" y="280" type="curve" smooth="yes"/>
      <point x="78" y="0" type="line"/>
      <point x="191" y="0" type="line" smooth="yes"/>
      <point x="205" y="0"/>
      <point x="219" y="2"/>
      <point x="230" y="8" type="curve" smooth="yes"/>
      <point x="241" y="14"/>
      <point x="249" y="20"/>
      <point x="255" y="28" type="curve" smooth="yes"/>
      <point x="421" y="264" type="line" smooth="yes"/>
      <point x="433" y="282"/>
      <point x="444" y="299"/>
      <point x="454" y="317" type="curve" smooth="yes"/>
      <point x="464" y="335"/>
      <point x="473" y="353"/>
      <point x="480" y="371" type="curve" smooth="yes"/>
      <point x="487" y="389"/>
      <point x="492" y="409"/>
      <point x="496" y="429" type="curve" smooth="yes"/>
      <point x="500" y="449"/>
      <point x="502" y="471"/>
      <point x="502" y="493" type="curve" smooth="yes"/>
      <point x="502" y="528"/>
      <point x="496" y="560"/>
      <point x="485" y="589" type="curve" smooth="yes"/>
      <point x="474" y="618"/>
      <point x="458" y="643"/>
      <point x="437" y="664" type="curve" smooth="yes"/>
      <point x="416" y="685"/>
      <point x="392" y="702"/>
      <point x="362" y="714" type="curve" smooth="yes"/>
      <point x="332" y="726"/>
      <point x="299" y="731"/>
      <point x="262" y="731" type="curve" smooth="yes"/>
      <point x="225" y="731"/>
      <point x="191" y="724"/>
      <point x="161" y="712" type="curve" smooth="yes"/>
      <point x="131" y="700"/>
      <point x="105" y="683"/>
      <point x="83" y="662" type="curve" smooth="yes"/>
      <point x="61" y="641"/>
      <point x="45" y="616"/>
      <point x="33" y="588" type="curve" smooth="yes"/>
      <point x="21" y="560"/>
      <point x="15" y="528"/>
      <point x="15" y="496" type="curve" smooth="yes"/>
      <point x="15" y="461"/>
      <point x="21" y="432"/>
      <point x="32" y="406" type="curve" smooth="yes"/>
      <point x="43" y="380"/>
      <point x="58" y="359"/>
      <point x="77" y="341" type="curve" smooth="yes"/>
      <point x="96" y="323"/>
      <point x="117" y="311"/>
      <point x="141" y="302" type="curve" smooth="yes"/>
      <point x="165" y="293"/>
      <point x="190" y="288"/>
    </contour>
    <contour>
      <point x="383" y="505" type="curve" smooth="yes"/>
      <point x="383" y="488"/>
      <point x="381" y="471"/>
      <point x="375" y="456" type="curve" smooth="yes"/>
      <point x="369" y="441"/>
      <point x="362" y="429"/>
      <point x="351" y="418" type="curve" smooth="yes"/>
      <point x="340" y="407"/>
      <point x="328" y="398"/>
      <point x="312" y="392" type="curve" smooth="yes"/>
      <point x="296" y="386"/>
      <point x="279" y="382"/>
      <point x="259" y="382" type="curve" smooth="yes"/>
      <point x="221" y="382"/>
      <point x="191" y="393"/>
      <point x="170" y="414" type="curve" smooth="yes"/>
      <point x="149" y="435"/>
      <point x="139" y="466"/>
      <point x="139" y="506" type="curve" smooth="yes"/>
      <point x="139" y="524"/>
      <point x="141" y="541"/>
      <point x="147" y="556" type="curve" smooth="yes"/>
      <point x="153" y="571"/>
      <point x="161" y="584"/>
      <point x="171" y="595" type="curve" smooth="yes"/>
      <point x="181" y="606"/>
      <point x="194" y="615"/>
      <point x="209" y="621" type="curve" smooth="yes"/>
      <point x="224" y="627"/>
      <point x="241" y="630"/>
      <point x="260" y="630" type="curve" smooth="yes"/>
      <point x="278" y="630"/>
      <point x="295" y="628"/>
      <point x="310" y="622" type="curve" smooth="yes"/>
      <point x="325" y="616"/>
      <point x="338" y="608"/>
      <point x="349" y="597" type="curve" smooth="yes"/>
      <point x="360" y="586"/>
      <point x="369" y="574"/>
      <point x="375" y="558" type="curve" smooth="yes"/>
      <point x="381" y="542"/>
      <point x="383" y="525"/>
    </contour>
  </outline>
</glyph>
<glyph name="colon" format="1">
  <advance width="202"/>
  <unicode hex="003A"/>
  <note>
    colon
  </note>
  <outline>
    <contour>
      <point x="25" y="68" type="curve" smooth="yes"/>
      <point x="25" y="57"/>
      <point x="27" y="47"/>
      <point x="31" y="38" type="curve" smooth="yes"/>
      <point x="35" y="29"/>
      <point x="40" y="22"/>
      <point x="47" y="15" type="curve" smooth="yes"/>
      <point x="54" y="8"/>
      <point x="62" y="3"/>
      <point x="71" y="-1" type="curve" smooth="yes"/>
      <point x="80" y="-5"/>
      <point x="90" y="-7"/>
      <point x="101" y="-7" type="curve" smooth="yes"/>
      <point x="111" y="-7"/>
      <point x="122" y="-5"/>
      <point x="131" y="-1" type="curve" smooth="yes"/>
      <point x="140" y="3"/>
      <point x="148" y="8"/>
      <point x="155" y="15" type="curve" smooth="yes"/>
      <point x="162" y="22"/>
      <point x="167" y="29"/>
      <point x="171" y="38" type="curve" smooth="yes"/>
      <point x="175" y="47"/>
      <point x="177" y="57"/>
      <point x="177" y="68" type="curve" smooth="yes"/>
      <point x="177" y="78"/>
      <point x="175" y="89"/>
      <point x="171" y="98" type="curve" smooth="yes"/>
      <point x="167" y="107"/>
      <point x="162" y="115"/>
      <point x="155" y="122" type="curve" smooth="yes"/>
      <point x="148" y="129"/>
      <point x="140" y="134"/>
      <point x="131" y="138" type="curve" smooth="yes"/>
      <point x="122" y="142"/>
      <point x="111" y="144"/>
      <point x="101" y="144" type="curve" smooth="yes"/>
      <point x="90" y="144"/>
      <point x="80" y="142"/>
      <point x="71" y="138" type="curve" smooth="yes"/>
      <point x="62" y="134"/>
      <point x="54" y="129"/>
      <point x="47" y="122" type="curve" smooth="yes"/>
      <point x="40" y="115"/>
      <point x="35" y="107"/>
      <point x="31" y="98" type="curve" smooth="yes"/>
      <point x="27" y="89"/>
      <point x="25" y="78"/>
    </contour>
    <contour>
      <point x="25" y="424" type="curve" smooth="yes"/>
      <point x="25" y="413"/>
      <point x="27" y="404"/>
      <point x="31" y="395" type="curve" smooth="yes"/>
      <point x="35" y="386"/>
      <point x="40" y="378"/>
      <point x="47" y="371" type="curve" smooth="yes"/>
      <point x="54" y="364"/>
      <point x="62" y="359"/>
      <point x="71" y="355" type="curve" smooth="yes"/>
      <point x="80" y="351"/>
      <point x="90" y="350"/>
      <point x="101" y="350" type="curve" smooth="yes"/>
      <point x="111" y="350"/>
      <point x="122" y="351"/>
      <point x="131" y="355" type="curve" smooth="yes"/>
      <point x="140" y="359"/>
      <point x="148" y="364"/>
      <point x="155" y="371" type="curve" smooth="yes"/>
      <point x="162" y="378"/>
      <point x="167" y="386"/>
      <point x="171" y="395" type="curve" smooth="yes"/>
      <point x="175" y="404"/>
      <point x="177" y="414"/>
      <point x="177" y="425" type="curve" smooth="yes"/>
      <point x="177" y="435"/>
      <point x="175" y="445"/>
      <point x="171" y="454" type="curve" smooth="yes"/>
      <point x="167" y="463"/>
      <point x="162" y="471"/>
      <point x="155" y="478" type="curve" smooth="yes"/>
      <point x="148" y="485"/>
      <point x="140" y="490"/>
      <point x="131" y="494" type="curve" smooth="yes"/>
      <point x="122" y="498"/>
      <point x="111" y="500"/>
      <point x="101" y="500" type="curve" smooth="yes"/>
      <point x="90" y="500"/>
      <point x="80" y="498"/>
      <point x="71" y="494" type="curve" smooth="yes"/>
      <point x="62" y="490"/>
      <point x="54" y="485"/>
      <point x="47" y="478" type="curve" smooth="yes"/>
      <point x="40" y="471"/>
      <point x="35" y="463"/>
      <point x="31" y="454" type="curve" smooth="yes"/>
      <point x="27" y="445"/>
      <point x="25" y="434"/>
    </contour>
  </outline>
</glyph>
<glyph name="semicolon" format="1">
  <advance width="202"/>
  <unicode hex="003B"/>
  <note>
    semicolon
  </note>
  <outline>
    <contour>
      <point x="29" y="76" type="curve" smooth="yes"/>
      <point x="29" y="65"/>
      <point x="30" y="55"/>
      <point x="34" y="46" type="curve" smooth="yes"/>
      <point x="38" y="37"/>
      <point x="42" y="30"/>
      <point x="48" y="23" type="curve" smooth="yes"/>
      <point x="54" y="16"/>
      <point x="62" y="11"/>
      <point x="71" y="7" type="curve" smooth="yes"/>
      <point x="80" y="3"/>
      <point x="89" y="2"/>
      <point x="99" y="2" type="curve"/>
      <point x="97" y="-8"/>
      <point x="93" y="-18"/>
      <point x="89" y="-27" type="curve" smooth="yes"/>
      <point x="85" y="-36"/>
      <point x="80" y="-43"/>
      <point x="75" y="-51" type="curve" smooth="yes"/>
      <point x="70" y="-59"/>
      <point x="64" y="-65"/>
      <point x="59" y="-71" type="curve" smooth="yes"/>
      <point x="54" y="-77"/>
      <point x="49" y="-82"/>
      <point x="45" y="-86" type="curve" smooth="yes"/>
      <point x="42" y="-89"/>
      <point x="40" y="-92"/>
      <point x="38" y="-95" type="curve" smooth="yes"/>
      <point x="36" y="-98"/>
      <point x="35" y="-101"/>
      <point x="35" y="-104" type="curve" smooth="yes"/>
      <point x="35" y="-111"/>
      <point x="39" y="-117"/>
      <point x="45" y="-122" type="curve"/>
      <point x="66" y="-142" type="line"/>
      <point x="84" y="-128"/>
      <point x="99" y="-113"/>
      <point x="113" y="-96" type="curve" smooth="yes"/>
      <point x="127" y="-79"/>
      <point x="138" y="-62"/>
      <point x="147" y="-44" type="curve" smooth="yes"/>
      <point x="156" y="-26"/>
      <point x="164" y="-10"/>
      <point x="169" y="8" type="curve" smooth="yes"/>
      <point x="174" y="26"/>
      <point x="176" y="43"/>
      <point x="176" y="59" type="curve" smooth="yes"/>
      <point x="176" y="70"/>
      <point x="174" y="81"/>
      <point x="171" y="91" type="curve" smooth="yes"/>
      <point x="168" y="101"/>
      <point x="163" y="110"/>
      <point x="157" y="118" type="curve" smooth="yes"/>
      <point x="151" y="126"/>
      <point x="143" y="133"/>
      <point x="134" y="137" type="curve" smooth="yes"/>
      <point x="125" y="141"/>
      <point x="114" y="143"/>
      <point x="101" y="143" type="curve" smooth="yes"/>
      <point x="90" y="143"/>
      <point x="80" y="142"/>
      <point x="71" y="138" type="curve" smooth="yes"/>
      <point x="62" y="134"/>
      <point x="55" y="130"/>
      <point x="49" y="124" type="curve" smooth="yes"/>
      <point x="43" y="118"/>
      <point x="38" y="110"/>
      <point x="34" y="102" type="curve" smooth="yes"/>
      <point x="30" y="94"/>
      <point x="29" y="85"/>
    </contour>
    <contour>
      <point x="25" y="424" type="curve" smooth="yes"/>
      <point x="25" y="413"/>
      <point x="27" y="404"/>
      <point x="31" y="395" type="curve" smooth="yes"/>
      <point x="35" y="386"/>
      <point x="40" y="378"/>
      <point x="47" y="371" type="curve" smooth="yes"/>
      <point x="54" y="364"/>
      <point x="62" y="359"/>
      <point x="71" y="355" type="curve" smooth="yes"/>
      <point x="80" y="351"/>
      <point x="90" y="350"/>
      <point x="101" y="350" type="curve" smooth="yes"/>
      <point x="111" y="350"/>
      <point x="122" y="351"/>
      <point x="131" y="355" type="curve" smooth="yes"/>
      <point x="140" y="359"/>
      <point x="148" y="364"/>
      <point x="155" y="371" type="curve" smooth="yes"/>
      <point x="162" y="378"/>
      <point x="167" y="386"/>
      <point x="171" y="395" type="curve" smooth="yes"/>
      <point x="175" y="404"/>
      <point x="177" y="413"/>
      <point x="177" y="424" type="curve" smooth="yes"/>
      <point x="177" y="434"/>
      <point x="175" y="445"/>
      <point x="171" y="454" type="curve" smooth="yes"/>
      <point x="167" y="463"/>
      <point x="162" y="471"/>
      <point x="155" y="478" type="curve" smooth="yes"/>
      <point x="148" y="485"/>
      <point x="140" y="490"/>
      <point x="131" y="494" type="curve" smooth="yes"/>
      <point x="122" y="498"/>
      <point x="111" y="500"/>
      <point x="101" y="500" type="curve" smooth="yes"/>
      <point x="90" y="500"/>
      <point x="80" y="498"/>
      <point x="71" y="494" type="curve" smooth="yes"/>
      <point x="62" y="490"/>
      <point x="54" y="485"/>
      <point x="47" y="478" type="curve" smooth="yes"/>
      <point x="40" y="471"/>
      <point x="35" y="463"/>
      <point x="31" y="454" type="curve" smooth="yes"/>
      <point x="27" y="445"/>
      <point x="25" y="434"/>
    </contour>
  </outline>
</glyph>
<glyph name="less" format="1">
  <advance width="493"/>
  <unicode hex="003C"/>
  <note>
    less
  </note>
  <outline>
    <contour>
      <point x="427" y="568" type="line"/>
      <point x="31" y="362" type="line"/>
      <point x="31" y="312" type="line"/>
      <point x="427" y="105" type="line"/>
      <point x="427" y="193" type="line" smooth="yes"/>
      <point x="427" y="200"/>
      <point x="426" y="205"/>
      <point x="423" y="211" type="curve" smooth="yes"/>
      <point x="420" y="217"/>
      <point x="414" y="222"/>
      <point x="406" y="226" type="curve" smooth="yes"/>
      <point x="225" y="319" type="line" smooth="yes"/>
      <point x="217" y="323"/>
      <point x="208" y="326"/>
      <point x="200" y="329" type="curve" smooth="yes"/>
      <point x="192" y="332"/>
      <point x="183" y="335"/>
      <point x="173" y="337" type="curve"/>
      <point x="183" y="339"/>
      <point x="192" y="342"/>
      <point x="200" y="345" type="curve" smooth="yes"/>
      <point x="208" y="348"/>
      <point x="217" y="351"/>
      <point x="225" y="355" type="curve" smooth="yes"/>
      <point x="406" y="448" type="line" smooth="yes"/>
      <point x="414" y="452"/>
      <point x="420" y="456"/>
      <point x="423" y="462" type="curve"/>
      <point x="426" y="467"/>
      <point x="427" y="474"/>
      <point x="427" y="481" type="curve" smooth="yes"/>
    </contour>
  </outline>
</glyph>
<glyph name="equal" format="1">
  <advance width="553"/>
  <unicode hex="003D"/>
  <note>
    equal
  </note>
  <outline>
    <contour>
      <point x="498" y="294" type="line"/>
      <point x="55" y="294" type="line"/>
      <point x="55" y="202" type="line"/>
      <point x="498" y="202" type="line"/>
    </contour>
    <contour>
      <point x="498" y="470" type="line"/>
      <point x="55" y="470" type="line"/>
      <point x="55" y="378" type="line"/>
      <point x="498" y="378" type="line"/>
    </contour>
  </outline>
</glyph>
<glyph name="greater" format="1">
  <advance width="493"/>
  <unicode hex="003E"/>
  <note>
    greater
  </note>
  <outline>
    <contour>
      <point x="66" y="193" type="curve" smooth="yes"/>
      <point x="66" y="105" type="line"/>
      <point x="462" y="312" type="line"/>
      <point x="462" y="362" type="line"/>
      <point x="66" y="568" type="line"/>
      <point x="66" y="480" type="line" smooth="yes"/>
      <point x="66" y="473"/>
      <point x="68" y="468"/>
      <point x="71" y="462" type="curve" smooth="yes"/>
      <point x="74" y="456"/>
      <point x="80" y="452"/>
      <point x="88" y="448" type="curve" smooth="yes"/>
      <point x="269" y="355" type="line" smooth="yes"/>
      <point x="277" y="351"/>
      <point x="285" y="348"/>
      <point x="293" y="345" type="curve" smooth="yes"/>
      <point x="301" y="342"/>
      <point x="310" y="339"/>
      <point x="320" y="337" type="curve"/>
      <point x="300" y="332"/>
      <point x="284" y="326"/>
      <point x="269" y="319" type="curve"/>
      <point x="88" y="226" type="line" smooth="yes"/>
      <point x="80" y="222"/>
      <point x="74" y="217"/>
      <point x="71" y="211" type="curve" smooth="yes"/>
      <point x="68" y="205"/>
      <point x="66" y="200"/>
    </contour>
  </outline>
</glyph>
<glyph name="question" format="1">
  <advance width="451"/>
  <unicode hex="003F"/>
  <note>
    question
  </note>
  <outline>
    <contour>
      <point x="22" y="658" type="curve"/>
      <point x="54" y="606" type="line"/>
      <point x="59" y="596"/>
      <point x="68" y="591"/>
      <point x="80" y="591" type="curve" smooth="yes"/>
      <point x="85" y="591"/>
      <point x="92" y="593"/>
      <point x="98" y="597" type="curve" smooth="yes"/>
      <point x="104" y="601"/>
      <point x="112" y="606"/>
      <point x="121" y="611" type="curve" smooth="yes"/>
      <point x="130" y="616"/>
      <point x="141" y="621"/>
      <point x="154" y="625" type="curve" smooth="yes"/>
      <point x="167" y="629"/>
      <point x="183" y="632"/>
      <point x="202" y="632" type="curve" smooth="yes"/>
      <point x="215" y="632"/>
      <point x="228" y="630"/>
      <point x="239" y="626" type="curve" smooth="yes"/>
      <point x="250" y="622"/>
      <point x="260" y="617"/>
      <point x="268" y="610" type="curve" smooth="yes"/>
      <point x="276" y="603"/>
      <point x="282" y="596"/>
      <point x="286" y="586" type="curve" smooth="yes"/>
      <point x="290" y="576"/>
      <point x="293" y="566"/>
      <point x="293" y="554" type="curve" smooth="yes"/>
      <point x="293" y="536"/>
      <point x="289" y="519"/>
      <point x="282" y="506" type="curve" smooth="yes"/>
      <point x="275" y="493"/>
      <point x="265" y="482"/>
      <point x="254" y="471" type="curve"/>
      <point x="243" y="461"/>
      <point x="232" y="450"/>
      <point x="219" y="441" type="curve" smooth="yes"/>
      <point x="206" y="432"/>
      <point x="194" y="424"/>
      <point x="183" y="414" type="curve"/>
      <point x="172" y="405"/>
      <point x="163" y="394"/>
      <point x="156" y="383" type="curve" smooth="yes"/>
      <point x="149" y="372"/>
      <point x="145" y="360"/>
      <point x="145" y="345" type="curve" smooth="yes"/>
      <point x="145" y="341" type="line"/>
      <point x="145" y="336" type="line"/>
      <point x="154" y="255" type="line"/>
      <point x="238" y="255" type="line"/>
      <point x="250" y="328" type="line" smooth="yes"/>
      <point x="252" y="339"/>
      <point x="257" y="348"/>
      <point x="265" y="357" type="curve"/>
      <point x="273" y="365"/>
      <point x="283" y="374"/>
      <point x="295" y="383" type="curve" smooth="yes"/>
      <point x="307" y="392"/>
      <point x="319" y="401"/>
      <point x="332" y="411" type="curve" smooth="yes"/>
      <point x="345" y="421"/>
      <point x="358" y="432"/>
      <point x="369" y="446" type="curve" smooth="yes"/>
      <point x="380" y="460"/>
      <point x="389" y="476"/>
      <point x="396" y="495" type="curve" smooth="yes"/>
      <point x="403" y="513"/>
      <point x="408" y="535"/>
      <point x="408" y="560" type="curve" smooth="yes"/>
      <point x="408" y="586"/>
      <point x="403" y="610"/>
      <point x="394" y="631" type="curve" smooth="yes"/>
      <point x="385" y="652"/>
      <point x="371" y="670"/>
      <point x="354" y="685" type="curve" smooth="yes"/>
      <point x="337" y="700"/>
      <point x="317" y="711"/>
      <point x="293" y="719" type="curve" smooth="yes"/>
      <point x="269" y="727"/>
      <point x="243" y="731"/>
      <point x="214" y="731" type="curve" smooth="yes"/>
      <point x="193" y="731"/>
      <point x="172" y="729"/>
      <point x="154" y="725" type="curve" smooth="yes"/>
      <point x="136" y="721"/>
      <point x="119" y="717"/>
      <point x="103" y="710" type="curve" smooth="yes"/>
      <point x="87" y="703"/>
      <point x="73" y="695"/>
      <point x="59" y="686" type="curve" smooth="yes"/>
      <point x="45" y="677"/>
      <point x="33" y="668"/>
    </contour>
    <contour>
      <point x="116" y="68" type="curve" smooth="yes"/>
      <point x="116" y="57"/>
      <point x="118" y="47"/>
      <point x="122" y="38" type="curve" smooth="yes"/>
      <point x="126" y="29"/>
      <point x="131" y="21"/>
      <point x="138" y="14" type="curve" smooth="yes"/>
      <point x="145" y="7"/>
      <point x="153" y="3"/>
      <point x="162" y="-1" type="curve" smooth="yes"/>
      <point x="171" y="-5"/>
      <point x="181" y="-7"/>
      <point x="192" y="-7" type="curve" smooth="yes"/>
      <point x="202" y="-7"/>
      <point x="213" y="-5"/>
      <point x="222" y="-1" type="curve" smooth="yes"/>
      <point x="231" y="3"/>
      <point x="239" y="7"/>
      <point x="246" y="14" type="curve" smooth="yes"/>
      <point x="253" y="21"/>
      <point x="258" y="29"/>
      <point x="262" y="38" type="curve" smooth="yes"/>
      <point x="266" y="47"/>
      <point x="268" y="57"/>
      <point x="268" y="68" type="curve" smooth="yes"/>
      <point x="268" y="78"/>
      <point x="266" y="89"/>
      <point x="262" y="98" type="curve" smooth="yes"/>
      <point x="258" y="107"/>
      <point x="253" y="115"/>
      <point x="246" y="122" type="curve" smooth="yes"/>
      <point x="239" y="129"/>
      <point x="231" y="134"/>
      <point x="222" y="138" type="curve" smooth="yes"/>
      <point x="213" y="142"/>
      <point x="202" y="144"/>
      <point x="192" y="144" type="curve" smooth="yes"/>
      <point x="181" y="144"/>
      <point x="171" y="142"/>
      <point x="162" y="138" type="curve" smooth="yes"/>
      <point x="153" y="134"/>
      <point x="145" y="128"/>
      <point x="138" y="121" type="curve" smooth="yes"/>
      <point x="131" y="114"/>
      <point x="126" y="106"/>
      <point x="122" y="97" type="curve" smooth="yes"/>
      <point x="118" y="88"/>
      <point x="116" y="78"/>
    </contour>
  </outline>
</glyph>
<glyph name="at" format="1">
  <advance width="830"/>
  <unicode hex="0040"/>
  <note>
    at
  </note>
  <outline>
    <contour>
      <point x="585" y="92" type="curve" smooth="yes"/>
      <point x="615" y="92"/>
      <point x="642" y="99"/>
      <point x="668" y="112" type="curve" smooth="yes"/>
      <point x="694" y="125"/>
      <point x="716" y="143"/>
      <point x="735" y="166" type="curve" smooth="yes"/>
      <point x="754" y="189"/>
      <point x="769" y="216"/>
      <point x="779" y="247" type="curve" smooth="yes"/>
      <point x="789" y="278"/>
      <point x="795" y="312"/>
      <point x="795" y="348" type="curve" smooth="yes"/>
      <point x="795" y="401"/>
      <point x="785" y="449"/>
      <point x="765" y="491" type="curve" smooth="yes"/>
      <point x="745" y="533"/>
      <point x="718" y="569"/>
      <point x="684" y="599" type="curve" smooth="yes"/>
      <point x="650" y="629"/>
      <point x="613" y="651"/>
      <point x="569" y="667" type="curve" smooth="yes"/>
      <point x="525" y="683"/>
      <point x="480" y="691"/>
      <point x="433" y="691" type="curve" smooth="yes"/>
      <point x="396" y="691"/>
      <point x="359" y="686"/>
      <point x="325" y="676" type="curve" smooth="yes"/>
      <point x="291" y="666"/>
      <point x="259" y="653"/>
      <point x="230" y="635" type="curve" smooth="yes"/>
      <point x="201" y="617"/>
      <point x="174" y="597"/>
      <point x="150" y="572" type="curve" smooth="yes"/>
      <point x="126" y="547"/>
      <point x="106" y="520"/>
      <point x="89" y="490" type="curve" smooth="yes"/>
      <point x="72" y="460"/>
      <point x="58" y="430"/>
      <point x="49" y="396" type="curve" smooth="yes"/>
      <point x="40" y="362"/>
      <point x="35" y="328"/>
      <point x="35" y="292" type="curve" smooth="yes"/>
      <point x="35" y="228"/>
      <point x="46" y="171"/>
      <point x="67" y="120" type="curve" smooth="yes"/>
      <point x="88" y="69"/>
      <point x="117" y="26"/>
      <point x="155" y="-10" type="curve" smooth="yes"/>
      <point x="193" y="-46"/>
      <point x="238" y="-73"/>
      <point x="289" y="-92" type="curve" smooth="yes"/>
      <point x="340" y="-111"/>
      <point x="396" y="-120"/>
      <point x="456" y="-120" type="curve" smooth="yes"/>
      <point x="515" y="-120"/>
      <point x="569" y="-113"/>
      <point x="615" y="-99" type="curve" smooth="yes"/>
      <point x="661" y="-85"/>
      <point x="701" y="-67"/>
      <point x="736" y="-44" type="curve"/>
      <point x="719" y="1" type="line" smooth="yes"/>
      <point x="715" y="12"/>
      <point x="709" y="17"/>
      <point x="699" y="17" type="curve" smooth="yes"/>
      <point x="694" y="17"/>
      <point x="688" y="16"/>
      <point x="681" y="12" type="curve" smooth="yes"/>
      <point x="669" y="5"/>
      <point x="656" y="-2"/>
      <point x="641" y="-8" type="curve" smooth="yes"/>
      <point x="626" y="-14"/>
      <point x="608" y="-20"/>
      <point x="589" y="-25" type="curve" smooth="yes"/>
      <point x="570" y="-30"/>
      <point x="550" y="-33"/>
      <point x="528" y="-36" type="curve" smooth="yes"/>
      <point x="506" y="-39"/>
      <point x="482" y="-40"/>
      <point x="456" y="-40" type="curve" smooth="yes"/>
      <point x="409" y="-40"/>
      <point x="366" y="-34"/>
      <point x="326" y="-20" type="curve" smooth="yes"/>
      <point x="286" y="-6"/>
      <point x="251" y="15"/>
      <point x="221" y="43" type="curve" smooth="yes"/>
      <point x="191" y="71"/>
      <point x="168" y="105"/>
      <point x="151" y="147" type="curve" smooth="yes"/>
      <point x="134" y="189"/>
      <point x="126" y="237"/>
      <point x="126" y="292" type="curve" smooth="yes"/>
      <point x="126" y="337"/>
      <point x="133" y="379"/>
      <point x="149" y="418" type="curve" smooth="yes"/>
      <point x="165" y="457"/>
      <point x="185" y="490"/>
      <point x="213" y="519" type="curve" smooth="yes"/>
      <point x="241" y="548"/>
      <point x="273" y="571"/>
      <point x="311" y="587" type="curve" smooth="yes"/>
      <point x="349" y="603"/>
      <point x="389" y="612"/>
      <point x="433" y="612" type="curve" smooth="yes"/>
      <point x="473" y="612"/>
      <point x="509" y="606"/>
      <point x="543" y="595" type="curve" smooth="yes"/>
      <point x="577" y="584"/>
      <point x="606" y="567"/>
      <point x="630" y="545" type="curve" smooth="yes"/>
      <point x="654" y="523"/>
      <point x="672" y="495"/>
      <point x="686" y="462" type="curve" smooth="yes"/>
      <point x="700" y="429"/>
      <point x="707" y="391"/>
      <point x="707" y="348" type="curve" smooth="yes"/>
      <point x="707" y="322"/>
      <point x="704" y="298"/>
      <point x="698" y="276" type="curve" smooth="yes"/>
      <point x="692" y="254"/>
      <point x="685" y="234"/>
      <point x="676" y="218" type="curve" smooth="yes"/>
      <point x="667" y="202"/>
      <point x="655" y="190"/>
      <point x="643" y="181" type="curve" smooth="yes"/>
      <point x="631" y="172"/>
      <point x="617" y="168"/>
      <point x="603" y="168" type="curve" smooth="yes"/>
      <point x="596" y="168"/>
      <point x="590" y="168"/>
      <point x="584" y="170" type="curve" smooth="yes"/>
      <point x="578" y="172"/>
      <point x="573" y="174"/>
      <point x="569" y="178" type="curve" smooth="yes"/>
      <point x="565" y="182"/>
      <point x="562" y="187"/>
      <point x="559" y="194" type="curve"/>
      <point x="557" y="201"/>
      <point x="555" y="210"/>
      <point x="555" y="220" type="curve" smooth="yes"/>
      <point x="555" y="234"/>
      <point x="558" y="252"/>
      <point x="563" y="273" type="curve" smooth="yes"/>
      <point x="611" y="458" type="line"/>
      <point x="594" y="465"/>
      <point x="576" y="472"/>
      <point x="558" y="476" type="curve" smooth="yes"/>
      <point x="540" y="480"/>
      <point x="518" y="482"/>
      <point x="492" y="482" type="curve" smooth="yes"/>
      <point x="462" y="482"/>
      <point x="435" y="478"/>
      <point x="411" y="471" type="curve" smooth="yes"/>
      <point x="387" y="464"/>
      <point x="365" y="455"/>
      <point x="345" y="443" type="curve" smooth="yes"/>
      <point x="325" y="431"/>
      <point x="308" y="418"/>
      <point x="294" y="402" type="curve" smooth="yes"/>
      <point x="280" y="386"/>
      <point x="268" y="369"/>
      <point x="258" y="351" type="curve" smooth="yes"/>
      <point x="248" y="333"/>
      <point x="241" y="314"/>
      <point x="236" y="294" type="curve" smooth="yes"/>
      <point x="231" y="274"/>
      <point x="229" y="256"/>
      <point x="229" y="237" type="curve" smooth="yes"/>
      <point x="229" y="216"/>
      <point x="231" y="197"/>
      <point x="236" y="179" type="curve" smooth="yes"/>
      <point x="241" y="161"/>
      <point x="250" y="147"/>
      <point x="260" y="134" type="curve" smooth="yes"/>
      <point x="270" y="121"/>
      <point x="283" y="111"/>
      <point x="299" y="104" type="curve" smooth="yes"/>
      <point x="315" y="97"/>
      <point x="333" y="93"/>
      <point x="354" y="93" type="curve" smooth="yes"/>
      <point x="379" y="93"/>
      <point x="403" y="98"/>
      <point x="425" y="108" type="curve" smooth="yes"/>
      <point x="447" y="118"/>
      <point x="467" y="136"/>
      <point x="487" y="160" type="curve"/>
      <point x="494" y="136"/>
      <point x="506" y="119"/>
      <point x="524" y="108" type="curve" smooth="yes"/>
      <point x="542" y="97"/>
      <point x="562" y="92"/>
    </contour>
    <contour>
      <point x="378" y="172" type="curve" smooth="yes"/>
      <point x="360" y="172"/>
      <point x="347" y="178"/>
      <point x="338" y="190" type="curve" smooth="yes"/>
      <point x="329" y="202"/>
      <point x="324" y="219"/>
      <point x="324" y="240" type="curve" smooth="yes"/>
      <point x="324" y="261"/>
      <point x="328" y="281"/>
      <point x="336" y="301" type="curve" smooth="yes"/>
      <point x="344" y="321"/>
      <point x="354" y="339"/>
      <point x="367" y="354" type="curve" smooth="yes"/>
      <point x="380" y="369"/>
      <point x="396" y="382"/>
      <point x="414" y="391" type="curve" smooth="yes"/>
      <point x="432" y="400"/>
      <point x="451" y="404"/>
      <point x="472" y="404" type="curve" smooth="yes"/>
      <point x="483" y="404"/>
      <point x="494" y="403"/>
      <point x="505" y="401" type="curve"/>
      <point x="468" y="260" type="line" smooth="yes"/>
      <point x="464" y="243"/>
      <point x="459" y="229"/>
      <point x="452" y="218" type="curve" smooth="yes"/>
      <point x="445" y="207"/>
      <point x="438" y="197"/>
      <point x="430" y="190" type="curve" smooth="yes"/>
      <point x="422" y="183"/>
      <point x="413" y="179"/>
      <point x="404" y="176" type="curve" smooth="yes"/>
      <point x="395" y="173"/>
      <point x="387" y="172"/>
    </contour>
  </outline>
</glyph>
<glyph name="A" format="1">
  <advance width="778"/>
  <unicode hex="0041"/>
  <note>
    A
  </note>
  <outline>
    <contour>
      <point x="758" y="77" type="curve"/>
      <point x="703" y="100" type="line"/>
      <point x="458" y="723" type="line"/>
      <point x="320" y="723" type="line"/>
      <point x="76" y="100" type="line"/>
      <point x="21" y="77" type="line"/>
      <point x="8" y="71"/>
      <point x="1" y="63"/>
      <point x="1" y="51" type="curve" smooth="yes"/>
      <point x="1" y="0" type="line"/>
      <point x="245" y="0" type="line"/>
      <point x="245" y="51" type="line" smooth="yes"/>
      <point x="245" y="63"/>
      <point x="238" y="71"/>
      <point x="225" y="77" type="curve"/>
      <point x="205" y="85" type="line"/>
      <point x="245" y="194" type="line"/>
      <point x="533" y="194" type="line"/>
      <point x="573" y="85" type="line"/>
      <point x="553" y="77" type="line"/>
      <point x="540" y="71"/>
      <point x="533" y="63"/>
      <point x="533" y="51" type="curve" smooth="yes"/>
      <point x="533" y="0" type="line"/>
      <point x="777" y="0" type="line"/>
      <point x="777" y="51" type="line" smooth="yes"/>
      <point x="777" y="63"/>
      <point x="771" y="72"/>
    </contour>
    <contour>
      <point x="280" y="289" type="line"/>
      <point x="362" y="513" type="line" smooth="yes"/>
      <point x="371" y="538"/>
      <point x="379" y="567"/>
      <point x="389" y="599" type="curve"/>
      <point x="398" y="567"/>
      <point x="407" y="538"/>
      <point x="416" y="514" type="curve" smooth="yes"/>
      <point x="499" y="289" type="line"/>
    </contour>
    <contour>
      <point x="390" y="0" type="move" name="bottom"/>
    </contour>
    <contour>
      <point x="715" y="10" type="move" name="ogonek"/>
    </contour>
    <contour>
      <point x="379" y="723" type="move" name="top"/>
    </contour>
  </outline>
</glyph>
<glyph name="B" format="1">
  <advance width="705"/>
  <unicode hex="0042"/>
  <note>
    B
  </note>
  <outline>
    <contour>
      <point x="516" y="374" type="curve"/>
      <point x="538" y="382"/>
      <point x="557" y="391"/>
      <point x="573" y="402" type="curve" smooth="yes"/>
      <point x="589" y="413"/>
      <point x="602" y="424"/>
      <point x="613" y="438" type="curve" smooth="yes"/>
      <point x="623" y="451"/>
      <point x="632" y="466"/>
      <point x="637" y="482" type="curve" smooth="yes"/>
      <point x="642" y="498"/>
      <point x="644" y="514"/>
      <point x="644" y="531" type="curve" smooth="yes"/>
      <point x="644" y="561"/>
      <point x="639" y="586"/>
      <point x="629" y="610" type="curve" smooth="yes"/>
      <point x="619" y="634"/>
      <point x="604" y="654"/>
      <point x="582" y="671" type="curve" smooth="yes"/>
      <point x="561" y="688"/>
      <point x="533" y="701"/>
      <point x="499" y="710" type="curve" smooth="yes"/>
      <point x="465" y="719"/>
      <point x="425" y="723"/>
      <point x="378" y="723" type="curve" smooth="yes"/>
      <point x="129" y="723" type="line"/>
      <point x="53" y="723" type="line"/>
      <point x="53" y="664" type="line" smooth="yes"/>
      <point x="53" y="647"/>
      <point x="61" y="637"/>
      <point x="78" y="633" type="curve"/>
      <point x="79" y="633"/>
      <point x="81" y="632"/>
      <point x="84" y="632" type="curve" smooth="yes"/>
      <point x="87" y="632"/>
      <point x="92" y="630"/>
      <point x="99" y="629" type="curve" smooth="yes"/>
      <point x="106" y="628"/>
      <point x="117" y="626"/>
      <point x="129" y="624" type="curve"/>
      <point x="129" y="99" type="line"/>
      <point x="117" y="97"/>
      <point x="106" y="95"/>
      <point x="99" y="94" type="curve" smooth="yes"/>
      <point x="92" y="93"/>
      <point x="87" y="91"/>
      <point x="84" y="91" type="curve" smooth="yes"/>
      <point x="81" y="91"/>
      <point x="79" y="90"/>
      <point x="78" y="90" type="curve"/>
      <point x="61" y="86"/>
      <point x="53" y="76"/>
      <point x="53" y="59" type="curve" smooth="yes"/>
      <point x="53" y="0" type="line"/>
      <point x="129" y="0" type="line"/>
      <point x="402" y="0" type="line" smooth="yes"/>
      <point x="444" y="0"/>
      <point x="481" y="5"/>
      <point x="514" y="16" type="curve" smooth="yes"/>
      <point x="547" y="27"/>
      <point x="574" y="41"/>
      <point x="596" y="60" type="curve" smooth="yes"/>
      <point x="618" y="79"/>
      <point x="635" y="102"/>
      <point x="647" y="128" type="curve" smooth="yes"/>
      <point x="659" y="154"/>
      <point x="665" y="182"/>
      <point x="665" y="213" type="curve" smooth="yes"/>
      <point x="665" y="298"/>
      <point x="615" y="352"/>
    </contour>
    <contour>
      <point x="263" y="410" type="line"/>
      <point x="263" y="619" type="line"/>
      <point x="378" y="619" type="line" smooth="yes"/>
      <point x="423" y="619"/>
      <point x="457" y="611"/>
      <point x="478" y="595" type="curve" smooth="yes"/>
      <point x="499" y="579"/>
      <point x="510" y="553"/>
      <point x="510" y="515" type="curve" smooth="yes"/>
      <point x="510" y="479"/>
      <point x="499" y="452"/>
      <point x="475" y="435" type="curve" smooth="yes"/>
      <point x="451" y="418"/>
      <point x="417" y="410"/>
      <point x="371" y="410" type="curve" smooth="yes"/>
    </contour>
    <contour>
      <point x="525" y="173" type="curve"/>
      <point x="521" y="160"/>
      <point x="513" y="148"/>
      <point x="503" y="138" type="curve" smooth="yes"/>
      <point x="493" y="128"/>
      <point x="480" y="120"/>
      <point x="463" y="114" type="curve" smooth="yes"/>
      <point x="446" y="108"/>
      <point x="425" y="105"/>
      <point x="400" y="105" type="curve" smooth="yes"/>
      <point x="263" y="105" type="line"/>
      <point x="263" y="317" type="line"/>
      <point x="399" y="317" type="line" smooth="yes"/>
      <point x="423" y="317"/>
      <point x="443" y="315"/>
      <point x="460" y="310" type="curve" smooth="yes"/>
      <point x="477" y="305"/>
      <point x="490" y="299"/>
      <point x="501" y="290" type="curve" smooth="yes"/>
      <point x="512" y="281"/>
      <point x="519" y="270"/>
      <point x="524" y="258" type="curve" smooth="yes"/>
      <point x="529" y="245"/>
      <point x="532" y="232"/>
      <point x="532" y="216" type="curve" smooth="yes"/>
      <point x="532" y="201"/>
      <point x="530" y="186"/>
    </contour>
    <contour>
      <point x="356" y="0" type="move" name="bottom"/>
    </contour>
    <contour>
      <point x="356" y="723" type="move" name="top"/>
    </contour>
  </outline>
</glyph>
<glyph name="C" format="1">
  <advance width="677"/>
  <unicode hex="0043"/>
  <note>
    C
  </note>
  <outline>
    <contour>
      <point x="575" y="495" type="curve" smooth="yes"/>
      <point x="633" y="495" type="line"/>
      <point x="633" y="679" type="line"/>
      <point x="542" y="714"/>
      <point x="466" y="731"/>
      <point x="406" y="731" type="curve" smooth="yes"/>
      <point x="351" y="731"/>
      <point x="300" y="722"/>
      <point x="255" y="704" type="curve" smooth="yes"/>
      <point x="209" y="686"/>
      <point x="171" y="660"/>
      <point x="138" y="627" type="curve" smooth="yes"/>
      <point x="105" y="594"/>
      <point x="80" y="556"/>
      <point x="62" y="511" type="curve" smooth="yes"/>
      <point x="44" y="466"/>
      <point x="35" y="415"/>
      <point x="35" y="361" type="curve" smooth="yes"/>
      <point x="35" y="307"/>
      <point x="43" y="258"/>
      <point x="59" y="213" type="curve" smooth="yes"/>
      <point x="75" y="168"/>
      <point x="99" y="129"/>
      <point x="129" y="96" type="curve" smooth="yes"/>
      <point x="159" y="63"/>
      <point x="196" y="38"/>
      <point x="239" y="20" type="curve" smooth="yes"/>
      <point x="282" y="2"/>
      <point x="329" y="-8"/>
      <point x="383" y="-8" type="curve" smooth="yes"/>
      <point x="443" y="-8"/>
      <point x="495" y="2"/>
      <point x="538" y="21" type="curve" smooth="yes"/>
      <point x="581" y="40"/>
      <point x="617" y="68"/>
      <point x="646" y="104" type="curve"/>
      <point x="593" y="162" type="line"/>
      <point x="588" y="168"/>
      <point x="581" y="170"/>
      <point x="574" y="170" type="curve" smooth="yes"/>
      <point x="570" y="170"/>
      <point x="566" y="170"/>
      <point x="562" y="168" type="curve" smooth="yes"/>
      <point x="558" y="166"/>
      <point x="554" y="164"/>
      <point x="551" y="161" type="curve"/>
      <point x="540" y="151"/>
      <point x="529" y="142"/>
      <point x="518" y="135" type="curve" smooth="yes"/>
      <point x="507" y="128"/>
      <point x="495" y="122"/>
      <point x="483" y="118" type="curve" smooth="yes"/>
      <point x="471" y="114"/>
      <point x="457" y="111"/>
      <point x="442" y="109" type="curve" smooth="yes"/>
      <point x="427" y="107"/>
      <point x="410" y="106"/>
      <point x="392" y="106" type="curve" smooth="yes"/>
      <point x="361" y="106"/>
      <point x="333" y="111"/>
      <point x="306" y="123" type="curve" smooth="yes"/>
      <point x="279" y="135"/>
      <point x="256" y="151"/>
      <point x="236" y="173" type="curve" smooth="yes"/>
      <point x="216" y="195"/>
      <point x="202" y="221"/>
      <point x="190" y="253" type="curve" smooth="yes"/>
      <point x="178" y="285"/>
      <point x="172" y="320"/>
      <point x="172" y="361" type="curve" smooth="yes"/>
      <point x="172" y="400"/>
      <point x="178" y="436"/>
      <point x="190" y="468" type="curve" smooth="yes"/>
      <point x="202" y="500"/>
      <point x="218" y="526"/>
      <point x="238" y="548" type="curve" smooth="yes"/>
      <point x="258" y="570"/>
      <point x="282" y="587"/>
      <point x="311" y="599" type="curve" smooth="yes"/>
      <point x="340" y="611"/>
      <point x="371" y="616"/>
      <point x="405" y="616" type="curve" smooth="yes"/>
      <point x="443" y="616"/>
      <point x="488" y="609"/>
      <point x="543" y="593" type="curve"/>
      <point x="547" y="549"/>
      <point x="550" y="522"/>
      <point x="552" y="513" type="curve" smooth="yes"/>
      <point x="555" y="501"/>
      <point x="562" y="495"/>
    </contour>
    <contour>
      <point x="340" y="0" type="move" name="bottom"/>
    </contour>
    <contour>
      <point x="370" y="723" type="move" name="top"/>
    </contour>
  </outline>
</glyph>
<glyph name="D" format="1">
  <advance width="795"/>
  <unicode hex="0044"/>
  <note>
    D
  </note>
  <outline>
    <contour>
      <point x="733" y="508" type="curve" smooth="yes"/>
      <point x="715" y="552"/>
      <point x="691" y="590"/>
      <point x="659" y="622" type="curve" smooth="yes"/>
      <point x="627" y="654"/>
      <point x="588" y="678"/>
      <point x="543" y="696" type="curve" smooth="yes"/>
      <point x="498" y="714"/>
      <point x="449" y="723"/>
      <point x="394" y="723" type="curve" smooth="yes"/>
      <point x="129" y="723" type="line"/>
      <point x="53" y="723" type="line"/>
      <point x="53" y="664" type="line" smooth="yes"/>
      <point x="53" y="647"/>
      <point x="61" y="637"/>
      <point x="78" y="633" type="curve"/>
      <point x="79" y="633"/>
      <point x="81" y="632"/>
      <point x="84" y="632" type="curve" smooth="yes"/>
      <point x="87" y="632"/>
      <point x="92" y="630"/>
      <point x="99" y="629" type="curve" smooth="yes"/>
      <point x="106" y="628"/>
      <point x="117" y="626"/>
      <point x="129" y="624" type="curve"/>
      <point x="129" y="99" type="line"/>
      <point x="117" y="97"/>
      <point x="106" y="95"/>
      <point x="99" y="94" type="curve" smooth="yes"/>
      <point x="92" y="93"/>
      <point x="87" y="91"/>
      <point x="84" y="91" type="curve" smooth="yes"/>
      <point x="81" y="91"/>
      <point x="79" y="90"/>
      <point x="78" y="90" type="curve"/>
      <point x="61" y="86"/>
      <point x="53" y="76"/>
      <point x="53" y="59" type="curve" smooth="yes"/>
      <point x="53" y="0" type="line"/>
      <point x="129" y="0" type="line"/>
      <point x="394" y="0" type="line" smooth="yes"/>
      <point x="449" y="0"/>
      <point x="498" y="9"/>
      <point x="543" y="27" type="curve" smooth="yes"/>
      <point x="588" y="45"/>
      <point x="627" y="69"/>
      <point x="659" y="101" type="curve" smooth="yes"/>
      <point x="691" y="133"/>
      <point x="715" y="172"/>
      <point x="733" y="216" type="curve" smooth="yes"/>
      <point x="751" y="260"/>
      <point x="760" y="309"/>
      <point x="760" y="362" type="curve" smooth="yes"/>
      <point x="760" y="415"/>
      <point x="751" y="464"/>
    </contour>
    <contour>
      <point x="606" y="255" type="curve" smooth="yes"/>
      <point x="595" y="223"/>
      <point x="581" y="197"/>
      <point x="561" y="175" type="curve" smooth="yes"/>
      <point x="541" y="153"/>
      <point x="517" y="137"/>
      <point x="489" y="125" type="curve" smooth="yes"/>
      <point x="461" y="113"/>
      <point x="429" y="107"/>
      <point x="394" y="107" type="curve" smooth="yes"/>
      <point x="264" y="107" type="line"/>
      <point x="264" y="616" type="line"/>
      <point x="394" y="616" type="line" smooth="yes"/>
      <point x="429" y="616"/>
      <point x="461" y="610"/>
      <point x="489" y="598" type="curve" smooth="yes"/>
      <point x="517" y="586"/>
      <point x="541" y="570"/>
      <point x="561" y="548" type="curve" smooth="yes"/>
      <point x="581" y="526"/>
      <point x="595" y="499"/>
      <point x="606" y="468" type="curve" smooth="yes"/>
      <point x="617" y="436"/>
      <point x="622" y="402"/>
      <point x="622" y="362" type="curve" smooth="yes"/>
      <point x="622" y="322"/>
      <point x="617" y="287"/>
    </contour>
    <contour>
      <point x="404" y="0" type="move" name="bottom"/>
    </contour>
    <contour>
      <point x="404" y="362" type="move" name="center"/>
    </contour>
    <contour>
      <point x="404" y="723" type="move" name="top"/>
    </contour>
  </outline>
</glyph>
<glyph name="F" format="1">
  <advance width="641"/>
  <unicode hex="0046"/>
  <note>
    F
  </note>
  <outline>
    <contour>
      <point x="610" y="723" type="line"/>
      <point x="585" y="723" type="line"/>
      <point x="562" y="723" type="line"/>
      <point x="129" y="723" type="line"/>
      <point x="53" y="723" type="line"/>
      <point x="53" y="664" type="line" smooth="yes"/>
      <point x="53" y="647"/>
      <point x="61" y="637"/>
      <point x="78" y="633" type="curve"/>
      <point x="79" y="633"/>
      <point x="81" y="633"/>
      <point x="84" y="632" type="curve"/>
      <point x="87" y="632"/>
      <point x="92" y="630"/>
      <point x="99" y="629" type="curve" smooth="yes"/>
      <point x="106" y="628"/>
      <point x="117" y="626"/>
      <point x="129" y="624" type="curve"/>
      <point x="129" y="99" type="line"/>
      <point x="117" y="97"/>
      <point x="106" y="95"/>
      <point x="99" y="94" type="curve" smooth="yes"/>
      <point x="92" y="93"/>
      <point x="87" y="91"/>
      <point x="84" y="91" type="curve" smooth="yes"/>
      <point x="81" y="91"/>
      <point x="79" y="90"/>
      <point x="78" y="90" type="curve"/>
      <point x="61" y="86"/>
      <point x="53" y="76"/>
      <point x="53" y="59" type="curve" smooth="yes"/>
      <point x="53" y="0" type="line"/>
      <point x="129" y="0" type="line"/>
      <point x="264" y="0" type="line"/>
      <point x="340" y="0" type="line"/>
      <point x="340" y="59" type="line" smooth="yes"/>
      <point x="340" y="76"/>
      <point x="332" y="86"/>
      <point x="315" y="90" type="curve"/>
      <point x="314" y="90"/>
      <point x="312" y="91"/>
      <point x="309" y="91" type="curve" smooth="yes"/>
      <point x="306" y="91"/>
      <point x="301" y="93"/>
      <point x="294" y="94" type="curve" smooth="yes"/>
      <point x="287" y="95"/>
      <point x="276" y="97"/>
      <point x="264" y="99" type="curve"/>
      <point x="264" y="295" type="line"/>
      <point x="517" y="295" type="line"/>
      <point x="517" y="402" type="line"/>
      <point x="264" y="402" type="line"/>
      <point x="264" y="616" type="line"/>
      <point x="522" y="616" type="line"/>
      <point x="525" y="581"/>
      <point x="528" y="560"/>
      <point x="529" y="552" type="curve"/>
      <point x="532" y="540"/>
      <point x="539" y="533"/>
      <point x="552" y="533" type="curve" smooth="yes"/>
      <point x="594" y="533" type="line"/>
      <point x="606" y="533" type="line"/>
      <point x="610" y="533" type="line"/>
      <point x="610" y="630" type="line"/>
      <point x="610" y="653" type="line"/>
    </contour>
    <contour>
      <point x="330" y="0" type="move" name="bottom"/>
    </contour>
    <contour>
      <point x="330" y="723" type="move" name="top"/>
    </contour>
  </outline>
</glyph>
<glyph name="G" format="1">
  <advance width="740"/>
  <unicode hex="0047"/>
  <note>
    G
  </note>
  <outline>
    <contour>
      <point x="674" y="362" type="line"/>
      <point x="434" y="362" type="line"/>
      <point x="434" y="286" type="line" smooth="yes"/>
      <point x="434" y="279"/>
      <point x="436" y="274"/>
      <point x="441" y="269" type="curve" smooth="yes"/>
      <point x="446" y="264"/>
      <point x="453" y="261"/>
      <point x="462" y="261" type="curve" smooth="yes"/>
      <point x="552" y="261" type="line"/>
      <point x="552" y="130" type="line"/>
      <point x="532" y="120"/>
      <point x="510" y="112"/>
      <point x="488" y="107" type="curve" smooth="yes"/>
      <point x="465" y="102"/>
      <point x="439" y="99"/>
      <point x="409" y="99" type="curve" smooth="yes"/>
      <point x="375" y="99"/>
      <point x="343" y="105"/>
      <point x="314" y="117" type="curve" smooth="yes"/>
      <point x="285" y="129"/>
      <point x="260" y="146"/>
      <point x="239" y="168" type="curve" smooth="yes"/>
      <point x="218" y="190"/>
      <point x="202" y="217"/>
      <point x="190" y="250" type="curve" smooth="yes"/>
      <point x="178" y="282"/>
      <point x="172" y="320"/>
      <point x="172" y="362" type="curve" smooth="yes"/>
      <point x="172" y="401"/>
      <point x="178" y="436"/>
      <point x="189" y="467" type="curve" smooth="yes"/>
      <point x="200" y="498"/>
      <point x="216" y="525"/>
      <point x="236" y="547" type="curve" smooth="yes"/>
      <point x="256" y="569"/>
      <point x="281" y="586"/>
      <point x="310" y="598" type="curve" smooth="yes"/>
      <point x="339" y="610"/>
      <point x="370" y="616"/>
      <point x="406" y="616" type="curve" smooth="yes"/>
      <point x="470" y="616"/>
      <point x="527" y="608"/>
      <point x="577" y="591" type="curve"/>
      <point x="581" y="548"/>
      <point x="584" y="522"/>
      <point x="586" y="513" type="curve" smooth="yes"/>
      <point x="589" y="501"/>
      <point x="596" y="495"/>
      <point x="609" y="495" type="curve" smooth="yes"/>
      <point x="650" y="495" type="line"/>
      <point x="663" y="495" type="line"/>
      <point x="667" y="495" type="line"/>
      <point x="667" y="679" type="line"/>
      <point x="574" y="713"/>
      <point x="489" y="731"/>
      <point x="411" y="731" type="curve" smooth="yes"/>
      <point x="410" y="731" type="line"/>
      <point x="404" y="731" type="line" smooth="yes"/>
      <point x="349" y="730"/>
      <point x="299" y="721"/>
      <point x="255" y="704" type="curve" smooth="yes"/>
      <point x="209" y="686"/>
      <point x="169" y="661"/>
      <point x="137" y="628" type="curve" smooth="yes"/>
      <point x="104" y="595"/>
      <point x="79" y="556"/>
      <point x="61" y="511" type="curve" smooth="yes"/>
      <point x="43" y="466"/>
      <point x="35" y="416"/>
      <point x="35" y="362" type="curve" smooth="yes"/>
      <point x="35" y="308"/>
      <point x="44" y="258"/>
      <point x="62" y="213" type="curve" smooth="yes"/>
      <point x="80" y="168"/>
      <point x="106" y="129"/>
      <point x="138" y="96" type="curve" smooth="yes"/>
      <point x="170" y="63"/>
      <point x="209" y="38"/>
      <point x="253" y="20" type="curve" smooth="yes"/>
      <point x="297" y="2"/>
      <point x="345" y="-8"/>
      <point x="398" y="-8" type="curve" smooth="yes"/>
      <point x="428" y="-8"/>
      <point x="455" y="-6"/>
      <point x="481" y="-3" type="curve" smooth="yes"/>
      <point x="507" y="0"/>
      <point x="532" y="5"/>
      <point x="554" y="11" type="curve" smooth="yes"/>
      <point x="576" y="17"/>
      <point x="597" y="25"/>
      <point x="617" y="35" type="curve" smooth="yes"/>
      <point x="637" y="45"/>
      <point x="656" y="57"/>
      <point x="674" y="70" type="curve"/>
    </contour>
    <contour>
      <point x="358" y="0" type="move" name="bottom"/>
    </contour>
    <contour>
      <point x="358" y="723" type="move" name="top"/>
    </contour>
  </outline>
</glyph>
<glyph name="H" format="1">
  <advance width="867"/>
  <unicode hex="0048"/>
  <note>
    H
  </note>
  <outline>
    <contour>
      <point x="789" y="633" type="curve"/>
      <point x="806" y="637"/>
      <point x="814" y="647"/>
      <point x="814" y="664" type="curve" smooth="yes"/>
      <point x="814" y="723" type="line"/>
      <point x="739" y="723" type="line"/>
      <point x="603" y="723" type="line"/>
      <point x="528" y="723" type="line"/>
      <point x="528" y="664" type="line" smooth="yes"/>
      <point x="528" y="647"/>
      <point x="536" y="637"/>
      <point x="553" y="633" type="curve"/>
      <point x="554" y="633"/>
      <point x="556" y="632"/>
      <point x="559" y="632" type="curve"/>
      <point x="562" y="631"/>
      <point x="567" y="630"/>
      <point x="574" y="629" type="curve" smooth="yes"/>
      <point x="581" y="628"/>
      <point x="591" y="626"/>
      <point x="603" y="624" type="curve"/>
      <point x="603" y="412" type="line"/>
      <point x="264" y="412" type="line"/>
      <point x="264" y="624" type="line"/>
      <point x="276" y="626"/>
      <point x="287" y="628"/>
      <point x="294" y="629" type="curve" smooth="yes"/>
      <point x="301" y="630"/>
      <point x="306" y="632"/>
      <point x="309" y="632" type="curve"/>
      <point x="312" y="633"/>
      <point x="314" y="633"/>
      <point x="315" y="633" type="curve"/>
      <point x="332" y="637"/>
      <point x="340" y="647"/>
      <point x="340" y="664" type="curve" smooth="yes"/>
      <point x="340" y="723" type="line"/>
      <point x="264" y="723" type="line"/>
      <point x="129" y="723" type="line"/>
      <point x="53" y="723" type="line"/>
      <point x="53" y="664" type="line" smooth="yes"/>
      <point x="53" y="647"/>
      <point x="61" y="637"/>
      <point x="78" y="633" type="curve"/>
      <point x="79" y="633"/>
      <point x="81" y="633"/>
      <point x="84" y="632" type="curve"/>
      <point x="87" y="632"/>
      <point x="92" y="630"/>
      <point x="99" y="629" type="curve" smooth="yes"/>
      <point x="106" y="628"/>
      <point x="117" y="626"/>
      <point x="129" y="624" type="curve"/>
      <point x="129" y="99" type="line"/>
      <point x="117" y="97"/>
      <point x="106" y="95"/>
      <point x="99" y="94" type="curve" smooth="yes"/>
      <point x="92" y="93"/>
      <point x="87" y="91"/>
      <point x="84" y="91" type="curve" smooth="yes"/>
      <point x="81" y="91"/>
      <point x="79" y="90"/>
      <point x="78" y="90" type="curve"/>
      <point x="61" y="86"/>
      <point x="53" y="76"/>
      <point x="53" y="59" type="curve" smooth="yes"/>
      <point x="53" y="0" type="line"/>
      <point x="129" y="0" type="line"/>
      <point x="264" y="0" type="line"/>
      <point x="340" y="0" type="line"/>
      <point x="340" y="59" type="line" smooth="yes"/>
      <point x="340" y="76"/>
      <point x="332" y="86"/>
      <point x="315" y="90" type="curve"/>
      <point x="314" y="90"/>
      <point x="312" y="90"/>
      <point x="309" y="91" type="curve"/>
      <point x="306" y="91"/>
      <point x="301" y="93"/>
      <point x="294" y="94" type="curve" smooth="yes"/>
      <point x="287" y="95"/>
      <point x="276" y="97"/>
      <point x="264" y="99" type="curve"/>
      <point x="264" y="316" type="line"/>
      <point x="603" y="316" type="line"/>
      <point x="603" y="99" type="line"/>
      <point x="591" y="97"/>
      <point x="581" y="95"/>
      <point x="574" y="94" type="curve" smooth="yes"/>
      <point x="567" y="93"/>
      <point x="562" y="92"/>
      <point x="559" y="91" type="curve" smooth="yes"/>
      <point x="556" y="90"/>
      <point x="554" y="90"/>
      <point x="553" y="90" type="curve"/>
      <point x="536" y="86"/>
      <point x="528" y="76"/>
      <point x="528" y="59" type="curve" smooth="yes"/>
      <point x="528" y="0" type="line"/>
      <point x="603" y="0" type="line"/>
      <point x="739" y="0" type="line"/>
      <point x="814" y="0" type="line"/>
      <point x="814" y="59" type="line" smooth="yes"/>
      <point x="814" y="76"/>
      <point x="806" y="86"/>
      <point x="789" y="90" type="curve"/>
      <point x="788" y="90"/>
      <point x="786" y="91"/>
      <point x="783" y="91" type="curve" smooth="yes"/>
      <point x="780" y="91"/>
      <point x="775" y="93"/>
      <point x="768" y="94" type="curve" smooth="yes"/>
      <point x="761" y="95"/>
      <point x="751" y="97"/>
      <point x="739" y="99" type="curve"/>
      <point x="739" y="624" type="line"/>
      <point x="751" y="626"/>
      <point x="761" y="628"/>
      <point x="768" y="629" type="curve" smooth="yes"/>
      <point x="775" y="630"/>
      <point x="780" y="632"/>
      <point x="783" y="632" type="curve" smooth="yes"/>
      <point x="786" y="632"/>
      <point x="788" y="633"/>
    </contour>
    <contour>
      <point x="434" y="0" type="move" name="bottom"/>
    </contour>
    <contour>
      <point x="434" y="362" type="move" name="center"/>
    </contour>
    <contour>
      <point x="434" y="723" type="move" name="top"/>
    </contour>
    <contour>
      <point x="53" y="723" type="move" name="topleft"/>
    </contour>
  </outline>
</glyph>
<glyph name="I" format="1">
  <advance width="392"/>
  <unicode hex="0049"/>
  <note>
    I
  </note>
  <outline>
    <contour>
      <point x="314" y="633" type="curve"/>
      <point x="331" y="637"/>
      <point x="339" y="647"/>
      <point x="339" y="664" type="curve" smooth="yes"/>
      <point x="339" y="723" type="line"/>
      <point x="264" y="723" type="line"/>
      <point x="129" y="723" type="line"/>
      <point x="53" y="723" type="line"/>
      <point x="53" y="664" type="line" smooth="yes"/>
      <point x="53" y="647"/>
      <point x="61" y="637"/>
      <point x="78" y="633" type="curve"/>
      <point x="79" y="633"/>
      <point x="81" y="633"/>
      <point x="84" y="632" type="curve"/>
      <point x="87" y="632"/>
      <point x="92" y="630"/>
      <point x="99" y="629" type="curve" smooth="yes"/>
      <point x="106" y="628"/>
      <point x="117" y="626"/>
      <point x="129" y="624" type="curve"/>
      <point x="129" y="99" type="line"/>
      <point x="117" y="97"/>
      <point x="106" y="95"/>
      <point x="99" y="94" type="curve" smooth="yes"/>
      <point x="92" y="93"/>
      <point x="87" y="92"/>
      <point x="84" y="91" type="curve"/>
      <point x="81" y="91"/>
      <point x="79" y="90"/>
      <point x="78" y="90" type="curve"/>
      <point x="61" y="86"/>
      <point x="53" y="76"/>
      <point x="53" y="59" type="curve" smooth="yes"/>
      <point x="53" y="0" type="line"/>
      <point x="129" y="0" type="line"/>
      <point x="264" y="0" type="line"/>
      <point x="339" y="0" type="line"/>
      <point x="339" y="59" type="line" smooth="yes"/>
      <point x="339" y="76"/>
      <point x="331" y="86"/>
      <point x="314" y="90" type="curve"/>
      <point x="313" y="90"/>
      <point x="311" y="91"/>
      <point x="308" y="91" type="curve" smooth="yes"/>
      <point x="305" y="91"/>
      <point x="300" y="93"/>
      <point x="293" y="94" type="curve" smooth="yes"/>
      <point x="286" y="95"/>
      <point x="276" y="97"/>
      <point x="264" y="99" type="curve"/>
      <point x="264" y="624" type="line"/>
      <point x="276" y="626"/>
      <point x="286" y="628"/>
      <point x="293" y="629" type="curve" smooth="yes"/>
      <point x="300" y="630"/>
      <point x="305" y="632"/>
      <point x="308" y="632" type="curve" smooth="yes"/>
      <point x="311" y="632"/>
      <point x="313" y="633"/>
    </contour>
    <contour>
      <point x="196" y="0" type="move" name="bottom"/>
    </contour>
    <contour>
      <point x="306" y="10" type="move" name="ogonek"/>
    </contour>
    <contour>
      <point x="196" y="723" type="move" name="top"/>
    </contour>
    <contour>
      <point x="53" y="723" type="move" name="topleft"/>
    </contour>
  </outline>
</glyph>
<glyph name="J" format="1">
  <advance width="441"/>
  <unicode hex="004A"/>
  <note>
    J
  </note>
  <outline>
    <contour>
      <point x="422" y="723" type="line"/>
      <point x="346" y="723" type="line"/>
      <point x="212" y="723" type="line"/>
      <point x="127" y="723" type="line"/>
      <point x="127" y="664" type="line" smooth="yes"/>
      <point x="127" y="647"/>
      <point x="135" y="637"/>
      <point x="152" y="633" type="curve"/>
      <point x="153" y="633"/>
      <point x="157" y="632"/>
      <point x="161" y="632" type="curve" smooth="yes"/>
      <point x="165" y="632"/>
      <point x="171" y="630"/>
      <point x="180" y="629" type="curve" smooth="yes"/>
      <point x="189" y="628"/>
      <point x="200" y="626"/>
      <point x="212" y="624" type="curve"/>
      <point x="212" y="254" type="line" smooth="yes"/>
      <point x="212" y="227"/>
      <point x="209" y="203"/>
      <point x="204" y="184" type="curve" smooth="yes"/>
      <point x="199" y="165"/>
      <point x="192" y="150"/>
      <point x="182" y="138" type="curve" smooth="yes"/>
      <point x="172" y="126"/>
      <point x="160" y="116"/>
      <point x="145" y="111" type="curve"/>
      <point x="130" y="105"/>
      <point x="114" y="103"/>
      <point x="95" y="103" type="curve" smooth="yes"/>
      <point x="81" y="103"/>
      <point x="69" y="105"/>
      <point x="60" y="107" type="curve" smooth="yes"/>
      <point x="51" y="109"/>
      <point x="44" y="110"/>
      <point x="38" y="110" type="curve" smooth="yes"/>
      <point x="29" y="110"/>
      <point x="22" y="107"/>
      <point x="17" y="103" type="curve"/>
      <point x="12" y="98"/>
      <point x="9" y="93"/>
      <point x="8" y="86" type="curve"/>
      <point x="1" y="6" type="line"/>
      <point x="20" y="1"/>
      <point x="39" y="-3"/>
      <point x="56" y="-5" type="curve" smooth="yes"/>
      <point x="73" y="-7"/>
      <point x="91" y="-8"/>
      <point x="109" y="-8" type="curve" smooth="yes"/>
      <point x="148" y="-8"/>
      <point x="182" y="-1"/>
      <point x="212" y="11" type="curve" smooth="yes"/>
      <point x="242" y="23"/>
      <point x="267" y="41"/>
      <point x="287" y="64" type="curve" smooth="yes"/>
      <point x="307" y="87"/>
      <point x="321" y="114"/>
      <point x="331" y="147" type="curve" smooth="yes"/>
      <point x="341" y="180"/>
      <point x="346" y="216"/>
      <point x="346" y="257" type="curve" smooth="yes"/>
      <point x="346" y="624" type="line"/>
      <point x="358" y="626"/>
      <point x="369" y="628"/>
      <point x="376" y="629" type="curve" smooth="yes"/>
      <point x="383" y="630"/>
      <point x="388" y="632"/>
      <point x="391" y="632" type="curve" smooth="yes"/>
      <point x="394" y="632"/>
      <point x="396" y="633"/>
      <point x="397" y="633" type="curve"/>
      <point x="414" y="637"/>
      <point x="422" y="647"/>
      <point x="422" y="664" type="curve" smooth="yes"/>
    </contour>
    <contour>
      <point x="211" y="0" type="move" name="bottom"/>
    </contour>
    <contour>
      <point x="211" y="723" type="move" name="top"/>
    </contour>
  </outline>
</glyph>
<glyph name="K" format="1">
  <advance width="751"/>
  <unicode hex="004B"/>
  <note>
    K
  </note>
  <outline>
    <contour>
      <point x="725" y="90" type="curve"/>
      <point x="723" y="90"/>
      <point x="721" y="91"/>
      <point x="717" y="91" type="curve" smooth="yes"/>
      <point x="713" y="91"/>
      <point x="707" y="93"/>
      <point x="699" y="94" type="curve" smooth="yes"/>
      <point x="691" y="95"/>
      <point x="682" y="97"/>
      <point x="670" y="99" type="curve"/>
      <point x="492" y="338" type="line" smooth="yes"/>
      <point x="484" y="349"/>
      <point x="475" y="359"/>
      <point x="466" y="366" type="curve" smooth="yes"/>
      <point x="457" y="373"/>
      <point x="447" y="379"/>
      <point x="436" y="383" type="curve"/>
      <point x="444" y="387"/>
      <point x="452" y="393"/>
      <point x="459" y="399" type="curve" smooth="yes"/>
      <point x="466" y="405"/>
      <point x="473" y="413"/>
      <point x="481" y="422" type="curve"/>
      <point x="644" y="624" type="line"/>
      <point x="656" y="626"/>
      <point x="666" y="628"/>
      <point x="674" y="629" type="curve" smooth="yes"/>
      <point x="682" y="630"/>
      <point x="688" y="632"/>
      <point x="692" y="632" type="curve" smooth="yes"/>
      <point x="696" y="632"/>
      <point x="698" y="633"/>
      <point x="700" y="633" type="curve"/>
      <point x="717" y="637"/>
      <point x="725" y="647"/>
      <point x="725" y="664" type="curve" smooth="yes"/>
      <point x="725" y="723" type="line"/>
      <point x="649" y="723" type="line"/>
      <point x="624" y="723" type="line"/>
      <point x="459" y="723" type="line"/>
      <point x="459" y="664" type="line" smooth="yes"/>
      <point x="459" y="647"/>
      <point x="467" y="637"/>
      <point x="484" y="633" type="curve"/>
      <point x="485" y="633"/>
      <point x="487" y="632"/>
      <point x="490" y="632" type="curve" smooth="yes"/>
      <point x="493" y="632"/>
      <point x="495" y="631"/>
      <point x="497" y="631" type="curve"/>
      <point x="348" y="442" type="line" smooth="yes"/>
      <point x="342" y="434"/>
      <point x="334" y="429"/>
      <point x="326" y="425" type="curve" smooth="yes"/>
      <point x="318" y="421"/>
      <point x="308" y="420"/>
      <point x="295" y="420" type="curve" smooth="yes"/>
      <point x="263" y="420" type="line"/>
      <point x="263" y="624" type="line"/>
      <point x="275" y="626"/>
      <point x="286" y="629"/>
      <point x="293" y="630" type="curve" smooth="yes"/>
      <point x="300" y="631"/>
      <point x="305" y="631"/>
      <point x="308" y="632" type="curve"/>
      <point x="311" y="632"/>
      <point x="313" y="633"/>
      <point x="314" y="633" type="curve"/>
      <point x="331" y="637"/>
      <point x="339" y="648"/>
      <point x="339" y="665" type="curve" smooth="yes"/>
      <point x="339" y="723" type="line"/>
      <point x="263" y="723" type="line"/>
      <point x="129" y="723" type="line"/>
      <point x="53" y="723" type="line"/>
      <point x="53" y="665" type="line" smooth="yes"/>
      <point x="53" y="648"/>
      <point x="61" y="637"/>
      <point x="78" y="633" type="curve"/>
      <point x="79" y="633"/>
      <point x="81" y="632"/>
      <point x="84" y="632" type="curve" smooth="yes"/>
      <point x="87" y="632"/>
      <point x="92" y="631"/>
      <point x="99" y="630" type="curve" smooth="yes"/>
      <point x="106" y="629"/>
      <point x="117" y="626"/>
      <point x="129" y="624" type="curve"/>
      <point x="129" y="99" type="line"/>
      <point x="117" y="97"/>
      <point x="106" y="95"/>
      <point x="99" y="94" type="curve" smooth="yes"/>
      <point x="92" y="93"/>
      <point x="87" y="92"/>
      <point x="84" y="91" type="curve" smooth="yes"/>
      <point x="81" y="90"/>
      <point x="79" y="90"/>
      <point x="78" y="90" type="curve"/>
      <point x="61" y="86"/>
      <point x="53" y="76"/>
      <point x="53" y="59" type="curve" smooth="yes"/>
      <point x="53" y="0" type="line"/>
      <point x="129" y="0" type="line"/>
      <point x="263" y="0" type="line"/>
      <point x="339" y="0" type="line"/>
      <point x="339" y="59" type="line" smooth="yes"/>
      <point x="339" y="76"/>
      <point x="331" y="86"/>
      <point x="314" y="90" type="curve"/>
      <point x="313" y="90"/>
      <point x="311" y="91"/>
      <point x="308" y="91" type="curve" smooth="yes"/>
      <point x="305" y="91"/>
      <point x="300" y="93"/>
      <point x="293" y="94" type="curve" smooth="yes"/>
      <point x="286" y="95"/>
      <point x="275" y="97"/>
      <point x="263" y="99" type="curve"/>
      <point x="263" y="318" type="line"/>
      <point x="306" y="318" type="line" smooth="yes"/>
      <point x="321" y="318"/>
      <point x="333" y="316"/>
      <point x="341" y="312" type="curve" smooth="yes"/>
      <point x="349" y="308"/>
      <point x="357" y="303"/>
      <point x="364" y="294" type="curve" smooth="yes"/>
      <point x="517" y="94" type="line"/>
      <point x="512" y="93"/>
      <point x="507" y="92"/>
      <point x="503" y="91" type="curve" smooth="yes"/>
      <point x="499" y="90"/>
      <point x="496" y="90"/>
      <point x="495" y="90" type="curve"/>
      <point x="478" y="86"/>
      <point x="470" y="76"/>
      <point x="470" y="59" type="curve" smooth="yes"/>
      <point x="470" y="0" type="line"/>
      <point x="624" y="0" type="line"/>
      <point x="636" y="0" type="line"/>
      <point x="675" y="0" type="line"/>
      <point x="743" y="0" type="line"/>
      <point x="750" y="0" type="line"/>
      <point x="750" y="59" type="line" smooth="yes"/>
      <point x="750" y="76"/>
      <point x="742" y="86"/>
    </contour>
    <contour>
      <point x="401" y="0" type="move" name="bottom"/>
    </contour>
    <contour>
      <point x="401" y="723" type="move" name="top"/>
    </contour>
  </outline>
</glyph>
<glyph name="L" format="1">
  <advance width="586"/>
  <unicode hex="004C"/>
  <note>
    L
  </note>
  <outline>
    <contour>
      <point x="577" y="173" type="line"/>
      <point x="523" y="173" type="line" smooth="yes"/>
      <point x="510" y="173"/>
      <point x="503" y="166"/>
      <point x="500" y="154" type="curve" smooth="yes"/>
      <point x="499" y="150"/>
      <point x="498" y="136"/>
      <point x="496" y="111" type="curve"/>
      <point x="263" y="111" type="line"/>
      <point x="263" y="624" type="line"/>
      <point x="275" y="626"/>
      <point x="286" y="628"/>
      <point x="293" y="629" type="curve" smooth="yes"/>
      <point x="300" y="630"/>
      <point x="305" y="631"/>
      <point x="308" y="632" type="curve" smooth="yes"/>
      <point x="311" y="633"/>
      <point x="313" y="633"/>
      <point x="314" y="633" type="curve"/>
      <point x="331" y="637"/>
      <point x="339" y="647"/>
      <point x="339" y="664" type="curve" smooth="yes"/>
      <point x="339" y="723" type="line"/>
      <point x="263" y="723" type="line"/>
      <point x="129" y="723" type="line"/>
      <point x="53" y="723" type="line"/>
      <point x="53" y="664" type="line" smooth="yes"/>
      <point x="53" y="647"/>
      <point x="61" y="637"/>
      <point x="78" y="633" type="curve"/>
      <point x="79" y="633"/>
      <point x="81" y="633"/>
      <point x="84" y="632" type="curve"/>
      <point x="87" y="632"/>
      <point x="92" y="630"/>
      <point x="99" y="629" type="curve" smooth="yes"/>
      <point x="106" y="628"/>
      <point x="117" y="626"/>
      <point x="129" y="624" type="curve"/>
      <point x="129" y="99" type="line"/>
      <point x="117" y="97"/>
      <point x="106" y="95"/>
      <point x="99" y="94" type="curve" smooth="yes"/>
      <point x="92" y="93"/>
      <point x="87" y="92"/>
      <point x="84" y="91" type="curve" smooth="yes"/>
      <point x="81" y="90"/>
      <point x="79" y="90"/>
      <point x="78" y="90" type="curve"/>
      <point x="61" y="86"/>
      <point x="53" y="76"/>
      <point x="53" y="59" type="curve" smooth="yes"/>
      <point x="53" y="0" type="line"/>
      <point x="129" y="0" type="line"/>
      <point x="550" y="0" type="line"/>
      <point x="553" y="0" type="line"/>
      <point x="577" y="0" type="line"/>
      <point x="577" y="53" type="line"/>
      <point x="577" y="72" type="line"/>
    </contour>
    <contour>
      <point x="316" y="0" type="move" name="bottom"/>
    </contour>
    <contour>
      <point x="316" y="362" type="move" name="center"/>
    </contour>
    <contour>
      <point x="316" y="723" type="move" name="top"/>
    </contour>
    <contour>
      <point x="578" y="723" type="move" name="topright"/>
    </contour>
  </outline>
</glyph>
<glyph name="M" format="1">
  <advance width="1041"/>
  <unicode hex="004D"/>
  <note>
    M
  </note>
  <outline>
    <contour>
      <point x="963" y="633" type="curve"/>
      <point x="980" y="637"/>
      <point x="988" y="647"/>
      <point x="988" y="664" type="curve" smooth="yes"/>
      <point x="988" y="723" type="line"/>
      <point x="913" y="723" type="line"/>
      <point x="811" y="723" type="line" smooth="yes"/>
      <point x="805" y="723"/>
      <point x="800" y="722"/>
      <point x="796" y="722" type="curve" smooth="yes"/>
      <point x="792" y="722"/>
      <point x="788" y="721"/>
      <point x="784" y="720" type="curve" smooth="yes"/>
      <point x="780" y="719"/>
      <point x="777" y="716"/>
      <point x="774" y="713" type="curve" smooth="yes"/>
      <point x="771" y="710"/>
      <point x="769" y="706"/>
      <point x="766" y="701" type="curve"/>
      <point x="552" y="301" type="line" smooth="yes"/>
      <point x="546" y="290"/>
      <point x="541" y="279"/>
      <point x="536" y="267" type="curve" smooth="yes"/>
      <point x="531" y="255"/>
      <point x="527" y="244"/>
      <point x="522" y="232" type="curve"/>
      <point x="517" y="244"/>
      <point x="512" y="256"/>
      <point x="507" y="267" type="curve" smooth="yes"/>
      <point x="502" y="278"/>
      <point x="498" y="289"/>
      <point x="492" y="300" type="curve" smooth="yes"/>
      <point x="276" y="701" type="line"/>
      <point x="273" y="706"/>
      <point x="270" y="710"/>
      <point x="267" y="713" type="curve" smooth="yes"/>
      <point x="264" y="716"/>
      <point x="262" y="719"/>
      <point x="258" y="720" type="curve"/>
      <point x="255" y="721"/>
      <point x="250" y="722"/>
      <point x="246" y="722" type="curve" smooth="yes"/>
      <point x="242" y="722"/>
      <point x="236" y="723"/>
      <point x="230" y="723" type="curve" smooth="yes"/>
      <point x="129" y="723" type="line"/>
      <point x="53" y="723" type="line"/>
      <point x="53" y="664" type="line" smooth="yes"/>
      <point x="53" y="647"/>
      <point x="61" y="637"/>
      <point x="78" y="633" type="curve"/>
      <point x="79" y="633"/>
      <point x="81" y="633"/>
      <point x="84" y="632" type="curve"/>
      <point x="87" y="632"/>
      <point x="92" y="630"/>
      <point x="99" y="629" type="curve" smooth="yes"/>
      <point x="106" y="628"/>
      <point x="117" y="626"/>
      <point x="129" y="624" type="curve"/>
      <point x="129" y="99" type="line"/>
      <point x="117" y="97"/>
      <point x="106" y="95"/>
      <point x="99" y="94" type="curve" smooth="yes"/>
      <point x="92" y="93"/>
      <point x="87" y="92"/>
      <point x="84" y="91" type="curve" smooth="yes"/>
      <point x="81" y="90"/>
      <point x="79" y="90"/>
      <point x="78" y="90" type="curve"/>
      <point x="61" y="86"/>
      <point x="53" y="76"/>
      <point x="53" y="59" type="curve" smooth="yes"/>
      <point x="53" y="0" type="line"/>
      <point x="129" y="0" type="line"/>
      <point x="247" y="0" type="line"/>
      <point x="337" y="0" type="line"/>
      <point x="337" y="59" type="line" smooth="yes"/>
      <point x="337" y="76"/>
      <point x="329" y="86"/>
      <point x="312" y="90" type="curve"/>
      <point x="310" y="90"/>
      <point x="289" y="93"/>
      <point x="247" y="99" type="curve"/>
      <point x="247" y="467" type="line" smooth="yes"/>
      <point x="247" y="476"/>
      <point x="247" y="486"/>
      <point x="246" y="496" type="curve" smooth="yes"/>
      <point x="245" y="506"/>
      <point x="245" y="517"/>
      <point x="244" y="528" type="curve"/>
      <point x="465" y="117" type="line" smooth="yes"/>
      <point x="470" y="108"/>
      <point x="477" y="100"/>
      <point x="485" y="95" type="curve" smooth="yes"/>
      <point x="493" y="90"/>
      <point x="502" y="87"/>
      <point x="513" y="87" type="curve" smooth="yes"/>
      <point x="531" y="87" type="line" smooth="yes"/>
      <point x="542" y="87"/>
      <point x="551" y="90"/>
      <point x="559" y="95" type="curve" smooth="yes"/>
      <point x="567" y="100"/>
      <point x="574" y="108"/>
      <point x="579" y="117" type="curve" smooth="yes"/>
      <point x="797" y="527" type="line"/>
      <point x="796" y="516"/>
      <point x="795" y="505"/>
      <point x="795" y="495" type="curve" smooth="yes"/>
      <point x="795" y="485"/>
      <point x="794" y="476"/>
      <point x="794" y="467" type="curve" smooth="yes"/>
      <point x="794" y="99" type="line"/>
      <point x="753" y="93"/>
      <point x="731" y="90"/>
      <point x="729" y="90" type="curve"/>
      <point x="712" y="86"/>
      <point x="704" y="76"/>
      <point x="704" y="59" type="curve" smooth="yes"/>
      <point x="704" y="0" type="line"/>
      <point x="794" y="0" type="line"/>
      <point x="913" y="0" type="line"/>
      <point x="988" y="0" type="line"/>
      <point x="988" y="59" type="line" smooth="yes"/>
      <point x="988" y="76"/>
      <point x="980" y="86"/>
      <point x="963" y="90" type="curve"/>
      <point x="962" y="90"/>
      <point x="960" y="91"/>
      <point x="957" y="91" type="curve" smooth="yes"/>
      <point x="954" y="91"/>
      <point x="949" y="93"/>
      <point x="942" y="94" type="curve" smooth="yes"/>
      <point x="935" y="95"/>
      <point x="925" y="97"/>
      <point x="913" y="99" type="curve"/>
      <point x="913" y="624" type="line"/>
      <point x="925" y="626"/>
      <point x="935" y="628"/>
      <point x="942" y="629" type="curve" smooth="yes"/>
      <point x="949" y="630"/>
      <point x="954" y="632"/>
      <point x="957" y="632" type="curve" smooth="yes"/>
      <point x="960" y="632"/>
      <point x="962" y="633"/>
    </contour>
    <contour>
      <point x="521" y="0" type="move" name="bottom"/>
    </contour>
    <contour>
      <point x="521" y="723" type="move" name="top"/>
    </contour>
  </outline>
</glyph>
<glyph name="N" format="1">
  <advance width="842"/>
  <unicode hex="004E"/>
  <note>
    N
  </note>
  <outline>
    <contour>
      <point x="814" y="723" type="line"/>
      <point x="739" y="723" type="line"/>
      <point x="620" y="723" type="line"/>
      <point x="530" y="723" type="line"/>
      <point x="530" y="664" type="line" smooth="yes"/>
      <point x="530" y="647"/>
      <point x="538" y="637"/>
      <point x="555" y="633" type="curve"/>
      <point x="557" y="633"/>
      <point x="578" y="630"/>
      <point x="620" y="624" type="curve"/>
      <point x="620" y="284" type="line" smooth="yes"/>
      <point x="620" y="274"/>
      <point x="620" y="263"/>
      <point x="621" y="252" type="curve" smooth="yes"/>
      <point x="622" y="241"/>
      <point x="623" y="230"/>
      <point x="624" y="218" type="curve"/>
      <point x="244" y="701" type="line" smooth="yes"/>
      <point x="240" y="706"/>
      <point x="237" y="710"/>
      <point x="234" y="713" type="curve" smooth="yes"/>
      <point x="231" y="716"/>
      <point x="228" y="718"/>
      <point x="225" y="719" type="curve"/>
      <point x="222" y="721"/>
      <point x="218" y="722"/>
      <point x="214" y="722" type="curve" smooth="yes"/>
      <point x="210" y="722"/>
      <point x="205" y="723"/>
      <point x="199" y="723" type="curve" smooth="yes"/>
      <point x="129" y="723" type="line"/>
      <point x="53" y="723" type="line"/>
      <point x="53" y="664" type="line" smooth="yes"/>
      <point x="53" y="647"/>
      <point x="61" y="637"/>
      <point x="78" y="633" type="curve"/>
      <point x="79" y="633"/>
      <point x="81" y="632"/>
      <point x="84" y="632" type="curve" smooth="yes"/>
      <point x="87" y="632"/>
      <point x="92" y="630"/>
      <point x="99" y="629" type="curve" smooth="yes"/>
      <point x="106" y="628"/>
      <point x="117" y="626"/>
      <point x="129" y="624" type="curve"/>
      <point x="129" y="99" type="line"/>
      <point x="117" y="97"/>
      <point x="106" y="95"/>
      <point x="99" y="94" type="curve" smooth="yes"/>
      <point x="92" y="93"/>
      <point x="87" y="92"/>
      <point x="84" y="91" type="curve" smooth="yes"/>
      <point x="81" y="90"/>
      <point x="79" y="90"/>
      <point x="78" y="90" type="curve"/>
      <point x="61" y="86"/>
      <point x="53" y="76"/>
      <point x="53" y="59" type="curve" smooth="yes"/>
      <point x="53" y="0" type="line"/>
      <point x="129" y="0" type="line"/>
      <point x="247" y="0" type="line"/>
      <point x="337" y="0" type="line"/>
      <point x="337" y="59" type="line" smooth="yes"/>
      <point x="337" y="76"/>
      <point x="329" y="86"/>
      <point x="312" y="90" type="curve"/>
      <point x="310" y="90"/>
      <point x="289" y="93"/>
      <point x="247" y="99" type="curve"/>
      <point x="247" y="444" type="line" smooth="yes"/>
      <point x="247" y="453"/>
      <point x="246" y="463"/>
      <point x="246" y="473" type="curve" smooth="yes"/>
      <point x="246" y="483"/>
      <point x="245" y="493"/>
      <point x="244" y="504" type="curve"/>
      <point x="622" y="23" type="line" smooth="yes"/>
      <point x="629" y="14"/>
      <point x="636" y="8"/>
      <point x="643" y="5" type="curve" smooth="yes"/>
      <point x="650" y="2"/>
      <point x="658" y="0"/>
      <point x="669" y="0" type="curve" smooth="yes"/>
      <point x="739" y="0" type="line"/>
      <point x="739" y="624" type="line"/>
      <point x="751" y="626"/>
      <point x="761" y="628"/>
      <point x="768" y="629" type="curve" smooth="yes"/>
      <point x="775" y="630"/>
      <point x="780" y="632"/>
      <point x="783" y="632" type="curve" smooth="yes"/>
      <point x="786" y="632"/>
      <point x="788" y="633"/>
      <point x="789" y="633" type="curve"/>
      <point x="806" y="637"/>
      <point x="814" y="647"/>
      <point x="814" y="664" type="curve" smooth="yes"/>
    </contour>
    <contour>
      <point x="431" y="0" type="move" name="bottom"/>
    </contour>
    <contour>
      <point x="431" y="723" type="move" name="top"/>
    </contour>
  </outline>
</glyph>
<glyph name="O" format="1">
  <advance width="803"/>
  <unicode hex="004F"/>
  <note>
    O
  </note>
  <outline>
    <contour>
      <point x="768" y="362" type="curve" smooth="yes"/>
      <point x="768" y="415"/>
      <point x="759" y="464"/>
      <point x="741" y="509" type="curve" smooth="yes"/>
      <point x="723" y="554"/>
      <point x="699" y="593"/>
      <point x="667" y="626" type="curve" smooth="yes"/>
      <point x="635" y="659"/>
      <point x="596" y="684"/>
      <point x="551" y="703" type="curve" smooth="yes"/>
      <point x="506" y="722"/>
      <point x="457" y="731"/>
      <point x="402" y="731" type="curve" smooth="yes"/>
      <point x="347" y="731"/>
      <point x="297" y="721"/>
      <point x="252" y="703" type="curve" smooth="yes"/>
      <point x="207" y="685"/>
      <point x="168" y="659"/>
      <point x="136" y="626" type="curve" smooth="yes"/>
      <point x="104" y="593"/>
      <point x="79" y="554"/>
      <point x="61" y="509" type="curve" smooth="yes"/>
      <point x="43" y="464"/>
      <point x="35" y="415"/>
      <point x="35" y="362" type="curve" smooth="yes"/>
      <point x="35" y="309"/>
      <point x="43" y="259"/>
      <point x="61" y="214" type="curve" smooth="yes"/>
      <point x="79" y="169"/>
      <point x="104" y="130"/>
      <point x="136" y="97" type="curve" smooth="yes"/>
      <point x="168" y="64"/>
      <point x="207" y="38"/>
      <point x="252" y="20" type="curve" smooth="yes"/>
      <point x="297" y="2"/>
      <point x="347" y="-8"/>
      <point x="402" y="-8" type="curve" smooth="yes"/>
      <point x="457" y="-8"/>
      <point x="506" y="2"/>
      <point x="551" y="20" type="curve" smooth="yes"/>
      <point x="596" y="38"/>
      <point x="635" y="64"/>
      <point x="667" y="97" type="curve" smooth="yes"/>
      <point x="699" y="130"/>
      <point x="723" y="169"/>
      <point x="741" y="214" type="curve" smooth="yes"/>
      <point x="759" y="259"/>
      <point x="768" y="309"/>
    </contour>
    <contour>
      <point x="630" y="362" type="curve" smooth="yes"/>
      <point x="630" y="322"/>
      <point x="624" y="287"/>
      <point x="614" y="255" type="curve" smooth="yes"/>
      <point x="604" y="223"/>
      <point x="589" y="197"/>
      <point x="569" y="175" type="curve" smooth="yes"/>
      <point x="549" y="153"/>
      <point x="525" y="136"/>
      <point x="497" y="124" type="curve" smooth="yes"/>
      <point x="469" y="112"/>
      <point x="437" y="107"/>
      <point x="402" y="107" type="curve" smooth="yes"/>
      <point x="367" y="107"/>
      <point x="334" y="112"/>
      <point x="306" y="124" type="curve" smooth="yes"/>
      <point x="278" y="136"/>
      <point x="254" y="153"/>
      <point x="234" y="175" type="curve" smooth="yes"/>
      <point x="214" y="197"/>
      <point x="199" y="223"/>
      <point x="188" y="255" type="curve" smooth="yes"/>
      <point x="177" y="287"/>
      <point x="172" y="322"/>
      <point x="172" y="362" type="curve" smooth="yes"/>
      <point x="172" y="402"/>
      <point x="177" y="436"/>
      <point x="188" y="468" type="curve" smooth="yes"/>
      <point x="199" y="500"/>
      <point x="214" y="526"/>
      <point x="234" y="548" type="curve" smooth="yes"/>
      <point x="254" y="570"/>
      <point x="278" y="587"/>
      <point x="306" y="599" type="curve" smooth="yes"/>
      <point x="334" y="611"/>
      <point x="367" y="616"/>
      <point x="402" y="616" type="curve" smooth="yes"/>
      <point x="437" y="616"/>
      <point x="469" y="611"/>
      <point x="497" y="599" type="curve" smooth="yes"/>
      <point x="525" y="587"/>
      <point x="549" y="570"/>
      <point x="569" y="548" type="curve" smooth="yes"/>
      <point x="589" y="526"/>
      <point x="604" y="500"/>
      <point x="614" y="468" type="curve" smooth="yes"/>
      <point x="624" y="436"/>
      <point x="630" y="402"/>
    </contour>
    <contour>
      <point x="402" y="0" type="move" name="bottom"/>
    </contour>
    <contour>
      <point x="402" y="362" type="move" name="center"/>
    </contour>
    <contour>
      <point x="707" y="10" type="move" name="ogonek"/>
    </contour>
    <contour>
      <point x="402" y="723" type="move" name="top"/>
    </contour>
    <contour>
      <point x="41" y="723" type="move" name="topleft"/>
    </contour>
    <contour>
      <point x="763" y="723" type="move" name="topright"/>
    </contour>
  </outline>
</glyph>
<glyph name="P" format="1">
  <advance width="652"/>
  <unicode hex="0050"/>
  <note>
    P
  </note>
  <outline>
    <contour>
      <point x="616" y="586" type="curve" smooth="yes"/>
      <point x="605" y="614"/>
      <point x="588" y="638"/>
      <point x="565" y="658" type="curve" smooth="yes"/>
      <point x="542" y="678"/>
      <point x="513" y="695"/>
      <point x="478" y="706" type="curve" smooth="yes"/>
      <point x="443" y="717"/>
      <point x="400" y="723"/>
      <point x="352" y="723" type="curve" smooth="yes"/>
      <point x="129" y="723" type="line"/>
      <point x="53" y="723" type="line"/>
      <point x="53" y="664" type="line" smooth="yes"/>
      <point x="53" y="647"/>
      <point x="61" y="637"/>
      <point x="78" y="633" type="curve"/>
      <point x="79" y="633"/>
      <point x="81" y="633"/>
      <point x="84" y="632" type="curve"/>
      <point x="87" y="632"/>
      <point x="92" y="630"/>
      <point x="99" y="629" type="curve" smooth="yes"/>
      <point x="106" y="628"/>
      <point x="117" y="626"/>
      <point x="129" y="624" type="curve"/>
      <point x="129" y="99" type="line"/>
      <point x="117" y="97"/>
      <point x="106" y="95"/>
      <point x="99" y="94" type="curve" smooth="yes"/>
      <point x="92" y="93"/>
      <point x="87" y="92"/>
      <point x="84" y="91" type="curve"/>
      <point x="81" y="91"/>
      <point x="79" y="90"/>
      <point x="78" y="90" type="curve"/>
      <point x="61" y="86"/>
      <point x="53" y="76"/>
      <point x="53" y="59" type="curve" smooth="yes"/>
      <point x="53" y="0" type="line"/>
      <point x="129" y="0" type="line"/>
      <point x="263" y="0" type="line"/>
      <point x="339" y="0" type="line"/>
      <point x="339" y="59" type="line" smooth="yes"/>
      <point x="339" y="76"/>
      <point x="331" y="86"/>
      <point x="314" y="90" type="curve"/>
      <point x="313" y="90"/>
      <point x="311" y="91"/>
      <point x="308" y="91" type="curve" smooth="yes"/>
      <point x="305" y="91"/>
      <point x="300" y="93"/>
      <point x="293" y="94" type="curve" smooth="yes"/>
      <point x="286" y="95"/>
      <point x="275" y="97"/>
      <point x="263" y="99" type="curve"/>
      <point x="263" y="255" type="line"/>
      <point x="352" y="255" type="line" smooth="yes"/>
      <point x="399" y="255"/>
      <point x="440" y="260"/>
      <point x="475" y="272" type="curve" smooth="yes"/>
      <point x="510" y="284"/>
      <point x="540" y="300"/>
      <point x="563" y="321" type="curve" smooth="yes"/>
      <point x="586" y="342"/>
      <point x="603" y="367"/>
      <point x="615" y="396" type="curve" smooth="yes"/>
      <point x="627" y="425"/>
      <point x="633" y="458"/>
      <point x="633" y="493" type="curve" smooth="yes"/>
      <point x="633" y="527"/>
      <point x="627" y="558"/>
    </contour>
    <contour>
      <point x="489" y="437" type="curve" smooth="yes"/>
      <point x="483" y="420"/>
      <point x="474" y="406"/>
      <point x="462" y="395" type="curve"/>
      <point x="450" y="383"/>
      <point x="435" y="375"/>
      <point x="417" y="369" type="curve" smooth="yes"/>
      <point x="399" y="363"/>
      <point x="377" y="360"/>
      <point x="352" y="360" type="curve" smooth="yes"/>
      <point x="263" y="360" type="line"/>
      <point x="263" y="619" type="line"/>
      <point x="352" y="619" type="line" smooth="yes"/>
      <point x="377" y="619"/>
      <point x="399" y="616"/>
      <point x="417" y="610" type="curve" smooth="yes"/>
      <point x="435" y="604"/>
      <point x="450" y="596"/>
      <point x="462" y="585" type="curve" smooth="yes"/>
      <point x="474" y="574"/>
      <point x="483" y="561"/>
      <point x="489" y="545" type="curve" smooth="yes"/>
      <point x="495" y="529"/>
      <point x="498" y="512"/>
      <point x="498" y="493" type="curve" smooth="yes"/>
      <point x="498" y="473"/>
      <point x="495" y="453"/>
    </contour>
    <contour>
      <point x="341" y="0" type="move" name="bottom"/>
    </contour>
    <contour>
      <point x="341" y="723" type="move" name="top"/>
    </contour>
  </outline>
</glyph>
<glyph name="Q" format="1">
  <advance width="809"/>
  <unicode hex="0051"/>
  <note>
    Q
  </note>
  <outline>
    <contour>
      <point x="768" y="362" type="curve" smooth="yes"/>
      <point x="768" y="415"/>
      <point x="759" y="464"/>
      <point x="741" y="509" type="curve" smooth="yes"/>
      <point x="723" y="554"/>
      <point x="699" y="593"/>
      <point x="667" y="626" type="curve" smooth="yes"/>
      <point x="635" y="659"/>
      <point x="596" y="684"/>
      <point x="551" y="703" type="curve" smooth="yes"/>
      <point x="506" y="722"/>
      <point x="457" y="731"/>
      <point x="402" y="731" type="curve" smooth="yes"/>
      <point x="347" y="731"/>
      <point x="297" y="721"/>
      <point x="252" y="703" type="curve" smooth="yes"/>
      <point x="207" y="685"/>
      <point x="168" y="659"/>
      <point x="136" y="626" type="curve" smooth="yes"/>
      <point x="104" y="593"/>
      <point x="79" y="554"/>
      <point x="61" y="509" type="curve" smooth="yes"/>
      <point x="43" y="464"/>
      <point x="35" y="415"/>
      <point x="35" y="362" type="curve" smooth="yes"/>
      <point x="35" y="309"/>
      <point x="43" y="259"/>
      <point x="61" y="214" type="curve" smooth="yes"/>
      <point x="79" y="169"/>
      <point x="104" y="130"/>
      <point x="136" y="97" type="curve" smooth="yes"/>
      <point x="168" y="64"/>
      <point x="207" y="38"/>
      <point x="252" y="20" type="curve" smooth="yes"/>
      <point x="297" y="2"/>
      <point x="347" y="-8"/>
      <point x="402" y="-8" type="curve" smooth="yes"/>
      <point x="421" y="-8"/>
      <point x="440" y="-6"/>
      <point x="458" y="-4" type="curve" smooth="yes"/>
      <point x="476" y="-2"/>
      <point x="493" y="1"/>
      <point x="510" y="6" type="curve"/>
      <point x="616" y="-111" type="line" smooth="yes"/>
      <point x="627" y="-123"/>
      <point x="638" y="-131"/>
      <point x="651" y="-135" type="curve" smooth="yes"/>
      <point x="664" y="-139"/>
      <point x="679" y="-142"/>
      <point x="695" y="-142" type="curve" smooth="yes"/>
      <point x="805" y="-142" type="line"/>
      <point x="622" y="58" type="line"/>
      <point x="645" y="74"/>
      <point x="665" y="93"/>
      <point x="683" y="115" type="curve" smooth="yes"/>
      <point x="701" y="137"/>
      <point x="717" y="160"/>
      <point x="729" y="186" type="curve" smooth="yes"/>
      <point x="741" y="212"/>
      <point x="751" y="239"/>
      <point x="758" y="269" type="curve" smooth="yes"/>
      <point x="765" y="299"/>
      <point x="768" y="330"/>
    </contour>
    <contour>
      <point x="630" y="362" type="curve" smooth="yes"/>
      <point x="630" y="322"/>
      <point x="624" y="287"/>
      <point x="614" y="255" type="curve" smooth="yes"/>
      <point x="604" y="223"/>
      <point x="589" y="197"/>
      <point x="569" y="175" type="curve" smooth="yes"/>
      <point x="549" y="153"/>
      <point x="525" y="136"/>
      <point x="497" y="124" type="curve" smooth="yes"/>
      <point x="469" y="112"/>
      <point x="437" y="107"/>
      <point x="402" y="107" type="curve" smooth="yes"/>
      <point x="367" y="107"/>
      <point x="335" y="112"/>
      <point x="307" y="124" type="curve" smooth="yes"/>
      <point x="279" y="136"/>
      <point x="254" y="153"/>
      <point x="234" y="175" type="curve" smooth="yes"/>
      <point x="214" y="197"/>
      <point x="199" y="223"/>
      <point x="188" y="255" type="curve" smooth="yes"/>
      <point x="177" y="287"/>
      <point x="172" y="322"/>
      <point x="172" y="362" type="curve" smooth="yes"/>
      <point x="172" y="402"/>
      <point x="177" y="436"/>
      <point x="188" y="468" type="curve" smooth="yes"/>
      <point x="199" y="500"/>
      <point x="214" y="526"/>
      <point x="234" y="548" type="curve" smooth="yes"/>
      <point x="254" y="570"/>
      <point x="279" y="587"/>
      <point x="307" y="599" type="curve" smooth="yes"/>
      <point x="335" y="611"/>
      <point x="367" y="616"/>
      <point x="402" y="616" type="curve" smooth="yes"/>
      <point x="437" y="616"/>
      <point x="469" y="611"/>
      <point x="497" y="599" type="curve" smooth="yes"/>
      <point x="525" y="587"/>
      <point x="549" y="570"/>
      <point x="569" y="548" type="curve" smooth="yes"/>
      <point x="589" y="526"/>
      <point x="604" y="500"/>
      <point x="614" y="468" type="curve" smooth="yes"/>
      <point x="624" y="436"/>
      <point x="630" y="402"/>
    </contour>
    <contour>
      <point x="419" y="0" type="move" name="bottom"/>
    </contour>
    <contour>
      <point x="419" y="723" type="move" name="top"/>
    </contour>
  </outline>
</glyph>
<glyph name="R" format="1">
  <advance width="701"/>
  <unicode hex="0052"/>
  <note>
    R
  </note>
  <outline>
    <contour>
      <point x="675" y="90" type="curve"/>
      <point x="674" y="90"/>
      <point x="671" y="91"/>
      <point x="667" y="91" type="curve" smooth="yes"/>
      <point x="663" y="91"/>
      <point x="658" y="93"/>
      <point x="650" y="94" type="curve" smooth="yes"/>
      <point x="642" y="95"/>
      <point x="631" y="97"/>
      <point x="619" y="99" type="curve"/>
      <point x="505" y="267" type="line" smooth="yes"/>
      <point x="493" y="285"/>
      <point x="478" y="299"/>
      <point x="461" y="309" type="curve"/>
      <point x="486" y="317"/>
      <point x="509" y="328"/>
      <point x="529" y="341" type="curve" smooth="yes"/>
      <point x="549" y="354"/>
      <point x="566" y="369"/>
      <point x="579" y="387" type="curve" smooth="yes"/>
      <point x="592" y="405"/>
      <point x="603" y="424"/>
      <point x="610" y="446" type="curve" smooth="yes"/>
      <point x="617" y="468"/>
      <point x="621" y="491"/>
      <point x="621" y="515" type="curve" smooth="yes"/>
      <point x="621" y="546"/>
      <point x="616" y="573"/>
      <point x="605" y="599" type="curve" smooth="yes"/>
      <point x="595" y="624"/>
      <point x="577" y="647"/>
      <point x="555" y="665" type="curve" smooth="yes"/>
      <point x="533" y="683"/>
      <point x="504" y="698"/>
      <point x="469" y="708" type="curve" smooth="yes"/>
      <point x="434" y="718"/>
      <point x="391" y="723"/>
      <point x="342" y="723" type="curve" smooth="yes"/>
      <point x="129" y="723" type="line"/>
      <point x="53" y="723" type="line"/>
      <point x="53" y="664" type="line" smooth="yes"/>
      <point x="53" y="647"/>
      <point x="61" y="637"/>
      <point x="78" y="633" type="curve"/>
      <point x="79" y="633"/>
      <point x="81" y="632"/>
      <point x="84" y="632" type="curve" smooth="yes"/>
      <point x="87" y="632"/>
      <point x="92" y="630"/>
      <point x="99" y="629" type="curve" smooth="yes"/>
      <point x="106" y="628"/>
      <point x="117" y="626"/>
      <point x="129" y="624" type="curve"/>
      <point x="129" y="99" type="line"/>
      <point x="117" y="97"/>
      <point x="106" y="95"/>
      <point x="99" y="94" type="curve" smooth="yes"/>
      <point x="92" y="93"/>
      <point x="87" y="92"/>
      <point x="84" y="91" type="curve"/>
      <point x="81" y="91"/>
      <point x="79" y="90"/>
      <point x="78" y="90" type="curve"/>
      <point x="61" y="86"/>
      <point x="53" y="76"/>
      <point x="53" y="59" type="curve" smooth="yes"/>
      <point x="53" y="0" type="line"/>
      <point x="129" y="0" type="line"/>
      <point x="263" y="0" type="line"/>
      <point x="339" y="0" type="line"/>
      <point x="339" y="59" type="line" smooth="yes"/>
      <point x="339" y="76"/>
      <point x="331" y="86"/>
      <point x="314" y="90" type="curve"/>
      <point x="313" y="90"/>
      <point x="311" y="91"/>
      <point x="308" y="91" type="curve" smooth="yes"/>
      <point x="305" y="91"/>
      <point x="300" y="93"/>
      <point x="293" y="94" type="curve" smooth="yes"/>
      <point x="286" y="95"/>
      <point x="275" y="97"/>
      <point x="263" y="99" type="curve"/>
      <point x="263" y="283" type="line"/>
      <point x="314" y="283" type="line" smooth="yes"/>
      <point x="327" y="283"/>
      <point x="337" y="281"/>
      <point x="344" y="277" type="curve" smooth="yes"/>
      <point x="351" y="273"/>
      <point x="357" y="268"/>
      <point x="363" y="259" type="curve" smooth="yes"/>
      <point x="515" y="27" type="line" smooth="yes"/>
      <point x="521" y="18"/>
      <point x="527" y="12"/>
      <point x="535" y="7" type="curve" smooth="yes"/>
      <point x="543" y="2"/>
      <point x="553" y="0"/>
      <point x="565" y="0" type="curve" smooth="yes"/>
      <point x="624" y="0" type="line"/>
      <point x="686" y="0" type="line"/>
      <point x="700" y="0" type="line"/>
      <point x="700" y="59" type="line" smooth="yes"/>
      <point x="700" y="76"/>
      <point x="692" y="86"/>
    </contour>
    <contour>
      <point x="406" y="389" type="curve" smooth="yes"/>
      <point x="387" y="383"/>
      <point x="365" y="379"/>
      <point x="340" y="379" type="curve" smooth="yes"/>
      <point x="263" y="379" type="line"/>
      <point x="263" y="619" type="line"/>
      <point x="342" y="619" type="line" smooth="yes"/>
      <point x="392" y="619"/>
      <point x="429" y="610"/>
      <point x="453" y="590" type="curve" smooth="yes"/>
      <point x="477" y="570"/>
      <point x="489" y="542"/>
      <point x="489" y="505" type="curve" smooth="yes"/>
      <point x="489" y="487"/>
      <point x="486" y="470"/>
      <point x="480" y="455" type="curve" smooth="yes"/>
      <point x="474" y="440"/>
      <point x="465" y="426"/>
      <point x="453" y="415" type="curve" smooth="yes"/>
      <point x="441" y="404"/>
      <point x="425" y="395"/>
    </contour>
    <contour>
      <point x="376" y="0" type="move" name="bottom"/>
    </contour>
    <contour>
      <point x="376" y="723" type="move" name="top"/>
    </contour>
  </outline>
</glyph>
<glyph name="S" format="1">
  <advance width="557"/>
  <unicode hex="0053"/>
  <note>
    S
  </note>
  <outline>
    <contour>
      <point x="503" y="303" type="curve"/>
      <point x="494" y="324"/>
      <point x="481" y="341"/>
      <point x="465" y="356" type="curve" smooth="yes"/>
      <point x="449" y="371"/>
      <point x="431" y="383"/>
      <point x="411" y="392" type="curve" smooth="yes"/>
      <point x="391" y="401"/>
      <point x="371" y="410"/>
      <point x="350" y="417" type="curve" smooth="yes"/>
      <point x="329" y="424"/>
      <point x="309" y="431"/>
      <point x="289" y="437" type="curve" smooth="yes"/>
      <point x="269" y="443"/>
      <point x="251" y="451"/>
      <point x="235" y="459" type="curve" smooth="yes"/>
      <point x="219" y="467"/>
      <point x="207" y="477"/>
      <point x="198" y="488" type="curve" smooth="yes"/>
      <point x="189" y="499"/>
      <point x="183" y="513"/>
      <point x="183" y="530" type="curve" smooth="yes"/>
      <point x="183" y="543"/>
      <point x="185" y="556"/>
      <point x="190" y="567" type="curve" smooth="yes"/>
      <point x="195" y="578"/>
      <point x="203" y="588"/>
      <point x="212" y="596" type="curve" smooth="yes"/>
      <point x="221" y="604"/>
      <point x="233" y="610"/>
      <point x="247" y="615" type="curve"/>
      <point x="261" y="619"/>
      <point x="276" y="621"/>
      <point x="295" y="621" type="curve" smooth="yes"/>
      <point x="347" y="621"/>
      <point x="387" y="616"/>
      <point x="412" y="605" type="curve"/>
      <point x="416" y="560"/>
      <point x="419" y="533"/>
      <point x="421" y="524" type="curve" smooth="yes"/>
      <point x="424" y="512"/>
      <point x="431" y="505"/>
      <point x="444" y="505" type="curve" smooth="yes"/>
      <point x="485" y="505" type="line"/>
      <point x="497" y="505" type="line"/>
      <point x="501" y="505" type="line"/>
      <point x="501" y="690" type="line"/>
      <point x="434" y="717"/>
      <point x="365" y="731"/>
      <point x="294" y="731" type="curve" smooth="yes"/>
      <point x="256" y="731"/>
      <point x="222" y="725"/>
      <point x="193" y="713" type="curve" smooth="yes"/>
      <point x="164" y="701"/>
      <point x="139" y="686"/>
      <point x="119" y="667" type="curve" smooth="yes"/>
      <point x="99" y="648"/>
      <point x="83" y="625"/>
      <point x="73" y="600" type="curve" smooth="yes"/>
      <point x="62" y="575"/>
      <point x="57" y="549"/>
      <point x="57" y="523" type="curve" smooth="yes"/>
      <point x="57" y="490"/>
      <point x="63" y="462"/>
      <point x="72" y="440" type="curve" smooth="yes"/>
      <point x="81" y="417"/>
      <point x="93" y="399"/>
      <point x="109" y="384" type="curve" smooth="yes"/>
      <point x="125" y="369"/>
      <point x="143" y="356"/>
      <point x="163" y="347" type="curve" smooth="yes"/>
      <point x="183" y="338"/>
      <point x="203" y="330"/>
      <point x="224" y="323" type="curve" smooth="yes"/>
      <point x="244" y="316"/>
      <point x="265" y="311"/>
      <point x="285" y="305" type="curve" smooth="yes"/>
      <point x="305" y="299"/>
      <point x="322" y="292"/>
      <point x="338" y="284" type="curve" smooth="yes"/>
      <point x="354" y="276"/>
      <point x="367" y="266"/>
      <point x="376" y="254" type="curve" smooth="yes"/>
      <point x="385" y="242"/>
      <point x="390" y="226"/>
      <point x="390" y="207" type="curve" smooth="yes"/>
      <point x="390" y="173"/>
      <point x="380" y="147"/>
      <point x="359" y="129" type="curve" smooth="yes"/>
      <point x="338" y="111"/>
      <point x="308" y="102"/>
      <point x="270" y="102" type="curve" smooth="yes"/>
      <point x="208" y="102"/>
      <point x="162" y="106"/>
      <point x="133" y="115" type="curve"/>
      <point x="129" y="161"/>
      <point x="126" y="189"/>
      <point x="124" y="198" type="curve" smooth="yes"/>
      <point x="121" y="210"/>
      <point x="114" y="216"/>
      <point x="101" y="216" type="curve" smooth="yes"/>
      <point x="60" y="216" type="line"/>
      <point x="48" y="216" type="line"/>
      <point x="44" y="216" type="line"/>
      <point x="44" y="48" type="line"/>
      <point x="44" y="30" type="line"/>
      <point x="118" y="5"/>
      <point x="187" y="-8"/>
      <point x="251" y="-8" type="curve" smooth="yes"/>
      <point x="266" y="-8" type="line" smooth="yes"/>
      <point x="306" y="-8"/>
      <point x="341" y="-2"/>
      <point x="372" y="10" type="curve" smooth="yes"/>
      <point x="403" y="22"/>
      <point x="430" y="39"/>
      <point x="451" y="60" type="curve" smooth="yes"/>
      <point x="473" y="81"/>
      <point x="489" y="106"/>
      <point x="500" y="135" type="curve" smooth="yes"/>
      <point x="511" y="164"/>
      <point x="517" y="193"/>
      <point x="517" y="226" type="curve" smooth="yes"/>
      <point x="517" y="256"/>
      <point x="513" y="282"/>
    </contour>
    <contour>
      <point x="279" y="0" type="move" name="bottom"/>
    </contour>
    <contour>
      <point x="279" y="723" type="move" name="top"/>
    </contour>
  </outline>
</glyph>
<glyph name="T" format="1">
  <advance width="625"/>
  <unicode hex="0054"/>
  <note>
    T
  </note>
  <outline>
    <contour>
      <point x="613" y="723" type="line"/>
      <point x="597" y="723" type="line"/>
      <point x="597" y="723" type="line"/>
      <point x="28" y="723" type="line"/>
      <point x="27" y="723" type="line"/>
      <point x="12" y="723" type="line"/>
      <point x="12" y="552" type="line"/>
      <point x="16" y="552" type="line"/>
      <point x="28" y="552" type="line"/>
      <point x="70" y="552" type="line" smooth="yes"/>
      <point x="83" y="552"/>
      <point x="90" y="559"/>
      <point x="93" y="571" type="curve"/>
      <point x="94" y="577"/>
      <point x="96" y="591"/>
      <point x="98" y="613" type="curve"/>
      <point x="245" y="613" type="line"/>
      <point x="245" y="99" type="line"/>
      <point x="233" y="97"/>
      <point x="223" y="95"/>
      <point x="216" y="94" type="curve" smooth="yes"/>
      <point x="209" y="93"/>
      <point x="204" y="91"/>
      <point x="201" y="91" type="curve" smooth="yes"/>
      <point x="198" y="91"/>
      <point x="196" y="90"/>
      <point x="195" y="90" type="curve"/>
      <point x="178" y="86"/>
      <point x="170" y="76"/>
      <point x="170" y="59" type="curve" smooth="yes"/>
      <point x="170" y="0" type="line"/>
      <point x="245" y="0" type="line"/>
      <point x="380" y="0" type="line"/>
      <point x="456" y="0" type="line"/>
      <point x="456" y="59" type="line" smooth="yes"/>
      <point x="456" y="76"/>
      <point x="447" y="86"/>
      <point x="430" y="90" type="curve"/>
      <point x="429" y="90"/>
      <point x="427" y="91"/>
      <point x="424" y="91" type="curve" smooth="yes"/>
      <point x="421" y="91"/>
      <point x="416" y="93"/>
      <point x="409" y="94" type="curve" smooth="yes"/>
      <point x="402" y="95"/>
      <point x="392" y="97"/>
      <point x="380" y="99" type="curve"/>
      <point x="380" y="612" type="line"/>
      <point x="527" y="612" type="line"/>
      <point x="529" y="590"/>
      <point x="531" y="577"/>
      <point x="532" y="571" type="curve"/>
      <point x="535" y="559"/>
      <point x="543" y="552"/>
      <point x="556" y="552" type="curve" smooth="yes"/>
      <point x="597" y="552" type="line"/>
      <point x="609" y="552" type="line"/>
      <point x="613" y="552" type="line"/>
    </contour>
    <contour>
      <point x="313" y="0" type="move" name="bottom"/>
    </contour>
    <contour>
      <point x="313" y="362" type="move" name="center"/>
    </contour>
    <contour>
      <point x="313" y="723" type="move" name="top"/>
    </contour>
  </outline>
</glyph>
<glyph name="V" format="1">
  <advance width="776"/>
  <unicode hex="0056"/>
  <note>
    V
  </note>
  <outline>
    <contour>
      <point x="775" y="723" type="line"/>
      <point x="741" y="723" type="line"/>
      <point x="700" y="723" type="line"/>
      <point x="633" y="723" type="line"/>
      <point x="505" y="723" type="line"/>
      <point x="505" y="664" type="line" smooth="yes"/>
      <point x="505" y="647"/>
      <point x="513" y="637"/>
      <point x="530" y="633" type="curve"/>
      <point x="531" y="633"/>
      <point x="533" y="633"/>
      <point x="535" y="632" type="curve" smooth="yes"/>
      <point x="537" y="631"/>
      <point x="541" y="630"/>
      <point x="546" y="629" type="curve" smooth="yes"/>
      <point x="551" y="628"/>
      <point x="556" y="626"/>
      <point x="562" y="625" type="curve"/>
      <point x="419" y="251" type="line" smooth="yes"/>
      <point x="408" y="222"/>
      <point x="398" y="188"/>
      <point x="390" y="150" type="curve"/>
      <point x="385" y="169"/>
      <point x="380" y="187"/>
      <point x="375" y="204" type="curve" smooth="yes"/>
      <point x="370" y="221"/>
      <point x="365" y="237"/>
      <point x="359" y="251" type="curve"/>
      <point x="215" y="625" type="line"/>
      <point x="221" y="626"/>
      <point x="226" y="628"/>
      <point x="231" y="629" type="curve" smooth="yes"/>
      <point x="236" y="630"/>
      <point x="239" y="631"/>
      <point x="241" y="632" type="curve" smooth="yes"/>
      <point x="243" y="633"/>
      <point x="245" y="633"/>
      <point x="246" y="633" type="curve"/>
      <point x="263" y="637"/>
      <point x="271" y="647"/>
      <point x="271" y="664" type="curve" smooth="yes"/>
      <point x="271" y="723" type="line"/>
      <point x="144" y="723" type="line"/>
      <point x="77" y="723" type="line"/>
      <point x="36" y="723" type="line"/>
      <point x="1" y="723" type="line"/>
      <point x="1" y="664" type="line" smooth="yes"/>
      <point x="1" y="647"/>
      <point x="9" y="637"/>
      <point x="26" y="633" type="curve"/>
      <point x="28" y="633"/>
      <point x="29" y="633"/>
      <point x="32" y="632" type="curve"/>
      <point x="35" y="632"/>
      <point x="40" y="630"/>
      <point x="47" y="629" type="curve" smooth="yes"/>
      <point x="54" y="628"/>
      <point x="63" y="626"/>
      <point x="75" y="624" type="curve"/>
      <point x="328" y="0" type="line"/>
      <point x="449" y="0" type="line"/>
      <point x="701" y="624" type="line"/>
      <point x="713" y="626"/>
      <point x="723" y="628"/>
      <point x="730" y="629" type="curve" smooth="yes"/>
      <point x="737" y="630"/>
      <point x="741" y="632"/>
      <point x="744" y="632" type="curve" smooth="yes"/>
      <point x="747" y="632"/>
      <point x="748" y="633"/>
      <point x="750" y="633" type="curve"/>
      <point x="767" y="637"/>
      <point x="775" y="647"/>
      <point x="775" y="664" type="curve" smooth="yes"/>
    </contour>
    <contour>
      <point x="389" y="0" type="move" name="bottom"/>
    </contour>
    <contour>
      <point x="389" y="723" type="move" name="top"/>
    </contour>
  </outline>
</glyph>
<glyph name="W" format="1">
  <advance width="1105"/>
  <unicode hex="0057"/>
  <note>
    W
  </note>
  <outline>
    <contour>
      <point x="1104" y="723" type="line"/>
      <point x="1070" y="723" type="line"/>
      <point x="1028" y="723" type="line"/>
      <point x="964" y="723" type="line"/>
      <point x="834" y="723" type="line"/>
      <point x="834" y="664" type="line" smooth="yes"/>
      <point x="834" y="647"/>
      <point x="842" y="637"/>
      <point x="859" y="633" type="curve" smooth="yes"/>
      <point x="876" y="629"/>
      <point x="890" y="626"/>
      <point x="900" y="624" type="curve"/>
      <point x="797" y="260" type="line" smooth="yes"/>
      <point x="794" y="250"/>
      <point x="791" y="238"/>
      <point x="789" y="226" type="curve"/>
      <point x="786" y="214"/>
      <point x="784" y="202"/>
      <point x="782" y="189" type="curve"/>
      <point x="777" y="215"/>
      <point x="770" y="239"/>
      <point x="763" y="260" type="curve" smooth="yes"/>
      <point x="622" y="692" type="line" smooth="yes"/>
      <point x="619" y="701"/>
      <point x="614" y="709"/>
      <point x="606" y="715" type="curve" smooth="yes"/>
      <point x="598" y="721"/>
      <point x="589" y="723"/>
      <point x="577" y="723" type="curve" smooth="yes"/>
      <point x="537" y="723" type="line" smooth="yes"/>
      <point x="526" y="723"/>
      <point x="517" y="719"/>
      <point x="509" y="713" type="curve" smooth="yes"/>
      <point x="501" y="707"/>
      <point x="496" y="700"/>
      <point x="493" y="692" type="curve"/>
      <point x="351" y="260" type="line" smooth="yes"/>
      <point x="347" y="249"/>
      <point x="344" y="238"/>
      <point x="341" y="225" type="curve" smooth="yes"/>
      <point x="338" y="213"/>
      <point x="335" y="199"/>
      <point x="332" y="185" type="curve"/>
      <point x="330" y="199"/>
      <point x="327" y="213"/>
      <point x="325" y="225" type="curve"/>
      <point x="322" y="237"/>
      <point x="319" y="249"/>
      <point x="316" y="260" type="curve" smooth="yes"/>
      <point x="213" y="625" type="line"/>
      <point x="219" y="627"/>
      <point x="225" y="628"/>
      <point x="230" y="629" type="curve" smooth="yes"/>
      <point x="235" y="630"/>
      <point x="239" y="631"/>
      <point x="241" y="632" type="curve" smooth="yes"/>
      <point x="243" y="633"/>
      <point x="245" y="633"/>
      <point x="246" y="633" type="curve"/>
      <point x="263" y="637"/>
      <point x="271" y="647"/>
      <point x="271" y="664" type="curve" smooth="yes"/>
      <point x="271" y="723" type="line"/>
      <point x="148" y="723" type="line"/>
      <point x="77" y="723" type="line"/>
      <point x="36" y="723" type="line"/>
      <point x="1" y="723" type="line"/>
      <point x="1" y="664" type="line" smooth="yes"/>
      <point x="1" y="647"/>
      <point x="9" y="637"/>
      <point x="26" y="633" type="curve"/>
      <point x="27" y="633"/>
      <point x="30" y="632"/>
      <point x="37" y="631" type="curve" smooth="yes"/>
      <point x="44" y="630"/>
      <point x="54" y="628"/>
      <point x="66" y="626" type="curve"/>
      <point x="260" y="0" type="line"/>
      <point x="381" y="0" type="line"/>
      <point x="541" y="494" type="line" smooth="yes"/>
      <point x="543" y="500"/>
      <point x="545" y="506"/>
      <point x="547" y="514" type="curve" smooth="yes"/>
      <point x="549" y="521"/>
      <point x="551" y="530"/>
      <point x="553" y="538" type="curve"/>
      <point x="555" y="530"/>
      <point x="558" y="521"/>
      <point x="560" y="514" type="curve" smooth="yes"/>
      <point x="562" y="507"/>
      <point x="564" y="500"/>
      <point x="566" y="494" type="curve" smooth="yes"/>
      <point x="724" y="0" type="line"/>
      <point x="845" y="0" type="line"/>
      <point x="1040" y="626" type="line"/>
      <point x="1052" y="628"/>
      <point x="1061" y="630"/>
      <point x="1068" y="631" type="curve" smooth="yes"/>
      <point x="1075" y="632"/>
      <point x="1078" y="633"/>
      <point x="1079" y="633" type="curve"/>
      <point x="1096" y="637"/>
      <point x="1104" y="647"/>
      <point x="1104" y="664" type="curve" smooth="yes"/>
    </contour>
    <contour>
      <point x="553" y="0" type="move" name="bottom"/>
    </contour>
    <contour>
      <point x="553" y="723" type="move" name="top"/>
    </contour>
  </outline>
</glyph>
<glyph name="X" format="1">
  <advance width="744"/>
  <unicode hex="0058"/>
  <note>
    X
  </note>
  <outline>
    <contour>
      <point x="718" y="90" type="curve"/>
      <point x="712" y="91"/>
      <point x="687" y="94"/>
      <point x="642" y="99" type="curve"/>
      <point x="466" y="378" type="line"/>
      <point x="632" y="624" type="line"/>
      <point x="677" y="629"/>
      <point x="702" y="632"/>
      <point x="708" y="633" type="curve"/>
      <point x="725" y="637"/>
      <point x="733" y="647"/>
      <point x="733" y="664" type="curve" smooth="yes"/>
      <point x="733" y="723" type="line"/>
      <point x="699" y="723" type="line"/>
      <point x="664" y="723" type="line"/>
      <point x="653" y="723" type="line"/>
      <point x="570" y="723" type="line"/>
      <point x="428" y="723" type="line"/>
      <point x="428" y="664" type="line" smooth="yes"/>
      <point x="428" y="647"/>
      <point x="436" y="637"/>
      <point x="453" y="633" type="curve" smooth="yes"/>
      <point x="470" y="629"/>
      <point x="483" y="627"/>
      <point x="491" y="625" type="curve"/>
      <point x="391" y="467" type="line"/>
      <point x="388" y="463"/>
      <point x="386" y="458"/>
      <point x="384" y="454" type="curve" smooth="yes"/>
      <point x="382" y="450"/>
      <point x="380" y="445"/>
      <point x="378" y="441" type="curve"/>
      <point x="264" y="626" type="line"/>
      <point x="270" y="627"/>
      <point x="281" y="630"/>
      <point x="297" y="633" type="curve"/>
      <point x="314" y="637"/>
      <point x="322" y="647"/>
      <point x="322" y="664" type="curve" smooth="yes"/>
      <point x="322" y="723" type="line"/>
      <point x="182" y="723" type="line"/>
      <point x="91" y="723" type="line"/>
      <point x="86" y="723" type="line"/>
      <point x="48" y="723" type="line"/>
      <point x="11" y="723" type="line"/>
      <point x="11" y="664" type="line" smooth="yes"/>
      <point x="11" y="647"/>
      <point x="19" y="637"/>
      <point x="36" y="633" type="curve" smooth="yes"/>
      <point x="41" y="632"/>
      <point x="67" y="629"/>
      <point x="113" y="624" type="curve"/>
      <point x="279" y="372" type="line"/>
      <point x="102" y="99" type="line"/>
      <point x="57" y="94"/>
      <point x="32" y="91"/>
      <point x="27" y="90" type="curve" smooth="yes"/>
      <point x="10" y="86"/>
      <point x="1" y="76"/>
      <point x="1" y="59" type="curve" smooth="yes"/>
      <point x="1" y="0" type="line"/>
      <point x="38" y="0" type="line"/>
      <point x="76" y="0" type="line"/>
      <point x="82" y="0" type="line"/>
      <point x="164" y="0" type="line"/>
      <point x="312" y="0" type="line"/>
      <point x="312" y="59" type="line" smooth="yes"/>
      <point x="312" y="76"/>
      <point x="304" y="86"/>
      <point x="287" y="90" type="curve" smooth="yes"/>
      <point x="270" y="94"/>
      <point x="255" y="97"/>
      <point x="245" y="99" type="curve"/>
      <point x="358" y="279" type="line" smooth="yes"/>
      <point x="360" y="282"/>
      <point x="361" y="285"/>
      <point x="363" y="289" type="curve"/>
      <point x="365" y="292"/>
      <point x="367" y="296"/>
      <point x="368" y="300" type="curve"/>
      <point x="491" y="96" type="line"/>
      <point x="487" y="95"/>
      <point x="476" y="93"/>
      <point x="461" y="90" type="curve" smooth="yes"/>
      <point x="444" y="86"/>
      <point x="436" y="76"/>
      <point x="436" y="59" type="curve" smooth="yes"/>
      <point x="436" y="0" type="line"/>
      <point x="571" y="0" type="line"/>
      <point x="663" y="0" type="line"/>
      <point x="672" y="0" type="line"/>
      <point x="705" y="0" type="line"/>
      <point x="743" y="0" type="line"/>
      <point x="743" y="59" type="line" smooth="yes"/>
      <point x="743" y="76"/>
      <point x="735" y="86"/>
    </contour>
    <contour>
      <point x="373" y="0" type="move" name="bottom"/>
    </contour>
    <contour>
      <point x="373" y="723" type="move" name="top"/>
    </contour>
  </outline>
</glyph>
<glyph name="Y" format="1">
  <advance width="696"/>
  <unicode hex="0059"/>
  <note>
    Y
  </note>
  <outline>
    <contour>
      <point x="695" y="723" type="line"/>
      <point x="679" y="723" type="line"/>
      <point x="661" y="723" type="line"/>
      <point x="619" y="723" type="line"/>
      <point x="560" y="723" type="line"/>
      <point x="425" y="723" type="line"/>
      <point x="425" y="664" type="line" smooth="yes"/>
      <point x="425" y="647"/>
      <point x="433" y="637"/>
      <point x="450" y="633" type="curve"/>
      <point x="451" y="633"/>
      <point x="453" y="633"/>
      <point x="455" y="632" type="curve"/>
      <point x="457" y="632"/>
      <point x="460" y="630"/>
      <point x="464" y="629" type="curve" smooth="yes"/>
      <point x="468" y="628"/>
      <point x="474" y="627"/>
      <point x="479" y="626" type="curve"/>
      <point x="384" y="451" type="line" smooth="yes"/>
      <point x="376" y="437"/>
      <point x="370" y="424"/>
      <point x="364" y="411" type="curve" smooth="yes"/>
      <point x="358" y="398"/>
      <point x="353" y="386"/>
      <point x="349" y="373" type="curve"/>
      <point x="344" y="385"/>
      <point x="340" y="398"/>
      <point x="334" y="411" type="curve" smooth="yes"/>
      <point x="328" y="424"/>
      <point x="322" y="437"/>
      <point x="314" y="451" type="curve" smooth="yes"/>
      <point x="218" y="626" type="line"/>
      <point x="223" y="627"/>
      <point x="228" y="628"/>
      <point x="232" y="629" type="curve" smooth="yes"/>
      <point x="236" y="630"/>
      <point x="240" y="631"/>
      <point x="242" y="632" type="curve"/>
      <point x="244" y="632"/>
      <point x="245" y="633"/>
      <point x="246" y="633" type="curve"/>
      <point x="263" y="637"/>
      <point x="271" y="647"/>
      <point x="271" y="664" type="curve" smooth="yes"/>
      <point x="271" y="723" type="line"/>
      <point x="136" y="723" type="line"/>
      <point x="77" y="723" type="line"/>
      <point x="36" y="723" type="line"/>
      <point x="18" y="723" type="line"/>
      <point x="1" y="723" type="line"/>
      <point x="1" y="664" type="line" smooth="yes"/>
      <point x="1" y="647"/>
      <point x="9" y="637"/>
      <point x="26" y="633" type="curve"/>
      <point x="27" y="633"/>
      <point x="29" y="633"/>
      <point x="32" y="632" type="curve"/>
      <point x="35" y="632"/>
      <point x="40" y="630"/>
      <point x="47" y="629" type="curve" smooth="yes"/>
      <point x="54" y="628"/>
      <point x="65" y="626"/>
      <point x="77" y="624" type="curve"/>
      <point x="281" y="281" type="line"/>
      <point x="281" y="99" type="line"/>
      <point x="269" y="97"/>
      <point x="259" y="95"/>
      <point x="252" y="94" type="curve" smooth="yes"/>
      <point x="245" y="93"/>
      <point x="240" y="92"/>
      <point x="237" y="91" type="curve" smooth="yes"/>
      <point x="234" y="90"/>
      <point x="231" y="90"/>
      <point x="230" y="90" type="curve"/>
      <point x="213" y="86"/>
      <point x="205" y="76"/>
      <point x="205" y="59" type="curve" smooth="yes"/>
      <point x="205" y="0" type="line"/>
      <point x="281" y="0" type="line"/>
      <point x="416" y="0" type="line"/>
      <point x="491" y="0" type="line"/>
      <point x="491" y="59" type="line" smooth="yes"/>
      <point x="491" y="76"/>
      <point x="483" y="86"/>
      <point x="466" y="90" type="curve"/>
      <point x="465" y="90"/>
      <point x="463" y="91"/>
      <point x="460" y="91" type="curve" smooth="yes"/>
      <point x="457" y="91"/>
      <point x="452" y="93"/>
      <point x="445" y="94" type="curve" smooth="yes"/>
      <point x="438" y="95"/>
      <point x="428" y="97"/>
      <point x="416" y="99" type="curve"/>
      <point x="416" y="281" type="line"/>
      <point x="620" y="624" type="line"/>
      <point x="632" y="626"/>
      <point x="642" y="628"/>
      <point x="649" y="629" type="curve" smooth="yes"/>
      <point x="656" y="630"/>
      <point x="661" y="632"/>
      <point x="664" y="632" type="curve" smooth="yes"/>
      <point x="667" y="632"/>
      <point x="668" y="633"/>
      <point x="670" y="633" type="curve"/>
      <point x="687" y="637"/>
      <point x="695" y="647"/>
      <point x="695" y="664" type="curve" smooth="yes"/>
    </contour>
    <contour>
      <point x="348" y="0" type="move" name="bottom"/>
    </contour>
    <contour>
      <point x="348" y="723" type="move" name="top"/>
    </contour>
    <contour>
      <point x="5" y="723" type="move" name="topleft"/>
    </contour>
  </outline>
</glyph>
<glyph name="Z" format="1">
  <advance width="588"/>
  <unicode hex="005A"/>
  <note>
    Z
  </note>
  <outline>
    <contour>
      <point x="189" y="107" type="line"/>
      <point x="560" y="631" type="line" smooth="yes"/>
      <point x="569" y="644"/>
      <point x="573" y="658"/>
      <point x="573" y="673" type="curve" smooth="yes"/>
      <point x="573" y="723" type="line"/>
      <point x="38" y="723" type="line"/>
      <point x="39" y="526" type="line"/>
      <point x="92" y="526" type="line" smooth="yes"/>
      <point x="105" y="526"/>
      <point x="112" y="533"/>
      <point x="115" y="545" type="curve"/>
      <point x="115" y="548"/>
      <point x="119" y="571"/>
      <point x="124" y="616" type="curve"/>
      <point x="399" y="616" type="line"/>
      <point x="27" y="90" type="line"/>
      <point x="23" y="85"/>
      <point x="20" y="78"/>
      <point x="18" y="72" type="curve" smooth="yes"/>
      <point x="16" y="66"/>
      <point x="15" y="60"/>
      <point x="15" y="53" type="curve" smooth="yes"/>
      <point x="15" y="0" type="line"/>
      <point x="564" y="0" type="line"/>
      <point x="564" y="107" type="line"/>
      <point x="564" y="195" type="line"/>
      <point x="511" y="195" type="line" smooth="yes"/>
      <point x="498" y="195"/>
      <point x="491" y="188"/>
      <point x="488" y="176" type="curve"/>
      <point x="488" y="173"/>
      <point x="484" y="150"/>
      <point x="479" y="107" type="curve"/>
    </contour>
    <contour>
      <point x="295" y="0" type="move" name="bottom"/>
    </contour>
    <contour>
      <point x="295" y="723" type="move" name="top"/>
    </contour>
  </outline>
</glyph>
<glyph name="bracketleft" format="1">
  <advance width="330"/>
  <unicode hex="005B"/>
  <note>
    bracketleft
  </note>
  <outline>
    <contour>
      <point x="79" y="774" type="line"/>
      <point x="79" y="-154" type="line"/>
      <point x="283" y="-154" type="line"/>
      <point x="283" y="-106" type="line" smooth="yes"/>
      <point x="283" y="-97"/>
      <point x="280" y="-89"/>
      <point x="274" y="-83" type="curve" smooth="yes"/>
      <point x="268" y="-77"/>
      <point x="261" y="-74"/>
      <point x="251" y="-74" type="curve" smooth="yes"/>
      <point x="181" y="-74" type="line"/>
      <point x="181" y="694" type="line"/>
      <point x="251" y="694" type="line" smooth="yes"/>
      <point x="261" y="694"/>
      <point x="268" y="697"/>
      <point x="274" y="703" type="curve" smooth="yes"/>
      <point x="280" y="709"/>
      <point x="283" y="716"/>
      <point x="283" y="725" type="curve" smooth="yes"/>
      <point x="283" y="774" type="line"/>
    </contour>
  </outline>
</glyph>
<glyph name="backslash" format="1">
  <advance width="456"/>
  <unicode hex="005C"/>
  <note>
    backslash
  </note>
  <outline>
    <contour>
      <point x="78" y="743" type="curve" smooth="yes"/>
      <point x="25" y="743" type="line"/>
      <point x="315" y="-2" type="line" smooth="yes"/>
      <point x="321" y="-17"/>
      <point x="330" y="-28"/>
      <point x="342" y="-36" type="curve" smooth="yes"/>
      <point x="354" y="-44"/>
      <point x="367" y="-48"/>
      <point x="380" y="-48" type="curve" smooth="yes"/>
      <point x="432" y="-48" type="line"/>
      <point x="141" y="700" type="line" smooth="yes"/>
      <point x="135" y="714"/>
      <point x="127" y="724"/>
      <point x="116" y="732" type="curve" smooth="yes"/>
      <point x="105" y="740"/>
      <point x="93" y="743"/>
    </contour>
  </outline>
</glyph>
<glyph name="bracketright" format="1">
  <advance width="330"/>
  <unicode hex="005D"/>
  <note>
    bracketright
  </note>
  <outline>
    <contour>
      <point x="47" y="-106" type="curve" smooth="yes"/>
      <point x="47" y="-154" type="line"/>
      <point x="251" y="-154" type="line"/>
      <point x="251" y="774" type="line"/>
      <point x="47" y="774" type="line"/>
      <point x="47" y="725" type="line" smooth="yes"/>
      <point x="47" y="716"/>
      <point x="50" y="709"/>
      <point x="56" y="703" type="curve" smooth="yes"/>
      <point x="62" y="697"/>
      <point x="69" y="694"/>
      <point x="79" y="694" type="curve" smooth="yes"/>
      <point x="149" y="694" type="line"/>
      <point x="149" y="-74" type="line"/>
      <point x="79" y="-74" type="line" smooth="yes"/>
      <point x="69" y="-74"/>
      <point x="62" y="-77"/>
      <point x="56" y="-83" type="curve" smooth="yes"/>
      <point x="50" y="-89"/>
      <point x="47" y="-97"/>
    </contour>
  </outline>
</glyph>
<glyph name="asciicircum" format="1">
  <advance width="526"/>
  <unicode hex="005E"/>
  <note>
    asciicircum
  </note>
  <outline>
    <contour>
      <point x="399" y="388" type="curve" smooth="yes"/>
      <point x="490" y="388" type="line"/>
      <point x="303" y="723" type="line"/>
      <point x="223" y="723" type="line"/>
      <point x="36" y="388" type="line"/>
      <point x="132" y="388" type="line" smooth="yes"/>
      <point x="141" y="388"/>
      <point x="147" y="390"/>
      <point x="152" y="394" type="curve" smooth="yes"/>
      <point x="157" y="398"/>
      <point x="161" y="403"/>
      <point x="164" y="409" type="curve" smooth="yes"/>
      <point x="242" y="554" type="line" smooth="yes"/>
      <point x="247" y="563"/>
      <point x="251" y="572"/>
      <point x="255" y="580" type="curve" smooth="yes"/>
      <point x="259" y="588"/>
      <point x="261" y="597"/>
      <point x="264" y="606" type="curve"/>
      <point x="267" y="597"/>
      <point x="271" y="588"/>
      <point x="275" y="580" type="curve" smooth="yes"/>
      <point x="279" y="572"/>
      <point x="283" y="563"/>
      <point x="288" y="554" type="curve" smooth="yes"/>
      <point x="368" y="409" type="line"/>
      <point x="371" y="403"/>
      <point x="375" y="398"/>
      <point x="380" y="394" type="curve" smooth="yes"/>
      <point x="385" y="390"/>
      <point x="391" y="388"/>
    </contour>
  </outline>
</glyph>
<glyph name="underscore" format="1">
  <advance width="482"/>
  <unicode hex="005F"/>
  <note>
    underscore
  </note>
  <outline>
    <contour>
      <point x="438" y="-147" type="line"/>
      <point x="438" y="-67" type="line"/>
      <point x="44" y="-67" type="line"/>
      <point x="44" y="-147" type="line"/>
    </contour>
  </outline>
</glyph>
<glyph name="grave" format="1">
  <advance width="295"/>
  <unicode hex="0060"/>
  <note>
    grave
  </note>
  <outline>
    <contour>
      <point x="146" y="731" type="curve" smooth="yes"/>
      <point x="30" y="731" type="line"/>
      <point x="154" y="600" type="line"/>
      <point x="160" y="593"/>
      <point x="166" y="590"/>
      <point x="172" y="587" type="curve"/>
      <point x="178" y="585"/>
      <point x="185" y="583"/>
      <point x="194" y="583" type="curve" smooth="yes"/>
      <point x="265" y="583" type="line"/>
      <point x="194" y="704" type="line" smooth="yes"/>
      <point x="189" y="713"/>
      <point x="182" y="720"/>
      <point x="176" y="724" type="curve" smooth="yes"/>
      <point x="170" y="728"/>
      <point x="160" y="731"/>
    </contour>
  </outline>
</glyph>
